<svg width="376" height="45" viewBox="0 0 376 45" fill="none" xmlns="http://www.w3.org/2000/svg">
<path d="M233.3 15H223.9C223.8 15 223.8 15 223.8 15.1V21.8C223.8 21.9 223.8 21.9 223.9 21.9H230.6C230.8 21.9 230.9 22 230.9 22.2V22.9C230.9 23.1 230.8 23.2 230.6 23.2H223.9C223.8 23.2 223.8 23.2 223.8 23.3V30C223.8 30.1 223.8 30.1 223.9 30.1H233.3C233.5 30.1 233.6 30.2 233.6 30.4V31C233.6 31.2001 233.5 31.3 233.3 31.3H222.7C222.5 31.3 222.4 31.2001 222.4 31V14.1C222.4 13.9 222.5 13.8 222.7 13.8H233.3C233.5 13.8 233.6 13.9 233.6 14.1V14.8C233.6 14.9 233.5 15 233.3 15Z" fill="black"/>
<path d="M236.2 23.8V23.1C236.2 22.9 236.3 22.8 236.5 22.8H243.6C243.8 22.8 243.9 22.9 243.9 23.1V23.8C243.9 24 243.8 24.1 243.6 24.1H236.5C236.3 24 236.2 23.9 236.2 23.8Z" fill="black"/>
<path d="M249.6 30.7C248.8 30.3 248.1 29.6 247.6 28.8C247.1 28 246.9 27 246.9 25.9V18.8C246.9 17.7 247.2 16.8 247.6 16C248.1 15.2 248.8 14.6 249.6 14.2C250.4 13.8 251.4 13.5 252.6 13.5C253.7 13.5 254.7 13.8 255.5 14.2C256.3 14.6 257 15.3 257.5 16C258 16.8 258.2 17.7 258.2 18.8C258.2 18.9 258.2 19 258.1 19C258 19.1 258 19.1 257.9 19.1L257.1 19.2C256.9 19.2 256.8 19.1 256.8 18.9V18.8C256.8 17.5 256.4 16.5 255.6 15.8C254.8 15 253.8 14.7 252.4 14.7C251.1 14.7 250 15 249.2 15.8C248.4 16.6 248 17.6 248 18.8V26C248 27.3 248.4 28.3 249.2 29C250 29.8 251 30.2 252.4 30.2C253.7 30.2 254.8 29.8 255.6 29C256.4 28.2 256.8 27.2 256.8 26C256.8 25.8 256.9 25.7 257.1 25.7L257.9 25.8C258.1 25.8 258.2 25.9 258.2 26.1C258.2 27.1 257.9 28 257.5 28.9C257 29.7 256.3 30.3 255.5 30.7C254.7 31.1 253.7 31.4 252.6 31.4C251.4 31.4 250.4 31.2 249.6 30.7Z" fill="black"/>
<path d="M264.7 30.7C263.9 30.2 263.2 29.5 262.7 28.7C262.2 27.9 262 26.9 262 25.8V19.2C262 18.1 262.3 17.1 262.7 16.3C263.2 15.5 263.9 14.8 264.7 14.3C265.5 13.8 266.5 13.6 267.7 13.6C268.9 13.6 269.9 13.9 270.7 14.3C271.5 14.8 272.3 15.5 272.7 16.3C273.2 17.1 273.5 18.1 273.5 19.2V25.8C273.5 26.9 273.2 27.9 272.7 28.7C272.2 29.5 271.5 30.2 270.7 30.7C269.9 31.2 268.9 31.4 267.7 31.4C266.5 31.4 265.5 31.2 264.7 30.7ZM270.9 29.1C271.7 28.3 272.2 27.3 272.2 25.9V19.3C272.2 18 271.8 16.9 270.9 16.1C270.1 15.3 269 14.8 267.6 14.8C266.2 14.8 265.2 15.2 264.4 16.1C263.6 16.9 263.1 18 263.1 19.3V25.9C263.1 27.2 263.5 28.3 264.4 29.1C265.2 29.9 266.2 30.4 267.6 30.4C269 30.3 270.1 29.9 270.9 29.1Z" fill="black"/>
<path d="M289.6 13.8H290.4C290.6 13.8 290.7 13.9 290.7 14.1V31C290.7 31.2001 290.6 31.3 290.4 31.3H289.6C289.4 31.3 289.3 31.2001 289.3 31V16.4C289.3 16.3 289.3 16.3 289.2 16.3C289.2 16.3 289.1 16.3 289.1 16.4L284.7 23.1C284.6 23.2 284.5 23.3 284.4 23.3H284C283.9 23.3 283.7 23.2 283.7 23.1L279.2 16.4C279.2 16.3 279.2 16.3 279.1 16.3L279 16.4V30.9C279 31.1 278.9 31.2001 278.7 31.2001H277.9C277.7 31.2001 277.6 31.1 277.6 30.9V14.1C277.6 13.9 277.7 13.8 277.9 13.8H278.7C278.8 13.8 279 13.9 279 14L283.9 21.5C283.9 21.5 283.9 21.5 284 21.5H284.1L289 14C289.4 13.8 289.5 13.8 289.6 13.8Z" fill="black"/>
<path d="M307.4 13.8H308.2C308.4 13.8 308.5 13.9 308.5 14.1V31C308.5 31.2001 308.4 31.3 308.2 31.3H307.4C307.2 31.3 307.1 31.2001 307.1 31V16.4C307.1 16.3 307.1 16.3 307 16.3C307 16.3 306.9 16.3 306.9 16.4L302.5 23.1C302.4 23.2 302.3 23.3 302.2 23.3H301.8C301.7 23.3 301.5 23.2 301.5 23.1L297 16.4C297 16.3 297 16.3 296.9 16.3L296.8 16.4V30.9C296.8 31.1 296.7 31.2001 296.5 31.2001H295.7C295.5 31.2001 295.4 31.1 295.4 30.9V14.1C295.4 13.9 295.5 13.8 295.7 13.8H296.5C296.6 13.8 296.8 13.9 296.8 14L301.7 21.5C301.7 21.5 301.7 21.5 301.8 21.5H301.9L306.8 14C307.2 13.8 307.3 13.8 307.4 13.8Z" fill="black"/>
<path d="M324.4 15H315C314.9 15 314.9 15 314.9 15.1V21.8C314.9 21.9 314.9 21.9 315 21.9H321.7C321.9 21.9 322 22 322 22.2V22.9C322 23.1 321.9 23.2 321.7 23.2H315C314.9 23.2 314.9 23.2 314.9 23.3V30C314.9 30.1 314.9 30.1 315 30.1H324.4C324.6 30.1 324.7 30.2 324.7 30.4V31C324.7 31.2001 324.6 31.3 324.4 31.3H313.8C313.6 31.3 313.5 31.2001 313.5 31V14.1C313.5 13.9 313.6 13.8 313.8 13.8H324.4C324.6 13.8 324.7 13.9 324.7 14.1V14.8C324.7 14.9 324.6 15 324.4 15Z" fill="black"/>
<path d="M338.8 31.1L335 23.2C335 23.1 334.9 23.1 334.9 23.1H330.2C330.1 23.1 330.1 23.1 330.1 23.2V31C330.1 31.2001 330 31.3 329.8 31.3H329C328.8 31.3 328.7 31.2001 328.7 31V14.1C328.7 13.9 328.8 13.8 329 13.8H335.3C336.7 13.8 337.8 14.2 338.7 15.1C339.6 16 340 17.1 340 18.5C340 19.7 339.7 20.7 339 21.4C338.3 22.2 337.5 22.7 336.4 22.9C336.3 22.9 336.3 23 336.3 23L340.1 30.8V30.9C340.1 31 340 31.1 339.9 31.1H339.1C338.9 31.2 338.9 31.2 338.8 31.1ZM330.1 15.1V21.9C330.1 22 330.1 22 330.2 22H335.2C336.2 22 337 21.7 337.7 21C338.4 20.3 338.6 19.5 338.6 18.5C338.6 17.5 338.3 16.7 337.7 16C337 15.3 336.2 15 335.2 15H330.2C330.1 15 330.1 15 330.1 15.1Z" fill="black"/>
<path d="M346.1 30.7C345.3 30.3 344.6 29.6 344.1 28.8C343.6 28 343.4 27 343.4 25.9V18.8C343.4 17.7 343.7 16.8 344.1 16C344.6 15.2 345.3 14.6 346.1 14.2C346.9 13.8 347.9 13.5 349.1 13.5C350.2 13.5 351.2 13.8 352 14.2C352.8 14.6 353.5 15.3 354 16C354.5 16.8 354.7 17.7 354.7 18.8C354.7 18.9 354.7 19 354.6 19C354.5 19.1 354.5 19.1 354.4 19.1L353.6 19.2C353.4 19.2 353.3 19.1 353.3 18.9V18.8C353.3 17.5 352.9 16.5 352.1 15.8C351.3 15 350.3 14.7 348.9 14.7C347.6 14.7 346.5 15 345.7 15.8C344.9 16.6 344.5 17.6 344.5 18.8V26C344.5 27.3 344.9 28.3 345.7 29C346.5 29.8 347.5 30.2 348.9 30.2C350.3 30.2 351.3 29.8 352.1 29C352.9 28.2 353.3 27.2 353.3 26C353.3 25.8 353.4 25.7 353.6 25.7L354.4 25.8C354.6 25.8 354.7 25.9 354.7 26.1C354.7 27.1 354.4 28 354 28.9C353.5 29.7 352.8 30.3 352 30.7C351.2 31.1 350.2 31.4 349.1 31.4C348 31.4 347 31.2 346.1 30.7Z" fill="black"/>
<path d="M369.9 15H360.5C360.4 15 360.4 15 360.4 15.1V21.8C360.4 21.9 360.4 21.9 360.5 21.9H367.2C367.4 21.9 367.5 22 367.5 22.2V22.9C367.5 23.1 367.4 23.2 367.2 23.2H360.5C360.4 23.2 360.4 23.2 360.4 23.3V30C360.4 30.1 360.4 30.1 360.5 30.1H369.9C370.1 30.1 370.2 30.2 370.2 30.4V31C370.2 31.2001 370.1 31.3 369.9 31.3H359.3C359.1 31.3 359 31.2001 359 31V14.1C359 13.9 359.1 13.8 359.3 13.8H369.9C370.1 13.8 370.2 13.9 370.2 14.1V14.8C370.2 14.9 370.1 15 369.9 15Z" fill="black"/>
<path d="M22.5001 40.4C32.386 40.4 40.4001 32.3859 40.4001 22.5C40.4001 12.6141 32.386 4.59998 22.5001 4.59998C12.6142 4.59998 4.6001 12.6141 4.6001 22.5C4.6001 32.3859 12.6142 40.4 22.5001 40.4Z" fill="#FFD103"/>
<path d="M56.8999 32C51.5999 32 47.3999 27.9 47.3999 22.5C47.3999 17.1 51.4999 13 56.8999 13C62.1999 13 66.3999 17.1 66.3999 22.5C66.3999 27.9 62.2999 32 56.8999 32ZM56.8999 17.6C54.0999 17.6 52.0999 19.6 52.0999 22.5C52.0999 25.3 54.0999 27.4 56.8999 27.4C59.6999 27.4 61.6999 25.4 61.6999 22.5C61.6999 19.7 59.6999 17.6 56.8999 17.6Z" fill="#1E1E1E"/>
<path d="M80.6001 31.5V21.1C80.6001 18.8 79.3001 17.5 77.2001 17.5C74.8001 17.5 73.4001 19.6 73.3001 20V31.5H68.6001V13.6H72.7001V15.4C73.8001 13.9 76.2001 13 78.5001 13C80.4001 13 82.1001 13.7 83.3001 14.9C84.6001 16.2 85.2001 18.1 85.2001 20.4V31.4H80.6001V31.5Z" fill="#1E1E1E"/>
<path d="M115.6 31.7C113.5 31.7 112 31.2 111 30.2C110 29.2 109.5 27.7 109.5 25.7V18H107V13.5H109.6V9.29995L114.3 8.19995V13.5H118.9V18H114.2V25.7C114.2 26.4 114.6 27.2999 116.6 27.2999C117.4 27.2999 118.9 27.1 118.9 27.1V31.2999C117.7 31.6999 116.5 31.7 115.6 31.7Z" fill="#1E1E1E"/>
<path d="M97.1003 32C91.3003 32 87.3003 28.1 87.3003 22.5C87.3003 17 91.2003 13 96.8003 13C102 13 105.9 17 105.9 22.5C105.9 23.1 105.8 23.7 105.7 24.4V24.5H92.3003C92.9003 26.6 94.7003 27.7 97.3003 27.7C99.4003 27.7 100.7 26.6 101.1 26.2L105 28.4C103.1 30.7 100.5 32 97.1003 32ZM101.1 20.7C100.6 18.5 99.0003 17.3 96.7003 17.3C94.3003 17.3 92.7003 18.6 92.1003 20.7H101.1Z" fill="#1E1E1E"/>
<path d="M146.2 27.4999H135.8L134 31.1999H129L138 13.7999H144L153 31.1999H148L146.2 27.4999ZM144.6 24.1999L141.1 17.0999L137.6 24.1999H144.6Z" fill="#1E1E1E"/>
<path d="M175.1 22.4999C175.1 28.3999 171.2 31.1999 166.6 31.1999H154V13.7999H166.6C171.2 13.7999 175.1 16.5999 175.1 22.4999ZM170.7 22.4999C170.7 18.2999 168.4 17.4999 165.1 17.4999H158.6V27.3999H165.1C168.4 27.4999 170.7 26.7999 170.7 22.4999Z" fill="#1E1E1E"/>
<path d="M180.7 25.2C180.7 27 182.2 27.9 187.8 27.9C192.5 27.9 193.9 27.4 193.9 26.1C193.9 24.7 192.9 24.4 187.3 24.2C179.7 23.9 176.7 22.7 176.7 18.7C176.7 14.8 180.6 13.7 187.1 13.7C193.7 13.7 197.6 15.4 197.6 19.7H193.1C193.1 17.8 191.2 17.3 186.5 17.3C182.1 17.3 181 17.7 181 19C181 20.3 182 20.6 187.1 20.8C194 21.1 198.2 21.6 198.2 25.9C198.2 30.5 193.8 31.5 187.4 31.5C180.3 31.5 176.1 30.2999 176.1 25.3L180.7 25.2Z" fill="#1E1E1E"/>
<path d="M210.7 31.2C210.2 31.2 209.9 30.9 209.9 30.4V14.7C209.9 14.3 210.2 13.9 210.7 13.9C211.1 13.9 211.5 14.2 211.5 14.7V30.4C211.5 30.8 211.2 31.2 210.7 31.2Z" fill="#FFD103"/>
</svg>
