<svg width="552" height="320" viewBox="0 0 552 320" fill="none" xmlns="http://www.w3.org/2000/svg">
<g clip-path="url(#clip0_325_9766)">
<g clip-path="url(#clip1_325_9766)">
<g clip-path="url(#clip2_325_9766)">
<path d="M144.953 318.899C224.802 318.899 289.533 254.224 289.533 174.445C289.533 94.6647 224.802 29.9902 144.953 29.9902C65.104 29.9902 0.373535 94.6647 0.373535 174.445C0.373535 254.224 65.104 318.899 144.953 318.899Z" fill="#F5F5F5"/>
<path d="M491.944 50.984C477.626 50.984 466.019 39.5708 466.019 25.4919C466.019 11.4131 477.626 0 491.944 0C506.262 0 517.869 11.4131 517.869 25.4919C517.869 39.5708 506.262 50.984 491.944 50.984Z" fill="#FFD810"/>
<path d="M525.347 72.9768C519.564 72.9768 514.877 68.2772 514.877 62.48C514.877 56.6829 519.564 51.9834 525.347 51.9834C531.13 51.9834 535.817 56.6829 535.817 62.48C535.817 68.2772 531.13 72.9768 525.347 72.9768Z" fill="#231F20"/>
<path d="M540.908 228.413H54.1117C48.748 228.413 44.3999 232.772 44.3999 238.15V309.246C44.3999 314.624 48.748 318.983 54.1117 318.983H540.908C546.272 318.983 550.62 314.624 550.62 309.246V238.15C550.62 232.772 546.272 228.413 540.908 228.413Z" fill="white" stroke="#231F20" stroke-width="0.747617" stroke-linecap="round" stroke-linejoin="round"/>
<path d="M69.1874 253.004H104.561C106.191 253.004 107.491 254.331 107.491 255.942V291.407C107.491 293.042 106.168 294.345 104.561 294.345H69.1874C67.557 294.345 66.2573 293.018 66.2573 291.407V255.942C66.2573 254.307 67.5806 253.004 69.1874 253.004Z" fill="#FFD800" stroke="#231F20" stroke-width="0.747617" stroke-linecap="round" stroke-linejoin="round"/>
<path d="M135.138 257.529H205.082" stroke="#231F20" stroke-width="0.747617" stroke-linecap="round" stroke-linejoin="round"/>
<path d="M135.138 273.686H291.566" stroke="#231F20" stroke-width="0.747617" stroke-linecap="round" stroke-linejoin="round"/>
<path d="M135.138 289.843H291.566" stroke="#231F20" stroke-width="0.747617" stroke-linecap="round" stroke-linejoin="round"/>
<path d="M77.1504 271.72L85.2318 279.846L97.5193 267.526" stroke="#231F20" stroke-width="0.747617" stroke-linecap="round" stroke-linejoin="round"/>
<path d="M528.219 294.369H492.845C491.215 294.369 489.915 293.042 489.915 291.431V255.965C489.915 254.33 491.238 253.027 492.845 253.027H528.219C529.849 253.027 531.149 254.354 531.149 255.965V291.431C531.149 293.065 529.826 294.369 528.219 294.369Z" fill="#FFD800" stroke="#231F20" stroke-width="0.747617" stroke-linecap="round" stroke-linejoin="round"/>
<path d="M462.268 289.843H330.722" stroke="#231F20" stroke-width="0.747617" stroke-linecap="round" stroke-linejoin="round"/>
<path d="M462.268 273.686H305.839" stroke="#231F20" stroke-width="0.747617" stroke-linecap="round" stroke-linejoin="round"/>
<path d="M462.268 257.529H397.712" stroke="#231F20" stroke-width="0.747617" stroke-linecap="round" stroke-linejoin="round"/>
<path d="M518.672 265.513L502.367 281.86" stroke="#231F20" stroke-width="0.747617" stroke-linecap="round" stroke-linejoin="round"/>
<path d="M518.672 281.86L502.367 265.513" stroke="#231F20" stroke-width="0.747617" stroke-linecap="round" stroke-linejoin="round"/>
<path d="M150.001 237.296C146.078 226.186 143.101 214.434 140.974 204.508L150.001 237.296Z" fill="white"/>
<path d="M150.852 237.059C147.095 226.351 144.212 215.358 141.825 204.272L140.124 204.745C142.77 214.317 145.393 223.911 148.04 233.483L149.15 237.534C149.457 238.623 151.159 238.173 150.852 237.059C148.205 227.489 145.582 217.893 142.936 208.323L141.825 204.272C141.517 203.158 139.888 203.632 140.124 204.745C142.51 215.833 145.393 226.825 149.15 237.534C149.528 238.599 151.229 238.15 150.852 237.059Z" fill="#231F20"/>
<path d="M180.153 234.17C179.373 236.467 178.002 238.553 176.206 240.211C175.852 240.542 175.876 241.135 176.206 241.467C176.561 241.821 177.104 241.798 177.459 241.467C179.468 239.595 180.98 237.226 181.878 234.619C182.044 234.17 181.689 233.648 181.263 233.53C180.768 233.388 180.318 233.696 180.177 234.146L180.153 234.17Z" fill="#231F20"/>
<path d="M180.909 234.975C181.618 236.183 182.35 237.391 183.059 238.599C183.295 239.002 183.863 239.168 184.264 238.907C184.666 238.647 184.832 238.125 184.571 237.699C183.863 236.491 183.13 235.283 182.421 234.074C182.185 233.672 181.618 233.505 181.216 233.766C180.814 234.027 180.649 234.548 180.909 234.975Z" fill="#231F20"/>
<path d="M445.065 147.863L445.491 170.346C445.491 170.346 446.885 176.174 445.656 179.42C445.609 179.609 445.538 179.798 445.468 179.988C445.42 180.153 445.349 180.32 445.302 180.461C445.302 180.461 430.155 265.133 416.899 270.606C404.328 275.794 381.738 262.575 361.439 250.303L375.169 218.865C375.169 218.865 393.245 228.389 401.233 233.482L429.754 174.089C435.211 161.746 437.669 152.696 438.047 148.834" fill="white"/>
<path d="M444.168 147.864L444.451 162.741C444.499 165.111 444.499 167.479 444.592 169.849C444.687 172.218 445.444 174.611 445.23 177.098C445.113 178.472 444.545 179.728 444.285 181.078C444.073 182.286 443.837 183.518 443.6 184.726C442.726 189.299 441.804 193.871 440.859 198.444C438.071 211.758 435.023 225.049 431.242 238.126C429.47 244.285 427.532 250.446 425.121 256.416C423.515 260.395 421.719 264.802 418.789 268.024C414.559 272.691 406.242 270.82 400.996 269.304C389.914 266.081 379.634 260.064 369.758 254.212C367.134 252.649 364.512 251.085 361.889 249.498L362.196 250.706C366.189 241.537 370.206 232.369 374.2 223.201C374.767 221.898 375.358 220.571 375.925 219.268L374.72 219.576C383.51 224.219 392.395 228.863 400.783 234.194C401.162 234.43 401.8 234.288 401.988 233.886C406.36 224.788 410.731 215.691 415.103 206.594C420.159 196.051 425.264 185.556 430.273 174.989C432.235 170.867 433.888 166.555 435.401 162.244C436.913 157.932 438.449 153.383 438.921 148.787C439.04 147.65 437.268 147.65 437.149 148.787C436.747 152.649 435.471 156.487 434.243 160.136C432.683 164.755 430.935 169.375 428.879 173.805C427.249 177.288 425.547 180.746 423.893 184.205L405.367 222.798C403.737 226.186 402.107 229.597 400.476 232.985L401.681 232.677C393.293 227.346 384.408 222.703 375.617 218.06C375.239 217.847 374.601 217.917 374.412 218.368C370.419 227.536 366.402 236.705 362.408 245.873C361.841 247.176 361.251 248.503 360.684 249.806C360.494 250.255 360.542 250.753 360.991 251.014C371.458 257.34 382.021 263.807 393.364 268.45C397.853 270.298 402.531 271.839 407.376 272.407C410.731 272.809 414.748 272.763 417.797 271.104C420.845 269.445 422.924 265.37 424.437 262.267C427.036 256.937 428.997 251.274 430.793 245.636C435.094 232.132 438.378 218.296 441.38 204.437C442.537 199.083 443.647 193.73 444.687 188.352C445.183 185.84 445.514 183.258 446.128 180.77C446.365 179.775 446.766 178.875 446.908 177.856C447.192 175.819 446.98 173.734 446.649 171.72C446.554 171.175 446.413 170.654 446.342 170.109C446.365 170.298 446.342 170.251 446.342 169.967C446.342 169.09 446.318 168.19 446.294 167.314L445.963 149.237V147.816C445.916 146.679 444.144 146.679 444.168 147.816V147.864Z" fill="#231F20"/>
<path d="M438.047 148.835C438.733 141.917 439.773 140.851 448.752 132.133C449.91 131.02 455.439 137.345 445.065 147.864" fill="white"/>
<path d="M438.922 148.835C439.135 146.75 439.394 144.594 440.387 142.722C441.592 140.425 443.506 138.553 445.302 136.752C445.987 136.066 446.672 135.379 447.358 134.715C447.759 134.336 448.137 133.933 448.539 133.555C448.728 133.365 448.941 133.199 449.106 132.985C449.39 132.725 449.437 132.677 449.225 132.844C449.225 132.844 449.272 132.82 449.295 132.82C449.201 132.82 449.011 132.985 449.106 132.891C448.846 133.128 448.941 132.749 449.035 132.891C449.035 132.891 449.225 133.009 449.059 132.891C448.941 132.796 449.177 132.961 449.225 133.009C449.011 132.844 449.318 133.104 449.366 133.152C449.697 133.483 449.98 134.099 450.146 134.668C450.382 135.52 450.406 136.444 450.287 137.344C449.768 141.206 447.051 144.546 444.427 147.248C443.625 148.053 444.877 149.332 445.68 148.503C448.421 145.708 451.115 142.297 451.918 138.363C452.32 136.374 452.249 134.076 451.02 132.369C450.642 131.848 450.122 131.351 449.484 131.185C449.13 131.09 448.752 131.137 448.421 131.304C447.665 131.706 447.051 132.559 446.436 133.152C443.978 135.544 441.308 137.937 439.442 140.827C437.882 143.244 437.433 146.016 437.149 148.835C437.032 149.972 438.804 149.972 438.922 148.835Z" fill="#231F20"/>
<path d="M290.74 186.599V318.96H250.546C242.984 274.469 241.944 253.976 241.944 253.976L220.583 263.499L201.514 219.861C201.514 219.861 203.333 218.605 206.523 216.544C211.816 213.18 220.913 207.66 231.949 202.282C239.014 198.8 264.817 186.599 290.74 186.599Z" fill="#231F20" stroke="#231F20" stroke-width="0.747617" stroke-linecap="round" stroke-linejoin="round"/>
<path d="M290.74 186.599V318.96H325.026C325.404 289.205 339.535 253.976 339.535 253.976L360.896 263.499L379.965 219.861C379.965 219.861 378.146 218.605 374.956 216.544C369.663 213.18 360.565 207.66 349.53 202.282C342.465 198.8 316.661 186.599 290.74 186.599Z" fill="#231F20" stroke="#231F20" stroke-width="0.747617" stroke-linecap="round" stroke-linejoin="round"/>
<path d="M297.049 154.521C296.647 162.576 300.711 181.362 304.587 188.588C302.673 203.158 296.978 216.852 285.234 215.359C272.545 213.748 277.436 185.58 277.436 185.58L278.688 174.516L297.073 154.521H297.049Z" fill="white" stroke="#231F20" stroke-width="0.747617" stroke-linecap="round" stroke-linejoin="round"/>
<path d="M305.225 149C321.601 112.73 302.484 128.626 278.783 127.086C277.767 139.666 268.859 134.573 271.883 136.042C274.908 137.511 278.381 137.63 281.761 137.534C285.116 137.439 302.106 131.328 302.106 140.685C302.106 140.685 301.421 148.408 306.737 148.408L305.249 149H305.225Z" fill="#231F20"/>
<path d="M311.18 149.522C310.565 150.991 309.738 152.389 308.746 153.645C308.084 154.473 307.328 155.374 307.446 156.393C307.516 156.937 307.801 157.412 307.99 157.932C308.32 158.951 308.084 160.136 307.423 160.965C306.737 161.794 305.627 162.244 304.563 162.125V160.539C304.044 170.962 299.53 181.575 290.48 181.553C280.839 181.553 269.733 169.446 269.733 158.406L269.78 133.08L304.658 135.212V158.335L304.776 150.754C305.508 149.403 307.092 147.769 308.368 146.94C309.194 146.419 310.306 146.063 311.037 146.679C311.818 147.343 311.558 148.575 311.18 149.522Z" fill="white"/>
<path d="M310.399 149.072C309.833 150.375 309.147 151.63 308.297 152.767C307.659 153.62 306.879 154.426 306.619 155.515C306.383 156.534 306.832 157.221 307.115 158.169C307.635 159.946 306.241 161.32 304.54 161.249L305.437 162.149V160.561C305.485 159.401 303.76 159.425 303.689 160.561C303.311 167.219 301.397 176.316 294.852 179.656C288.306 182.997 280.721 177.761 276.538 172.857C272.781 168.451 270.583 163.144 270.607 157.339V144.428C270.631 140.638 270.655 136.871 270.655 133.08L269.757 133.98C279.942 134.596 290.149 135.236 300.334 135.852L304.634 136.112L303.737 135.212C303.737 142.911 303.737 150.635 303.737 158.334C303.737 159.472 305.485 159.472 305.508 158.334L305.627 152.459C305.627 152.032 305.603 151.583 305.651 151.156C305.721 150.611 305.58 150.991 305.958 150.493C306.713 149.545 307.494 148.621 308.486 147.91C308.793 147.697 309.384 147.271 309.761 147.271C311.156 147.271 310.542 148.669 310.306 149.285C309.904 150.351 311.629 150.824 312.006 149.759C312.763 147.673 312.077 144.878 309.266 145.565C308.084 145.849 307.068 146.702 306.194 147.532C305.39 148.289 304.114 149.497 303.854 150.635C303.594 151.772 303.784 153.218 303.76 154.402L303.689 158.334H305.461C305.461 150.635 305.461 142.911 305.461 135.212C305.461 134.715 305.059 134.36 304.563 134.312C294.379 133.696 284.171 133.057 273.987 132.441L269.686 132.18C269.213 132.156 268.812 132.606 268.788 133.08C268.788 141.254 268.764 149.451 268.74 157.624C268.74 163.925 271.364 169.73 275.475 174.421C279.942 179.515 287.502 184.395 294.497 181.694C302.508 178.591 304.942 168.19 305.366 160.538H303.594V162.125C303.571 162.623 303.973 163.001 304.445 163.025C306.949 163.144 309.077 161.201 308.887 158.619C308.84 158.074 308.651 157.624 308.486 157.103C308.061 155.871 308.486 155.255 309.266 154.283C310.306 152.933 311.156 151.535 311.841 149.972C312.29 148.929 310.778 148.029 310.306 149.072H310.399Z" fill="#231F20"/>
<path d="M269.568 150.706L269.733 162.077C268.669 162.196 267.559 161.746 266.897 160.917C266.212 160.087 266 158.903 266.33 157.885C266.495 157.363 266.803 156.89 266.874 156.344C266.992 155.302 266.236 154.426 265.598 153.596C264.605 152.34 263.778 150.943 263.164 149.45C262.762 148.526 262.526 147.27 263.305 146.607C264.038 145.991 265.173 146.37 265.976 146.892C267.252 147.721 268.835 149.356 269.568 150.706Z" fill="white"/>
<path d="M268.669 150.706C268.717 154.496 268.788 158.287 268.835 162.078L269.733 161.177C268.717 161.249 267.724 160.846 267.276 159.874C266.826 158.903 267.181 158.145 267.535 157.245C268.362 155.018 266.448 153.431 265.362 151.725C264.983 151.132 262.407 146.702 264.605 147.224C265.504 147.437 266.283 148.171 266.921 148.788C267.654 149.498 268.316 150.256 268.812 151.132C269.378 152.128 270.914 151.227 270.347 150.232C269.402 148.574 267.914 146.939 266.236 145.991C265.409 145.518 264.369 145.186 263.447 145.518C262.526 145.849 262.006 146.678 261.935 147.602C261.864 148.526 262.219 149.403 262.573 150.232C263.046 151.299 263.613 152.317 264.298 153.264C264.842 154.047 265.905 154.971 266.023 155.966C266.071 156.463 265.764 156.937 265.598 157.387C265.433 157.837 265.338 158.358 265.338 158.855C265.362 161.249 267.417 163.096 269.78 162.93C270.253 162.907 270.678 162.552 270.678 162.03C270.631 158.239 270.56 154.449 270.513 150.659C270.513 149.521 268.717 149.521 268.74 150.659L268.669 150.706Z" fill="#231F20"/>
<path d="M305.532 151.18C306.052 150.256 306.761 149.451 307.54 148.716C308.178 148.124 308.982 147.389 309.856 147.248C311.888 146.94 309.266 151.323 308.911 151.891C307.824 153.55 305.981 155.089 306.785 157.293C307.115 158.193 307.469 158.975 307.021 159.923C306.571 160.87 305.579 161.296 304.563 161.225C303.428 161.131 303.428 162.907 304.563 163.002C306.547 163.144 308.462 161.841 308.911 159.851C309.147 158.785 308.911 157.909 308.533 156.913C308.083 155.777 308.769 155.018 309.454 154.142C310.683 152.554 312.077 150.54 312.385 148.503C312.692 146.465 311.109 144.949 309.076 145.613C307.044 146.276 305.083 148.408 304.019 150.28C303.452 151.275 304.988 152.175 305.556 151.18H305.532Z" fill="#231F20"/>
<path d="M270.324 150.256C269.378 148.574 267.843 146.868 266.118 145.945C264.393 145.021 262.03 145.399 261.912 147.721C261.864 148.669 262.219 149.545 262.597 150.399C263.069 151.464 263.66 152.459 264.322 153.407C264.866 154.165 265.976 155.112 265.976 156.107C265.976 156.558 265.692 157.008 265.528 157.434C265.362 157.909 265.267 158.406 265.267 158.903C265.267 161.296 267.347 163.144 269.709 162.978C270.844 162.884 270.844 161.106 269.709 161.201C268.693 161.272 267.701 160.846 267.252 159.898C266.803 158.95 267.157 158.169 267.512 157.269C268.339 155.089 266.473 153.526 265.385 151.867C265.007 151.299 262.407 146.94 264.44 147.224C265.338 147.342 266.142 148.124 266.756 148.716C267.535 149.451 268.221 150.256 268.74 151.18C269.307 152.175 270.844 151.275 270.276 150.28L270.324 150.256Z" fill="#231F20"/>
<path d="M269.757 136.752V158.406C269.709 169.446 280.839 181.552 290.456 181.552C300.097 181.552 304.611 169.493 304.611 158.453V135.212" stroke="#231F20" stroke-width="0.747617" stroke-linecap="round" stroke-linejoin="round"/>
<path d="M269.142 147.887C259.123 104.96 288.731 126.542 309.336 115.928C310.305 128.508 306.808 133.863 304.28 136.089C302.176 137.984 300.121 138.269 294.402 137.558C291.071 137.155 273.041 134.455 273.017 143.813C273.017 149.522 269.119 147.887 269.119 147.887H269.142Z" fill="#231F20"/>
<path d="M301.539 128.318V143.86C301.515 149.57 305.414 147.935 305.414 147.935L306.454 138.245L301.539 128.318Z" fill="#231F20"/>
<path d="M299.341 148.148C297.025 147.556 294.592 147.366 292.205 147.651C291.732 147.698 291.307 148.03 291.307 148.551C291.307 149 291.709 149.498 292.205 149.451C294.45 149.191 296.694 149.332 298.868 149.902C299.979 150.186 300.452 148.48 299.341 148.195V148.148Z" fill="#231F20"/>
<path d="M298.137 151.227C296.364 150.707 294.497 150.517 292.654 150.659C292.182 150.683 291.756 151.037 291.756 151.559C291.756 152.009 292.158 152.483 292.654 152.459C294.426 152.317 295.985 152.483 297.663 152.98C298.113 153.099 298.656 152.815 298.751 152.364C298.845 151.915 298.609 151.417 298.137 151.275V151.227Z" fill="#231F20"/>
<path d="M294.166 152.767C294.307 152.91 294.449 153.051 294.567 153.218L294.426 153.028C294.426 153.028 294.59 153.265 294.638 153.383L294.544 153.17C294.544 153.17 294.614 153.359 294.614 153.455V153.218C294.614 153.218 294.614 153.407 294.59 153.502V153.265C294.59 153.265 294.59 153.407 294.59 153.455L294.685 153.242C294.685 153.242 294.638 153.336 294.59 153.383L294.733 153.194C294.733 153.194 294.662 153.288 294.614 153.312L294.804 153.17C294.804 153.17 294.733 153.218 294.709 153.242L294.921 153.147C294.921 153.147 294.827 153.17 294.756 153.194H294.992C294.992 153.194 294.875 153.17 294.827 153.17H295.063C295.063 153.17 294.969 153.17 294.921 153.17L295.135 153.265C295.135 153.265 295.063 153.218 295.016 153.194L295.205 153.336C295.205 153.336 295.158 153.288 295.135 153.265L295.276 153.455C295.276 153.455 295.228 153.407 295.228 153.359L295.323 153.573V153.526C295.252 153.312 295.111 153.099 294.921 153.004C294.733 152.91 294.449 152.839 294.237 152.91C294.024 152.98 293.811 153.123 293.717 153.312C293.622 153.502 293.552 153.762 293.622 153.999C293.764 154.45 294.119 154.805 294.567 154.923C294.827 154.994 295.016 154.971 295.276 154.923C295.323 154.923 295.371 154.923 295.418 154.899C295.535 154.852 295.63 154.829 295.749 154.758C295.961 154.615 296.127 154.45 296.244 154.236C296.387 153.999 296.434 153.763 296.457 153.502C296.457 153.312 296.457 153.123 296.41 152.934C296.363 152.744 296.292 152.554 296.197 152.388C296.008 152.056 295.749 151.772 295.489 151.512C295.323 151.346 295.087 151.251 294.851 151.251C294.638 151.251 294.378 151.346 294.213 151.512C294.047 151.678 293.953 151.915 293.953 152.151C293.953 152.388 294.047 152.602 294.213 152.791L294.166 152.767Z" fill="#231F20"/>
<path d="M275.522 149.829C277.696 149.285 279.964 149.143 282.186 149.403C282.658 149.451 283.083 148.953 283.083 148.503C283.083 147.981 282.681 147.673 282.186 147.602C279.799 147.318 277.365 147.508 275.05 148.1C273.939 148.385 274.412 150.091 275.522 149.806V149.829Z" fill="#231F20"/>
<path d="M276.728 152.91C278.405 152.437 279.964 152.27 281.737 152.413C282.209 152.437 282.635 151.986 282.635 151.512C282.635 150.991 282.257 150.659 281.737 150.612C279.894 150.47 278.028 150.659 276.255 151.181C275.806 151.299 275.499 151.82 275.64 152.27C275.783 152.721 276.255 153.029 276.728 152.886V152.91Z" fill="#231F20"/>
<path d="M278.948 151.488C278.712 151.725 278.476 151.986 278.287 152.27C278.192 152.436 278.098 152.626 278.05 152.815C278.05 152.862 278.026 152.934 278.003 153.004C278.003 153.123 277.956 153.265 277.956 153.407C277.956 153.644 278.003 153.834 278.098 154.047C278.192 154.26 278.286 154.426 278.452 154.591C278.617 154.758 278.83 154.876 279.043 154.923C279.279 154.994 279.515 154.971 279.751 154.923C279.846 154.923 279.916 154.876 279.987 154.852C280.059 154.829 280.153 154.781 280.223 154.734C280.389 154.615 280.507 154.521 280.625 154.331C280.696 154.236 280.744 154.118 280.767 153.999C280.838 153.786 280.791 153.502 280.673 153.312C280.554 153.123 280.366 152.957 280.153 152.91C279.916 152.862 279.68 152.862 279.468 153.004C279.255 153.147 279.137 153.312 279.066 153.526V153.573L279.161 153.359C279.161 153.359 279.137 153.407 279.114 153.431L279.255 153.242C279.255 153.242 279.208 153.288 279.185 153.312L279.373 153.17C279.373 153.17 279.302 153.218 279.255 153.242L279.468 153.147C279.468 153.147 279.373 153.17 279.326 153.194H279.562C279.562 153.194 279.444 153.17 279.397 153.17H279.633C279.633 153.17 279.516 153.17 279.468 153.17L279.68 153.265C279.68 153.265 279.609 153.218 279.586 153.194L279.775 153.336C279.775 153.336 279.704 153.265 279.68 153.242L279.823 153.431C279.823 153.431 279.751 153.312 279.728 153.265L279.823 153.478C279.823 153.478 279.775 153.359 279.775 153.288V153.526C279.775 153.526 279.775 153.359 279.799 153.265V153.502C279.799 153.502 279.799 153.312 279.846 153.218L279.751 153.431C279.799 153.288 279.893 153.17 279.987 153.052L279.846 153.242C279.964 153.075 280.106 152.934 280.247 152.791C280.413 152.626 280.507 152.388 280.507 152.151C280.507 151.915 280.413 151.678 280.247 151.512C280.082 151.346 279.846 151.251 279.609 151.251C279.373 151.251 279.161 151.346 278.971 151.512L278.948 151.488Z" fill="#231F20"/>
<path d="M285.399 150.54C285.21 152.696 285.683 154.852 286.628 156.795C287.124 157.79 287.786 158.619 288.4 159.543C288.683 159.969 288.731 160.254 288.4 160.68C288.045 161.154 287.526 161.509 287.053 161.865C286.131 162.528 287.03 164.068 287.952 163.404C288.943 162.693 290.102 161.888 290.385 160.609C290.669 159.33 289.652 158.358 288.991 157.339C287.644 155.326 286.983 152.98 287.171 150.564C287.266 149.427 285.493 149.427 285.399 150.564V150.54Z" fill="#231F20"/>
<path d="M283.202 168.096C284.265 169.778 286.297 170.844 288.306 170.63C288.755 170.584 289.204 170.252 289.204 169.73C289.204 169.304 288.802 168.782 288.306 168.83C288.093 168.83 287.904 168.854 287.692 168.854C287.597 168.854 287.502 168.854 287.407 168.854C287.385 168.854 287.195 168.854 287.337 168.854C287.478 168.854 287.337 168.854 287.29 168.854C287.1 168.83 286.888 168.782 286.699 168.712C286.604 168.688 286.51 168.641 286.416 168.617C286.297 168.569 286.321 168.617 286.416 168.617C286.368 168.617 286.321 168.569 286.274 168.546C286.109 168.451 285.943 168.357 285.778 168.262C285.707 168.214 285.612 168.143 285.541 168.096C285.376 167.977 285.636 168.166 285.541 168.096C285.494 168.072 285.471 168.025 285.423 168.001C285.281 167.882 285.14 167.741 285.021 167.598C284.997 167.551 284.95 167.527 284.926 167.479C284.856 167.385 285.045 167.646 284.926 167.479C284.856 167.385 284.809 167.314 284.738 167.219C284.502 166.817 283.935 166.627 283.533 166.911C283.131 167.195 282.942 167.717 283.226 168.119L283.202 168.096Z" fill="#231F20"/>
<path d="M241.188 248.597C241.165 254.591 241.708 260.585 242.393 266.507C242.534 267.621 244.306 267.644 244.164 266.507C243.479 260.561 242.912 254.567 242.96 248.597C242.96 247.46 241.188 247.46 241.188 248.597Z" fill="#231F20"/>
<path d="M460.567 142.011C462.858 140.756 465.198 139.524 467.632 138.529C468.506 138.174 469.404 137.842 470.325 137.629C470.632 137.557 470.963 137.487 471.294 137.487C471.436 137.487 471.578 137.487 471.696 137.487C471.507 137.463 471.98 137.558 471.862 137.534C471.862 137.605 471.932 137.534 471.862 137.534C471.862 137.558 471.791 137.392 471.791 137.416C471.791 137.416 471.791 137.226 471.791 137.249C471.791 137.297 471.696 137.368 471.791 137.297C471.885 137.203 471.767 137.344 471.744 137.368C471.625 137.581 471.601 137.581 471.365 137.819C471.129 138.055 470.893 138.244 470.656 138.458C469.239 139.595 467.608 140.543 466.025 141.443C463.827 142.722 461.606 143.954 459.385 145.21C458.392 145.778 459.291 147.318 460.283 146.75C462.528 145.47 464.773 144.238 467.018 142.935C468.789 141.893 470.632 140.827 472.192 139.476C473.043 138.743 474.201 137.392 473.161 136.303C472.003 135.093 469.782 135.852 468.482 136.303C465.434 137.368 462.528 138.908 459.692 140.448C458.677 140.993 459.574 142.533 460.59 141.988L460.567 142.011Z" fill="#231F20"/>
<path d="M459.929 149.451C461.89 148.692 463.827 147.84 465.741 146.987C466.498 146.655 467.254 146.3 468.034 145.992C468.932 145.613 469.924 145.116 470.917 145.139C471.672 145.139 472.618 145.779 471.932 146.537C471.484 147.058 470.798 147.437 470.208 147.792C468.696 148.716 467.065 149.498 465.458 150.208C463.379 151.156 461.251 152.01 459.101 152.815C458.039 153.218 458.487 154.923 459.574 154.521C461.796 153.691 463.993 152.815 466.167 151.843C468.058 150.991 469.948 150.114 471.672 148.977C472.405 148.503 473.256 147.935 473.681 147.153C474.177 146.205 473.965 145.021 473.208 144.286C471.413 142.462 468.719 143.813 466.781 144.641C464.348 145.684 461.913 146.797 459.432 147.769C458.369 148.172 458.842 149.901 459.905 149.475L459.929 149.451Z" fill="#231F20"/>
<path d="M459.598 154.52C462.363 153.762 464.986 152.601 467.679 151.677C468.436 151.417 469.475 151.109 470.255 151.512C470.657 151.725 470.35 152.009 470.137 152.293C469.877 152.625 469.593 152.933 469.286 153.241C467.963 154.52 466.286 155.42 464.584 156.084C462.717 156.842 460.756 157.458 458.842 158.05C457.755 158.382 458.227 160.088 459.315 159.756C463.284 158.571 467.798 157.339 470.775 154.283C471.484 153.572 472.358 152.601 472.287 151.512C472.217 150.421 471.129 149.782 470.137 149.616C469.003 149.427 467.892 149.711 466.829 150.09C465.836 150.445 464.844 150.824 463.851 151.18C462.315 151.748 460.756 152.341 459.172 152.767C458.086 153.075 458.534 154.78 459.646 154.472L459.598 154.52Z" fill="#231F20"/>
<path d="M478.738 60.7282L491.403 99.7713C491.853 101.193 493.176 102.14 494.664 102.14H535.615C537.765 102.14 538.64 104.888 536.914 106.144L503.786 130.285C502.581 131.161 502.084 132.725 502.533 134.123L515.199 173.165C515.86 175.203 513.521 176.908 511.796 175.653L478.667 151.512C477.462 150.635 475.832 150.635 474.627 151.512L441.498 175.653C439.773 176.908 437.433 175.227 438.095 173.165L450.76 134.123C451.21 132.701 450.713 131.161 449.508 130.285L416.38 106.144C414.654 104.888 415.528 102.14 417.678 102.14H458.629C460.118 102.14 461.441 101.169 461.891 99.7713L474.555 60.7282C475.217 58.6908 478.1 58.6908 478.762 60.7282H478.738Z" fill="white" stroke="#231F20" stroke-width="0.747617" stroke-linecap="round" stroke-linejoin="round"/>
<path d="M216.282 253.691C214.675 254.686 217.913 252.719 216.282 253.691C212.501 255.941 177.482 276.552 170.039 271.766C161.65 264.777 155.035 251.559 150.002 237.296L140.974 204.508L131.097 168.64L136.555 147.199C127.057 137.084 132.374 131.042 133.507 132.132C142.487 140.851 143.526 141.916 144.212 148.834C144.59 152.696 147.024 161.746 152.506 174.089L181.334 233.932C186.675 230.545 196.504 225.167 202.435 221.968L216.282 253.691Z" fill="white"/>
<path d="M215.834 252.909C215.668 253.003 215.527 253.098 215.384 253.193C214.415 253.833 215.243 255.207 216.283 254.733C216.59 254.591 216.944 254.378 217.205 254.165C218.079 253.501 217.346 252.056 216.306 252.625C207.138 257.694 198.135 262.978 188.494 267.123C185.635 268.355 182.705 269.493 179.704 270.393C177.482 271.056 175.144 271.672 172.828 271.577C169.945 271.482 168.078 268.853 166.33 266.815C163.045 263.001 160.422 258.642 158.106 254.189C154.916 248.005 152.057 241.466 150.214 234.738L145.985 219.363C144.141 212.658 142.298 205.929 140.431 199.225L132.209 169.351C132.137 169.067 132.09 168.664 131.948 168.403C132.066 168.616 131.807 168.995 131.995 168.687C132.114 168.498 132.137 168.166 132.185 167.953L133.933 161.082L136.131 152.412C136.533 150.824 137.218 149.095 137.383 147.461C137.43 147.105 137.43 146.939 137.241 146.608C136.957 146.062 136.273 145.518 135.871 145.043C135.328 144.405 134.831 143.741 134.359 143.054C133.271 141.443 132.374 139.666 131.995 137.724C131.617 135.781 131.995 133.957 133.2 132.819C133.2 132.819 132.988 132.89 132.846 132.701C133.2 133.269 133.957 133.767 134.429 134.241C135.328 135.117 136.225 135.994 137.1 136.871C138.376 138.149 139.652 139.453 140.714 140.898C142.321 143.078 142.912 145.47 143.219 148.124C144.047 155.61 146.859 162.93 149.718 169.848C150.923 172.786 152.27 175.653 153.64 178.519L167.582 207.446L179.846 232.89L180.53 234.312C180.744 234.738 181.358 234.88 181.736 234.619C188.991 230.048 196.599 225.973 204.16 221.944C205.177 221.4 204.279 219.884 203.263 220.405L201.939 221.116C201.491 221.352 201.443 221.898 201.632 222.324C205.673 231.564 209.713 240.826 213.731 250.066C214.322 251.392 214.889 252.719 215.479 254.046C215.929 255.089 217.464 254.189 217.015 253.146C212.974 243.906 208.934 234.643 204.917 225.403C204.326 224.077 203.759 222.75 203.168 221.424L202.861 222.632L204.184 221.921L203.286 220.381C195.725 224.408 188.116 228.46 180.861 233.056L182.067 233.364C179.727 228.531 177.411 223.698 175.073 218.865L161.699 191.123C158.909 185.342 156.074 179.561 153.333 173.757C150.592 167.953 148.182 161.462 146.409 155.112C145.771 152.862 145.252 150.564 144.992 148.242C144.732 145.921 144.401 143.765 143.338 141.727C142.085 139.311 140.076 137.321 138.186 135.425C137.478 134.714 136.745 134.004 136.036 133.293C135.374 132.654 134.642 131.635 133.838 131.209C133.319 130.924 132.799 130.971 132.279 131.209C130.979 131.848 130.365 133.53 130.152 134.881C129.75 137.557 130.672 140.282 131.995 142.58C133.059 144.451 134.429 146.134 135.871 147.697L135.635 146.845C134.264 152.199 132.917 157.553 131.547 162.907L130.554 166.84C130.412 167.36 130.152 167.976 130.152 168.546C130.152 169.754 130.861 171.222 131.169 172.359C134.122 183.115 137.1 193.871 140.054 204.627C143.007 215.382 145.819 225.593 148.725 236.088C149.647 239.453 150.994 242.698 152.34 245.92C154.728 251.654 157.468 257.292 160.895 262.48C162.407 264.754 164.037 266.934 165.857 268.924C167.109 270.298 168.551 272.122 170.323 272.809C172.544 273.662 175.191 273.188 177.411 272.691C184.784 271.056 191.849 267.574 198.56 264.234C204.255 261.391 209.855 258.31 215.361 255.089C215.952 254.733 216.519 254.378 217.134 254.046L216.236 252.506C215.952 252.719 215.621 252.933 215.314 253.075L216.212 254.614C216.353 254.52 216.519 254.425 216.66 254.33C217.629 253.738 216.732 252.198 215.763 252.79L215.834 252.909Z" fill="#231F20"/>
<path d="M103.498 60.7282L90.8325 99.7713C90.3835 101.193 89.0602 102.14 87.5715 102.14H46.6212C44.4708 102.14 43.5966 104.888 45.3215 106.144L78.4504 130.285C79.6556 131.161 80.1518 132.725 79.7028 134.123L67.0373 173.165C66.3756 175.203 68.715 176.908 70.44 175.653L103.569 151.512C104.774 150.635 106.405 150.635 107.61 151.512L140.738 175.653C142.464 176.908 144.802 175.227 144.141 173.165L131.476 134.123C131.026 132.701 131.523 131.161 132.728 130.285L165.857 106.144C167.582 104.888 166.707 102.14 164.557 102.14H123.607C122.119 102.14 120.795 101.169 120.346 99.7713L107.681 60.7282C107.019 58.6908 104.136 58.6908 103.474 60.7282H103.498Z" fill="white" stroke="#231F20" stroke-width="0.747617" stroke-linecap="round" stroke-linejoin="round"/>
<path d="M144.212 148.835C143.526 141.917 142.487 140.851 133.507 132.133C132.35 131.02 126.82 137.345 137.193 147.864" fill="white"/>
<path d="M145.086 148.834C144.826 146.323 144.495 143.812 143.267 141.586C141.754 138.837 139.321 136.586 137.123 134.406C136.248 133.554 135.374 132.701 134.5 131.825C134.122 131.469 133.815 131.137 133.271 131.09C132.657 131.066 132.09 131.422 131.664 131.849C130.317 133.222 129.986 135.425 130.2 137.249C130.695 141.656 133.602 145.423 136.603 148.48C137.407 149.308 138.659 148.029 137.855 147.224C135.374 144.689 132.964 141.703 132.138 138.173C131.759 136.563 131.783 134.668 132.704 133.365C132.704 133.365 132.94 133.08 133.129 132.938C132.917 133.104 133.2 132.89 133.248 132.89C133.366 132.843 133.035 132.985 133.2 132.914C133.39 132.819 133.271 132.985 133.177 132.914C133.271 132.985 133.059 132.843 132.988 132.843C133.129 132.843 132.917 133.033 132.917 132.796C132.917 132.89 133.413 133.269 133.507 133.365C134.311 134.146 135.114 134.928 135.917 135.709C137.903 137.676 140.053 139.643 141.518 142.059C142.794 144.12 143.148 146.489 143.385 148.882C143.503 150.019 145.276 150.019 145.157 148.882L145.086 148.834Z" fill="#231F20"/>
<path d="M399.98 233.673C400.075 235.426 399.956 237.06 399.578 238.719C399.484 239.169 399.72 239.69 400.192 239.808C400.642 239.903 401.185 239.666 401.28 239.192C401.681 237.392 401.846 235.521 401.752 233.673C401.728 233.199 401.374 232.772 400.854 232.772C400.406 232.772 399.933 233.175 399.956 233.673H399.98Z" fill="#231F20"/>
<path d="M400.476 233.743C401.445 235.164 402.555 236.491 403.785 237.699C404.115 238.031 404.706 238.055 405.037 237.699C405.368 237.344 405.391 236.799 405.037 236.444C404.446 235.875 403.902 235.283 403.383 234.667C403.264 234.524 403.123 234.359 403.005 234.216C402.933 234.145 402.886 234.051 402.816 233.98C402.792 233.932 402.768 233.909 402.721 233.861C402.65 233.767 402.816 233.98 402.721 233.861C402.461 233.529 402.225 233.198 401.988 232.867C401.728 232.488 401.209 232.274 400.783 232.559C400.405 232.795 400.193 233.364 400.476 233.767V233.743Z" fill="#231F20"/>
<path d="M180.459 233.08C180.011 234.004 179.467 234.881 178.852 235.71C178.782 235.805 178.806 235.757 178.852 235.71C178.806 235.757 178.759 235.829 178.735 235.876C178.664 235.97 178.569 236.065 178.499 236.16C178.333 236.349 178.168 236.539 178.002 236.729C177.647 237.108 177.269 237.486 176.868 237.842C176.514 238.15 176.537 238.789 176.868 239.097C177.246 239.429 177.742 239.429 178.121 239.097C179.751 237.676 181.074 235.899 182.019 233.957C182.232 233.53 182.137 232.986 181.712 232.749C181.311 232.535 180.719 232.63 180.507 233.057L180.459 233.08Z" fill="#231F20"/>
<path d="M180.412 233.861C180.554 235.709 180.837 237.557 181.216 239.381C181.31 239.831 181.877 240.139 182.302 239.998C182.775 239.831 183.034 239.381 182.916 238.907C182.539 237.178 182.302 235.591 182.161 233.861C182.113 233.388 181.782 232.961 181.263 232.961C180.814 232.961 180.342 233.364 180.366 233.861H180.412Z" fill="#231F20"/>
<path d="M216.282 253.691C214.675 254.686 217.913 252.719 216.282 253.691C212.501 255.941 177.482 276.552 170.039 271.766C161.65 264.777 155.034 251.559 150 237.296L140.974 204.508L131.097 168.64L136.555 147.199C127.057 137.084 132.373 131.042 133.507 132.132C142.486 140.851 143.526 141.916 144.212 148.834C144.59 152.696 147.024 161.746 152.506 174.089L181.334 233.932C186.675 230.545 196.504 225.167 202.435 221.968L216.282 253.691Z" fill="white"/>
<path d="M215.834 252.909C215.668 253.003 215.527 253.098 215.384 253.193C214.415 253.833 215.243 255.207 216.283 254.733C216.59 254.591 216.944 254.378 217.205 254.165C218.079 253.501 217.346 252.056 216.306 252.625C207.138 257.694 198.135 262.978 188.494 267.123C185.635 268.355 182.705 269.493 179.704 270.393C177.482 271.056 175.144 271.672 172.827 271.577C169.944 271.482 168.078 268.853 166.33 266.815C163.045 263.001 160.422 258.642 158.106 254.189C154.916 248.005 152.057 241.466 150.214 234.738L145.985 219.363C144.141 212.658 142.298 205.929 140.431 199.225L132.208 169.351C132.137 169.067 132.09 168.664 131.948 168.403C132.066 168.616 131.807 168.995 131.995 168.687C132.114 168.498 132.137 168.166 132.185 167.953L133.933 161.082L136.131 152.412C136.533 150.824 137.218 149.095 137.383 147.461C137.43 147.105 137.43 146.939 137.241 146.608C136.957 146.062 136.273 145.518 135.871 145.043C135.328 144.405 134.831 143.741 134.359 143.054C133.271 141.443 132.373 139.666 131.995 137.724C131.617 135.781 131.995 133.957 133.2 132.819C133.2 132.819 132.988 132.89 132.846 132.701C133.2 133.269 133.957 133.767 134.429 134.241C135.328 135.117 136.225 135.994 137.099 136.871C138.376 138.149 139.652 139.453 140.714 140.898C142.321 143.078 142.912 145.47 143.219 148.124C144.047 155.61 146.859 162.93 149.718 169.848C150.923 172.786 152.27 175.653 153.64 178.519L167.582 207.446L179.846 232.89L180.53 234.312C180.744 234.738 181.358 234.88 181.736 234.619C188.991 230.048 196.599 225.973 204.16 221.944C205.177 221.4 204.279 219.884 203.263 220.405L201.939 221.116C201.491 221.352 201.443 221.898 201.632 222.324C205.672 231.564 209.713 240.826 213.731 250.066C214.322 251.392 214.888 252.719 215.479 254.046C215.929 255.089 217.464 254.189 217.015 253.146C212.974 243.906 208.934 234.643 204.917 225.403C204.326 224.077 203.758 222.75 203.168 221.424L202.861 222.632L204.184 221.921L203.286 220.381C195.725 224.408 188.116 228.46 180.861 233.056L182.067 233.364C179.727 228.531 177.411 223.698 175.072 218.865L161.698 191.123C158.909 185.342 156.074 179.561 153.333 173.757C150.592 167.953 148.182 161.462 146.409 155.112C145.771 152.862 145.252 150.564 144.992 148.242C144.732 145.921 144.401 143.765 143.338 141.727C142.085 139.311 140.076 137.321 138.186 135.425C137.478 134.714 136.745 134.004 136.036 133.293C135.374 132.654 134.642 131.635 133.838 131.209C133.319 130.924 132.799 130.971 132.279 131.209C130.979 131.848 130.364 133.53 130.152 134.881C129.75 137.557 130.672 140.282 131.995 142.58C133.059 144.451 134.429 146.134 135.871 147.697L135.635 146.845C134.264 152.199 132.917 157.553 131.547 162.907L130.554 166.84C130.412 167.36 130.152 167.976 130.152 168.546C130.152 169.754 130.861 171.222 131.168 172.359C134.122 183.115 137.099 193.871 140.054 204.627C143.007 215.382 145.819 225.593 148.725 236.088C149.647 239.453 150.994 242.698 152.34 245.92C154.727 251.654 157.468 257.292 160.894 262.48C162.407 264.754 164.037 266.934 165.856 268.924C167.109 270.298 168.551 272.122 170.323 272.809C172.544 273.662 175.191 273.188 177.411 272.691C184.784 271.056 191.849 267.574 198.56 264.234C204.255 261.391 209.855 258.31 215.361 255.089C215.952 254.733 216.519 254.378 217.133 254.046L216.236 252.506C215.952 252.719 215.621 252.933 215.314 253.075L216.212 254.614C216.353 254.52 216.519 254.425 216.66 254.33C217.629 253.738 216.731 252.198 215.763 252.79L215.834 252.909Z" fill="#231F20"/>
<path d="M401.233 233.483L429.754 174.089C435.212 161.747 437.67 152.697 438.048 148.835" fill="white"/>
<path d="M401.988 233.932C406.36 224.835 410.731 215.738 415.102 206.64C420.159 196.098 425.264 185.603 430.273 175.037C432.235 170.914 433.888 166.603 435.401 162.291C436.913 157.979 438.449 153.431 438.921 148.834C439.04 147.697 437.268 147.697 437.149 148.834C436.747 152.696 435.471 156.534 434.242 160.182C432.683 164.803 430.935 169.422 428.878 173.852C427.249 177.335 425.547 180.794 423.893 184.253L405.367 222.846C403.737 226.233 402.107 229.645 400.476 233.032C399.979 234.051 401.516 234.951 402.012 233.932H401.988Z" fill="#231F20"/>
<path d="M445.065 147.863L445.49 170.346C445.49 170.346 446.885 176.174 445.656 179.42C445.609 179.609 445.538 179.798 445.467 179.988C445.42 180.153 445.349 180.32 445.301 180.461C445.301 180.461 430.155 265.133 416.899 270.606C416.899 270.606 413.331 272.928 404.422 271.103" fill="white"/>
<path d="M444.168 147.863L444.404 160.277L444.546 168.048C444.546 169.184 444.57 170.251 444.782 171.364C445.113 173.046 445.301 174.799 445.255 176.529C445.208 177.88 444.758 178.969 444.427 180.248C444.286 180.769 444.239 181.315 444.144 181.86C443.577 184.868 443.01 187.877 442.396 190.886C440.222 201.759 437.858 212.61 435.165 223.39C432.329 234.714 429.304 246.157 424.885 256.983C423.421 260.585 421.766 264.399 419.309 267.455C417.325 269.895 414.843 270.748 411.724 270.89C409.337 271.009 406.975 270.701 404.659 270.227C403.548 270.014 403.076 271.719 404.186 271.933C408.652 272.809 414.513 273.568 418.482 270.701C421.199 268.734 422.901 265.418 424.342 262.504C429.328 252.387 432.353 241.206 435.212 230.331C438.26 218.793 440.883 207.161 443.27 195.481C444.049 191.714 444.782 187.948 445.491 184.158C445.68 183.21 445.846 182.263 446.011 181.315C446.247 180.083 446.767 178.945 446.908 177.666C447.122 175.794 446.956 173.923 446.672 172.075C446.578 171.507 446.484 170.938 446.365 170.37C446.27 169.848 446.365 170.511 446.341 170.203C446.247 168.451 446.27 166.649 446.247 164.897L445.939 148.977V147.839C445.892 146.702 444.12 146.702 444.144 147.839L444.168 147.863Z" fill="#231F20"/>
<path d="M438.047 148.835C438.732 141.917 439.772 140.851 448.751 132.133C449.91 131.02 455.439 137.345 445.065 147.864" fill="white"/>
<path d="M438.922 148.835C439.134 146.75 439.394 144.594 440.387 142.722C441.592 140.425 443.506 138.553 445.301 136.752C445.987 136.066 446.672 135.379 447.358 134.715C447.759 134.336 448.137 133.933 448.539 133.555C448.728 133.365 448.941 133.199 449.106 132.985C449.389 132.725 449.437 132.677 449.224 132.844C449.224 132.844 449.272 132.82 449.295 132.82C449.201 132.82 449.011 132.985 449.106 132.891C448.846 133.128 448.941 132.749 449.035 132.891C449.035 132.891 449.224 133.009 449.059 132.891C448.941 132.796 449.177 132.961 449.224 133.009C449.011 132.844 449.318 133.104 449.366 133.152C449.697 133.483 449.98 134.099 450.146 134.668C450.382 135.52 450.406 136.444 450.287 137.344C449.768 141.206 447.051 144.546 444.427 147.248C443.624 148.053 444.877 149.332 445.68 148.503C448.421 145.708 451.115 142.297 451.918 138.363C452.32 136.374 452.249 134.076 451.02 132.369C450.642 131.848 450.122 131.351 449.484 131.185C449.13 131.09 448.751 131.137 448.421 131.304C447.665 131.706 447.051 132.559 446.436 133.152C443.978 135.544 441.308 137.937 439.442 140.827C437.882 143.244 437.433 146.016 437.149 148.835C437.032 149.972 438.804 149.972 438.922 148.835Z" fill="#231F20"/>
</g>
</g>
</g>
<defs>
<clipPath id="clip0_325_9766">
<rect width="551.27" height="319.98" fill="white" transform="translate(0.359863)"/>
</clipPath>
<clipPath id="clip1_325_9766">
<rect width="551.27" height="319.98" fill="white" transform="translate(0.359863)"/>
</clipPath>
<clipPath id="clip2_325_9766">
<rect width="551.243" height="319.98" fill="white" transform="translate(0.373535)"/>
</clipPath>
</defs>
</svg>
