<svg width="576" height="312" viewBox="0 0 576 312" fill="none" xmlns="http://www.w3.org/2000/svg">
<g clip-path="url(#clip0_325_9561)">
<g clip-path="url(#clip1_325_9561)">
<g clip-path="url(#clip2_325_9561)">
<path d="M444.885 311.974C517.022 311.974 575.5 253.619 575.5 181.633C575.5 109.648 517.022 51.2925 444.885 51.2925C372.748 51.2925 314.27 109.648 314.27 181.633C314.27 253.619 372.748 311.974 444.885 311.974Z" fill="#F5F5F5"/>
<path d="M89 238C128.488 238 160.5 205.988 160.5 166.5C160.5 127.012 128.488 95 89 95C49.5116 95 17.5 127.012 17.5 166.5C17.5 205.988 49.5116 238 89 238Z" fill="#231F20"/>
<path d="M42.5 95C56.3071 95 67.5 83.8071 67.5 70C67.5 56.1929 56.3071 45 42.5 45C28.6929 45 17.5 56.1929 17.5 70C17.5 83.8071 28.6929 95 42.5 95Z" fill="#231F20"/>
<path d="M257.398 222.264C257.54 222.807 258.111 223.066 258.655 223.234C260.484 223.739 262.429 223.713 264.335 223.402C265.619 223.208 266.889 222.872 268.147 222.471C266.863 222.872 265.424 223.441 265.048 223.609C264.672 223.791 264.374 224.179 264.439 224.58C264.503 225.162 265.178 225.46 265.748 225.615C271.648 227.038 282.877 223.829 288.946 223.428C293.445 223.131 299.28 226.482 301.978 228.242C301.978 228.242 365.839 285.642 379.701 281.812C392.823 278.215 402.587 253.953 411.145 231.826L381.01 215.483C381.01 215.483 372.543 234.091 369.34 242.98L310.367 213.685C302.341 208.638 290.515 200.461 287.883 196.928C286.482 195.065 285.237 193.072 283.513 191.519C281.801 189.966 279.454 188.867 277.172 189.294C277.172 189.294 272.322 189.811 283.202 201.082C283.202 201.082 283.85 203.048 278.572 202.751C273.295 202.453 247.828 205.895 246.337 209.971C244.846 214.047 268.484 207.357 273.58 209.065C264.62 212.507 259.42 213.348 255.504 214.487C254.778 214.694 254.013 214.914 253.339 215.289C252.665 215.665 252.068 216.234 251.835 216.984C251.601 217.722 251.783 218.615 252.418 219.068C252.898 219.443 253.546 219.469 254.156 219.482C257.903 219.456 265.424 217.386 270.974 215.535L270.883 215.755C266.254 217.515 264.244 217.929 260.782 219.042C259.641 219.417 258.461 219.961 257.748 220.983C257.475 221.371 257.294 221.837 257.424 222.277L257.398 222.264Z" fill="white"/>
<path d="M256.931 222.393C257.566 224.049 260.134 224.101 261.625 224.114C263.894 224.14 266.124 223.622 268.29 222.95L268.03 222.018C266.941 222.367 262.61 223.39 264.283 225.356C264.879 226.068 265.982 226.197 266.85 226.314C267.823 226.443 268.795 226.482 269.768 226.469C274.514 226.404 279.221 225.369 283.902 224.593C285.951 224.256 288.103 223.791 290.191 223.933C292.732 224.101 295.209 225.098 297.465 226.223C299.047 227 300.759 227.802 302.081 228.992C304.26 230.933 306.464 232.861 308.668 234.776C312.805 238.361 316.967 241.893 321.169 245.387C326.355 249.696 331.607 253.953 336.936 258.094C342.266 262.234 347.828 266.401 353.482 270.283C358.228 273.543 363.103 276.714 368.251 279.289C370.17 280.246 372.141 281.139 374.19 281.773C375.642 282.226 377.224 282.601 378.767 282.472C381.516 282.239 384.187 280.505 386.275 278.81C389.569 276.144 392.201 272.689 394.496 269.157C400.396 260.099 404.532 249.929 408.513 239.926C409.563 237.287 410.601 234.621 411.625 231.968C411.703 231.774 411.573 231.516 411.405 231.425C408.02 229.588 404.623 227.75 401.239 225.913C395.832 222.975 390.424 220.051 385.017 217.114C383.772 216.441 382.515 215.755 381.27 215.082C381.062 214.966 380.712 215.018 380.608 215.251C377.509 222.057 374.501 228.902 371.648 235.812C370.689 238.141 369.742 240.483 368.886 242.864L369.6 242.579C366.812 241.194 364.037 239.81 361.249 238.438L342.616 229.174C335.99 225.887 329.377 222.587 322.75 219.301L311.171 213.542C310.847 213.387 310.562 213.232 310.25 213.038C307.877 211.537 305.531 209.997 303.209 208.418C298.775 205.403 294.262 202.337 290.282 198.727C286.534 195.311 284.395 189.164 278.624 188.737C277.405 188.647 275.953 188.815 275.655 190.225C275.447 191.17 275.862 192.179 276.251 193.02C277.133 194.858 278.456 196.501 279.752 198.041C280.271 198.662 280.816 199.257 281.36 199.852C281.775 200.305 282.385 200.771 282.722 201.237C282.748 201.276 282.722 201.185 282.722 201.353C282.722 201.34 282.683 201.509 282.579 201.612C282.099 202.181 281.036 202.233 280.375 202.272C279.48 202.324 278.585 202.246 277.678 202.246C274.306 202.259 270.909 202.725 267.577 203.178C263.311 203.76 259.057 204.498 254.882 205.533C253.145 205.973 251.407 206.452 249.734 207.111C248.619 207.538 247.439 208.03 246.544 208.858C246 209.363 245.494 210.191 245.935 210.916C246.376 211.64 247.517 211.731 248.295 211.783C251.653 211.977 255.141 211.252 258.448 210.748C262.247 210.178 266.059 209.479 269.911 209.298C271.065 209.247 272.309 209.182 273.425 209.531V208.6C270.105 209.868 266.734 211.006 263.298 211.951C261.002 212.585 258.681 213.115 256.373 213.724C255.025 214.086 253.534 214.396 252.431 215.289C251.329 216.182 250.798 217.644 251.576 218.887C252.354 220.129 253.987 220.012 255.245 219.896C256.71 219.766 258.163 219.508 259.602 219.197C263.479 218.369 267.304 217.243 271.065 215.988L270.468 215.393L270.377 215.613L270.715 215.276C268.082 216.273 265.398 217.114 262.701 217.916C260.665 218.524 256.451 219.482 256.905 222.393C256.996 223.014 257.942 222.743 257.838 222.134C257.696 221.203 258.824 220.426 259.511 220.064C260.121 219.741 260.769 219.534 261.417 219.326C262.545 218.977 263.674 218.641 264.802 218.304C265.93 217.968 267.136 217.593 268.29 217.191C268.99 216.946 269.69 216.7 270.39 216.428C270.935 216.221 271.194 216.169 271.402 215.652C271.544 215.315 271.129 214.94 270.805 215.056C267.81 216.053 264.789 216.959 261.729 217.722C259.226 218.343 256.464 219.107 253.858 218.99C252.833 218.938 251.952 218.369 252.237 217.217C252.47 216.286 253.391 215.716 254.234 215.38C255.232 214.979 256.321 214.733 257.359 214.461C259.42 213.931 261.508 213.439 263.557 212.87C266.98 211.925 270.364 210.786 273.684 209.518C274.125 209.35 274.164 208.742 273.684 208.587C272.556 208.224 271.285 208.263 270.105 208.302C268.368 208.367 266.643 208.587 264.931 208.807C261.028 209.324 257.151 210.023 253.248 210.489C251.744 210.67 250.214 210.838 248.697 210.812C248.23 210.812 247.75 210.786 247.283 210.657C247.115 210.605 247.011 210.566 246.869 210.489C246.791 210.45 246.752 210.385 246.739 210.372C246.7 210.269 246.778 210.023 246.972 209.79C247.245 209.441 247.66 209.182 248.036 208.962C249.293 208.211 250.707 207.746 252.094 207.306C255.997 206.089 260.056 205.326 264.089 204.666C267.862 204.058 271.674 203.54 275.499 203.294C276.848 203.204 278.17 203.255 279.532 203.255C280.777 203.255 282.942 203.217 283.552 201.845C283.668 201.586 283.733 201.25 283.642 200.965C283.526 200.603 283.098 200.305 282.852 200.034C282.255 199.399 281.672 198.765 281.101 198.106C279.649 196.449 278.183 194.702 277.185 192.723C276.835 192.024 276.407 191.028 276.614 190.329C276.666 190.135 276.692 190.07 276.861 189.928C276.861 189.928 277.107 189.785 277.081 189.798C277.159 189.772 277.405 189.708 277.159 189.759C278.741 189.423 280.401 189.966 281.749 190.782C284.433 192.425 285.847 195.246 287.805 197.588C288.998 199.011 290.476 200.215 291.915 201.379C293.938 203.023 296.039 204.562 298.152 206.076C300.538 207.784 302.963 209.428 305.401 211.045C306.97 212.08 308.526 213.219 310.173 214.112C313.142 215.729 316.254 217.127 319.275 218.641L337.909 227.893L357.203 237.481L368.536 243.11L369.081 243.381C369.379 243.524 369.69 243.394 369.794 243.097C372.854 234.595 376.641 226.34 380.336 218.097C380.699 217.308 381.049 216.506 381.412 215.716L380.751 215.885C384.135 217.722 387.533 219.559 390.917 221.397L407.139 230.196C408.383 230.869 409.641 231.554 410.886 232.227L410.666 231.684C406.672 241.997 402.678 252.4 397.439 262.17C395.248 266.258 392.823 270.283 389.828 273.841C387.468 276.662 384.654 279.327 381.205 280.764C379.597 281.437 378.21 281.644 376.511 281.333C374.709 281.01 372.971 280.363 371.311 279.638C366.526 277.555 362.027 274.773 357.67 271.913C352.198 268.329 346.895 264.473 341.695 260.513C336.495 256.554 331.023 252.206 325.798 247.923C321.324 244.261 316.889 240.535 312.507 236.769C309.667 234.336 306.853 231.891 304.052 229.419C303.508 228.941 302.976 228.436 302.418 227.97C301.822 227.478 301.109 227.103 300.435 226.702C298.451 225.537 296.363 224.515 294.185 223.778C292.006 223.04 289.944 222.807 287.701 223.04C285.613 223.273 283.539 223.635 281.464 223.998C276.978 224.774 272.309 225.77 267.732 225.408C267.123 225.356 265.385 225.33 265.022 224.709C264.542 223.894 267.901 223.04 268.277 222.911C268.873 222.717 268.614 221.785 268.017 221.979C266.332 222.51 264.594 222.95 262.831 223.066C262.027 223.131 261.223 223.118 260.419 223.04C259.758 222.975 258.163 222.885 257.864 222.096C257.644 221.513 256.697 221.772 256.931 222.354V222.393Z" fill="#231F20"/>
<path d="M259.887 219.43C265.956 218.058 271.83 215.936 277.38 213.128C277.937 212.844 277.444 212.003 276.887 212.287C271.415 215.056 265.619 217.127 259.628 218.485C259.018 218.628 259.278 219.559 259.887 219.417V219.43Z" fill="#231F20"/>
<path d="M268.951 222.781C272.828 221.254 276.705 219.728 280.582 218.201C281.153 217.968 280.907 217.036 280.323 217.269C276.446 218.796 272.569 220.323 268.692 221.85C268.121 222.083 268.368 223.014 268.951 222.781Z" fill="#231F20"/>
<path d="M368.99 243.679C370.378 244.934 371.765 246.189 373.14 247.431C373.334 247.612 373.632 247.625 373.827 247.431C374.008 247.25 374.021 246.927 373.827 246.746C372.439 245.49 371.052 244.235 369.677 242.993C369.483 242.812 369.185 242.799 368.99 242.993C368.809 243.174 368.796 243.498 368.99 243.679Z" fill="#231F20"/>
<path d="M369.522 244.196C369.522 245.516 369.159 246.797 368.446 247.91C368.303 248.13 368.407 248.441 368.614 248.57C368.848 248.712 369.133 248.622 369.275 248.402C370.079 247.16 370.507 245.684 370.494 244.209C370.494 243.588 369.522 243.588 369.522 244.209V244.196Z" fill="#231F20"/>
<path d="M404.26 305.543L401.705 225.33L408.928 228.112L405.57 241.13L372.05 224.968C372.05 224.968 392.629 176.276 435.316 163.854L453.262 162.949C498.762 173.74 502.134 190.536 502.017 206.037C501.978 210.722 499.385 223.842 494.094 240.625L458.941 231.645C462.118 219.689 464.582 208.6 466.319 201.664L492.616 235.579L478.897 262.053L482.995 306.837C482.995 306.837 443.329 319.22 404.26 305.517V305.543Z" fill="#231F20"/>
<path d="M437.909 0.646973H126.225C121.212 0.646973 117.148 4.70225 117.148 9.7047V206.788C117.148 211.79 121.212 215.846 126.225 215.846H437.909C442.922 215.846 446.986 211.79 446.986 206.788V9.7047C446.986 4.70225 442.922 0.646973 437.909 0.646973Z" fill="white" stroke="#231F20" stroke-width="0.75" stroke-linecap="round" stroke-linejoin="round"/>
<path d="M446.986 36.8132H117.148V14.4536C117.148 6.8321 123.346 0.646973 130.984 0.646973H433.98C441.164 0.646973 446.973 6.45686 446.973 13.6125V36.8132H446.986Z" fill="#231F20" stroke="white" stroke-miterlimit="10"/>
<path d="M144.962 19.1895C144.962 21.208 143.328 22.8384 141.306 22.8384C139.283 22.8384 137.649 21.208 137.649 19.1895C137.649 17.1709 139.283 15.5405 141.306 15.5405C143.328 15.5405 144.962 17.1709 144.962 19.1895Z" fill="#FFDE17"/>
<path d="M158.863 19.1895C158.863 21.208 157.229 22.8384 155.206 22.8384C153.183 22.8384 151.549 21.208 151.549 19.1895C151.549 17.1709 153.183 15.5405 155.206 15.5405C157.229 15.5405 158.863 17.1709 158.863 19.1895Z" fill="#FFDE17"/>
<path d="M172.763 19.1895C172.763 21.208 171.129 22.8384 169.106 22.8384C167.084 22.8384 165.45 21.208 165.45 19.1895C165.45 17.1709 167.084 15.5405 169.106 15.5405C171.129 15.5405 172.763 17.1709 172.763 19.1895Z" fill="#FFDE17"/>
<path d="M469.094 134.468C466.19 141.961 466.228 156.181 467.616 164.243C462.468 174.853 455.168 184.157 446.973 184.726V147.356L445.287 147.809L445.404 147.576C445.404 147.576 432.515 149.698 431.413 138.182C430.336 126.666 438.298 108.033 439.063 106.558C439.828 105.07 464.4 113.183 464.4 113.183L473.308 123.082L469.107 134.456L469.094 134.468Z" fill="white" stroke="#231F20" stroke-width="0.75" stroke-miterlimit="10"/>
<path d="M453.521 125.786C451.874 124.233 449.851 123.133 447.647 122.59C447.038 122.448 446.778 123.379 447.388 123.522C449.423 124.013 451.304 125.023 452.834 126.459C453.288 126.886 453.975 126.2 453.521 125.773V125.786Z" fill="#231F20"/>
<path d="M454.934 122.771C453.184 121.542 451.278 120.571 449.255 119.873C448.658 119.666 448.412 120.597 448.996 120.804C450.928 121.477 452.769 122.435 454.442 123.612C454.662 123.767 454.986 123.651 455.103 123.444C455.246 123.198 455.142 122.926 454.934 122.784V122.771Z" fill="#231F20"/>
<path d="M442.784 117.414C441.151 116.457 439.296 115.9 437.403 115.797C436.781 115.758 436.781 116.728 437.403 116.767C439.128 116.858 440.801 117.375 442.292 118.242C442.836 118.566 443.316 117.725 442.784 117.401V117.414Z" fill="#231F20"/>
<path d="M441.747 120.558C440.321 119.64 438.7 119.109 437.027 118.954C436.768 118.928 436.534 119.2 436.534 119.446C436.534 119.73 436.755 119.911 437.027 119.937C438.531 120.08 439.984 120.597 441.254 121.412C441.786 121.749 442.266 120.908 441.747 120.571V120.558Z" fill="#231F20"/>
<path d="M438.739 120.791C438.739 120.869 438.739 120.947 438.726 121.024C438.726 121.05 438.726 121.167 438.726 121.05C438.726 121.076 438.726 121.115 438.713 121.141C438.687 121.283 438.648 121.438 438.609 121.581C438.57 121.723 438.518 121.865 438.466 122.008C438.441 122.059 438.505 121.93 438.466 122.008C438.454 122.046 438.441 122.072 438.415 122.111C438.376 122.176 438.35 122.253 438.311 122.318C438.272 122.383 438.246 122.448 438.207 122.499C438.181 122.538 438.168 122.564 438.142 122.603C438.103 122.655 438.116 122.642 438.142 122.603C438.103 122.642 438.116 122.642 438.168 122.59L438.324 122.551C438.324 122.551 438.441 122.564 438.479 122.603C438.557 122.655 438.583 122.668 438.531 122.629C438.57 122.693 438.583 122.706 438.57 122.668C438.557 122.629 438.57 122.655 438.583 122.719C438.583 122.693 438.557 122.655 438.557 122.642C438.518 122.512 438.492 122.383 438.415 122.266C438.285 122.059 438.077 121.93 437.831 121.93C437.585 121.93 437.338 122.163 437.338 122.422C437.338 122.693 437.546 122.9 437.831 122.913C437.727 122.913 437.676 122.862 437.598 122.797C437.572 122.758 437.572 122.758 437.598 122.797C437.624 122.849 437.611 122.836 437.585 122.758C437.585 122.784 437.611 122.888 437.624 122.926C437.675 123.133 437.792 123.34 437.974 123.444C438.233 123.599 438.544 123.547 438.765 123.353C438.907 123.237 438.998 123.056 439.089 122.9C439.452 122.266 439.659 121.542 439.698 120.804C439.711 120.545 439.465 120.313 439.206 120.313C438.933 120.313 438.739 120.52 438.713 120.804L438.739 120.791Z" fill="#231F20"/>
<path d="M449.903 125.074C449.903 125.074 449.903 125.165 449.89 125.217V125.087C449.89 125.294 449.838 125.501 449.761 125.695L449.812 125.579C449.774 125.682 449.722 125.773 449.657 125.864L449.735 125.76C449.683 125.825 449.618 125.89 449.553 125.941L449.657 125.864C449.657 125.864 449.527 125.954 449.462 125.98L449.579 125.928C449.579 125.928 449.449 125.967 449.385 125.98H449.514C449.514 125.98 449.41 125.98 449.372 125.967H449.501C449.501 125.967 449.398 125.967 449.333 125.941L449.449 125.993C449.449 125.993 449.346 125.941 449.307 125.915L449.41 125.993C449.41 125.993 449.333 125.928 449.307 125.89L449.385 125.993C449.385 125.993 449.333 125.915 449.307 125.877L449.359 125.993C449.359 125.993 449.333 125.915 449.333 125.877V126.006C449.333 126.006 449.346 125.993 449.346 125.98C449.333 125.851 449.294 125.734 449.203 125.631C449.112 125.54 448.983 125.488 448.853 125.488C448.607 125.488 448.334 125.708 448.36 125.98C448.373 126.161 448.425 126.342 448.529 126.485C448.632 126.627 448.762 126.756 448.931 126.834C449.281 127.002 449.657 126.989 450.007 126.808C450.279 126.666 450.513 126.407 450.642 126.135C450.798 125.799 450.863 125.463 450.902 125.1C450.915 124.984 450.837 124.841 450.759 124.751C450.668 124.66 450.539 124.609 450.409 124.609C450.279 124.609 450.15 124.66 450.059 124.751C449.968 124.854 449.929 124.958 449.916 125.1L449.903 125.074Z" fill="#231F20"/>
<path d="M443.951 122.784C443.537 124.764 442.888 126.679 441.98 128.49C441.267 129.914 439.802 131.842 441.241 133.304C441.682 133.757 442.369 133.071 441.929 132.618C441.267 131.932 441.76 130.936 442.136 130.25C442.551 129.513 442.94 128.762 443.277 127.986C443.977 126.394 444.522 124.738 444.885 123.043C445.015 122.435 444.081 122.176 443.951 122.784Z" fill="#231F20"/>
<path d="M438 108.887C437.701 109.327 416.215 155.715 450.954 146.515" stroke="#231F20" stroke-width="0.75" stroke-linecap="round" stroke-linejoin="round"/>
<path d="M462.883 127.248C463.7 126.304 464.647 125.514 465.749 124.932C466.747 124.401 468.044 123.858 469.198 123.897C471.843 123.974 470.508 127.921 469.924 129.331C468.277 133.304 464.685 136.384 460.471 137.341C459.862 137.483 460.121 138.415 460.731 138.273C464.582 137.393 467.953 134.844 469.95 131.454C470.897 129.849 471.662 127.921 471.739 126.045C471.778 125.23 471.623 124.324 471.065 123.703C470.378 122.926 469.328 122.849 468.355 123.004C465.969 123.405 463.765 124.751 462.209 126.562C461.807 127.028 462.494 127.727 462.896 127.248H462.883Z" fill="#231F20"/>
<path d="M444.755 137.108C444.716 137.173 444.678 137.238 444.626 137.302C444.613 137.328 444.587 137.354 444.574 137.38C444.483 137.496 444.6 137.341 444.548 137.419C444.457 137.535 444.353 137.652 444.237 137.755C444.185 137.807 444.133 137.859 444.081 137.897C444.055 137.923 444.016 137.949 443.99 137.975C443.926 138.027 443.99 137.975 443.951 138.001C443.835 138.092 443.705 138.169 443.575 138.247C443.511 138.286 443.446 138.312 443.381 138.35C443.342 138.363 443.303 138.389 443.277 138.402C443.251 138.402 443.212 138.428 443.264 138.402C443.122 138.467 442.979 138.506 442.836 138.544C442.694 138.583 442.551 138.622 442.395 138.635C442.46 138.635 442.395 138.635 442.357 138.635C442.318 138.635 442.279 138.635 442.24 138.635C442.162 138.635 442.084 138.635 442.006 138.635C441.747 138.635 441.514 138.855 441.514 139.127C441.514 139.398 441.721 139.618 442.006 139.618C443.459 139.618 444.833 138.816 445.585 137.587C445.728 137.367 445.637 137.056 445.417 136.927C445.196 136.798 444.885 136.875 444.755 137.095V137.108Z" fill="#231F20"/>
<path d="M433.189 90.9655C457.787 95.6885 475.526 93.0358 485.082 104.203C485.977 105.238 486.846 106.415 486.962 107.774C487.17 110.09 485.212 111.954 483.526 113.545C474.125 122.461 469.392 136.164 466.747 148.922L466.54 136.241C471.039 128.904 477.613 122.034 458.267 121.451C454.092 121.322 460.899 113.933 456.97 112.497C453.638 111.281 450.046 111.112 446.519 110.763C442.992 110.414 439.374 109.819 436.392 107.903C433.409 105.988 430.492 103.983 433.189 90.9526V90.9655Z" fill="#231F20"/>
<path d="M466.293 231.179C464.53 237.093 459.927 247.988 454.532 256.864C445.417 243.588 419.146 223.105 405.194 193.797L393.173 206.206C405.518 251.546 442.084 292.966 457.009 292.319C478.936 291.361 489.374 252.09 493.485 239.059" fill="white"/>
<path d="M465.814 231.05C464.608 235.061 463 238.969 461.288 242.786C459.162 247.535 456.789 252.18 454.092 256.618H454.934C452.821 253.565 450.357 250.757 447.867 248.001C444.717 244.52 441.449 241.143 438.233 237.727C430.414 229.419 422.803 220.892 416.228 211.563C412.209 205.843 408.604 199.852 405.596 193.551C405.466 193.266 405.038 193.24 404.831 193.447C401.757 196.617 398.684 199.788 395.611 202.958L393.472 205.171C393.031 205.623 392.577 205.895 392.745 206.581C393.951 211.226 395.533 215.794 397.245 220.271C400.642 229.148 404.805 237.727 409.576 245.93C413.998 253.539 418.951 260.85 424.449 267.721C429.04 273.466 434.006 278.965 439.582 283.766C443.433 287.078 447.725 290.378 452.587 292.047C457.165 293.613 462.105 292.384 466.19 290.003C471.558 286.884 475.591 281.838 478.832 276.649C482.424 270.891 485.199 264.641 487.611 258.314C489.647 252.957 491.371 247.496 493.044 242.023C493.329 241.078 493.627 240.12 493.926 239.176C494.107 238.581 493.174 238.322 492.992 238.917C490.087 248.13 487.326 257.369 483.306 266.181C480.946 271.344 478.21 276.416 474.709 280.906C471.662 284.827 467.914 288.45 463.272 290.391C461.197 291.258 458.902 291.827 456.646 291.827C455.168 291.827 453.715 291.439 452.341 290.921C448.295 289.407 444.678 286.742 441.384 284.012C431.374 275.704 423.127 265.21 415.995 254.419C407.294 241.233 400.124 226.896 395.326 211.834C394.716 209.919 394.146 208.004 393.614 206.063L393.485 206.529C396.999 202.906 400.5 199.283 404.014 195.66L405.505 194.12L404.74 194.017C409.991 205.002 417.058 215.005 424.877 224.321C431.555 232.266 438.843 239.642 445.871 247.263C448.762 250.395 451.654 253.578 454.079 257.084C454.286 257.382 454.714 257.408 454.921 257.084C457.67 252.555 460.069 247.832 462.222 243.006C463.92 239.189 465.528 235.294 466.734 231.283C466.916 230.687 465.982 230.429 465.801 231.024L465.814 231.05Z" fill="#231F20"/>
<path d="M469.315 200.085C467.577 207.021 465.113 218.11 461.936 230.066L494.768 238.451" stroke="white" stroke-width="0.75" stroke-linecap="round" stroke-linejoin="round"/>
<path d="M454.468 256.838C454.818 258.883 455.401 260.889 456.192 262.804C456.296 263.049 456.516 263.218 456.789 263.14C457.022 263.075 457.229 262.791 457.126 262.545C456.322 260.63 455.751 258.624 455.401 256.58C455.362 256.321 455.038 256.179 454.805 256.243C454.532 256.321 454.416 256.58 454.468 256.838Z" fill="#231F20"/>
<path d="M453.612 257.071C453.339 258.197 452.782 259.206 451.965 260.034C451.783 260.216 451.783 260.539 451.965 260.72C452.146 260.901 452.471 260.901 452.652 260.72C453.573 259.789 454.234 258.611 454.545 257.33C454.61 257.084 454.468 256.787 454.208 256.735C453.949 256.683 453.677 256.813 453.612 257.071Z" fill="#231F20"/>
<path d="M446.986 186.99V147.356" stroke="#231F20" stroke-width="0.75" stroke-linecap="round" stroke-linejoin="round"/>
<path d="M294.859 53.1655H269.327L251.446 71.0221H227.224L197.18 101.016H182.501L170.909 89.4611H158.629L140.476 107.59H127.729L127.768 189.691C127.768 193.25 130.66 196.135 134.226 196.135H288.829C292.395 196.135 295.287 193.237 295.287 189.679L294.846 53.1784L294.859 53.1655Z" fill="#FFD200"/>
<path d="M127.768 161.845H154.182L171.544 144.506H186.521L205.44 125.614H247.141L266.747 106.037H296.946L295.274 189.653C295.287 193.224 292.395 196.122 288.829 196.122H134.239C130.673 196.122 127.781 193.237 127.781 189.679V161.832L127.768 161.845Z" fill="white"/>
<path d="M246.103 179.935H241.695" stroke="#231F20" stroke-width="0.75" stroke-linecap="round" stroke-linejoin="round"/>
<path d="M229.83 179.935H225.421" stroke="#231F20" stroke-width="0.75" stroke-linecap="round" stroke-linejoin="round"/>
<path d="M213.557 179.935H209.148" stroke="#231F20" stroke-width="0.75" stroke-linecap="round" stroke-linejoin="round"/>
<path d="M197.283 179.935H192.875" stroke="#231F20" stroke-width="0.75" stroke-linecap="round" stroke-linejoin="round"/>
<path d="M181.01 179.935H176.601" stroke="#231F20" stroke-width="0.75" stroke-linecap="round" stroke-linejoin="round"/>
<path d="M164.724 179.935H160.328" stroke="#231F20" stroke-width="0.75" stroke-linecap="round" stroke-linejoin="round"/>
<path d="M148.45 179.935H144.055" stroke="#231F20" stroke-width="0.75" stroke-linecap="round" stroke-linejoin="round"/>
<path d="M278.65 179.935H274.242" stroke="#231F20" stroke-width="0.75" stroke-linecap="round" stroke-linejoin="round"/>
<path d="M262.377 179.935H257.968" stroke="#231F20" stroke-width="0.75" stroke-linecap="round" stroke-linejoin="round"/>
<path d="M246.091 161.845H241.682" stroke="#231F20" stroke-width="0.75" stroke-linecap="round" stroke-linejoin="round"/>
<path d="M229.817 161.845H225.408" stroke="#231F20" stroke-width="0.75" stroke-linecap="round" stroke-linejoin="round"/>
<path d="M213.544 161.845H209.135" stroke="#231F20" stroke-width="0.75" stroke-linecap="round" stroke-linejoin="round"/>
<path d="M197.27 161.845H192.862" stroke="#231F20" stroke-width="0.75" stroke-linecap="round" stroke-linejoin="round"/>
<path d="M180.997 161.845H176.588" stroke="#231F20" stroke-width="0.75" stroke-linecap="round" stroke-linejoin="round"/>
<path d="M278.637 161.845H274.242" stroke="#231F20" stroke-width="0.75" stroke-linecap="round" stroke-linejoin="round"/>
<path d="M262.364 161.845H257.968" stroke="#231F20" stroke-width="0.75" stroke-linecap="round" stroke-linejoin="round"/>
<path d="M246.078 143.756H241.682" stroke="#231F20" stroke-width="0.75" stroke-linecap="round" stroke-linejoin="round"/>
<path d="M229.804 143.756H225.408" stroke="#231F20" stroke-width="0.75" stroke-linecap="round" stroke-linejoin="round"/>
<path d="M213.531 143.756H209.122" stroke="#231F20" stroke-width="0.75" stroke-linecap="round" stroke-linejoin="round"/>
<path d="M278.637 143.756H274.229" stroke="#231F20" stroke-width="0.75" stroke-linecap="round" stroke-linejoin="round"/>
<path d="M262.364 143.756H257.955" stroke="#231F20" stroke-width="0.75" stroke-linecap="round" stroke-linejoin="round"/>
<path d="M278.624 125.666H274.216" stroke="#231F20" stroke-width="0.75" stroke-linecap="round" stroke-linejoin="round"/>
<path d="M127.703 46.437L127.729 181.203" stroke="#231F20" stroke-width="0.75" stroke-linecap="round" stroke-linejoin="round"/>
<path d="M288.609 195.553H134.368C130.802 195.553 127.911 192.668 127.911 189.109L127.95 54.3433" stroke="#231F20" stroke-width="0.75" stroke-linecap="round" stroke-linejoin="round"/>
<path d="M315.165 169.845H421.674" stroke="#231F20" stroke-width="0.75" stroke-linecap="round" stroke-linejoin="round"/>
<path d="M315.165 181.815H421.674" stroke="#231F20" stroke-width="0.75" stroke-linecap="round" stroke-linejoin="round"/>
<path d="M315.165 193.797H421.674" stroke="#231F20" stroke-width="0.75" stroke-linecap="round" stroke-linejoin="round"/>
<path d="M416.267 106.39H365.71V55.938C393.614 55.938 416.267 78.5176 416.267 106.39Z" fill="#231F20"/>
<path d="M401.446 142.051C392.305 151.174 379.662 156.815 365.71 156.815C337.779 156.815 315.152 134.236 315.152 106.39C315.152 78.5435 337.779 55.938 365.71 55.938V106.39L401.446 142.051Z" fill="#FFD200"/>
<path d="M149.879 195H227.187C228.463 195 229.5 194.864 229.5 194.697V194.303C229.5 194.136 228.463 194 227.187 194H149.805C148.511 194 147.464 194.14 147.501 194.311L147.574 194.704C147.602 194.869 148.63 195 149.879 195Z" fill="#231F20" stroke="#231F20" stroke-linecap="round" stroke-linejoin="round"/>
<path d="M1.95557 306.544H69.9365C70.3555 305.478 71.5033 302.716 72.1045 301.695C75.9394 295.068 83.1538 289.699 91.7528 287.229C94.9318 286.299 98.2748 285.788 101.663 285.652H37.3625C32.3525 285.652 28.4174 286.007 24.2363 287.229C14.3074 290.073 5.14375 298.532 1.95557 306.544Z" fill="white" stroke="#231F20" stroke-linecap="round" stroke-linejoin="round"/>
<path d="M117.203 286.882C131.933 289.608 143.019 296.28 151.463 300.911C155.571 303.171 159.06 305.45 162.047 306.052C163.341 306.307 164.671 306.471 165.973 306.553H168.123C173.388 306.408 178.58 304.338 182.871 301.886C188.874 298.495 193.273 293.591 196.671 288.404C203.849 277.393 206.782 264.668 205.006 252.334C203.849 244.322 200.743 236.574 199.422 228.57C198.092 220.585 198.711 211.953 204.295 205.244C209.46 199.063 216.966 195.49 226.239 195.49H147.81C138.464 195.445 129.036 199.018 123.844 205.244C118.26 211.953 117.641 220.585 118.971 228.57C120.328 236.565 123.398 244.322 124.554 252.334C126.303 264.412 124.072 276.044 117.213 286.891L117.203 286.882Z" fill="white" stroke="#231F20" stroke-linecap="round" stroke-linejoin="round"/>
<path d="M72.1045 301.695C74.9921 303.445 78.08 305.314 81.6144 306.052C83.6001 306.453 85.3946 306.526 87.6719 306.553H165.973C164.671 306.471 163.332 306.307 162.047 306.052C159.06 305.45 155.58 303.171 151.463 300.911C143.018 296.28 131.942 289.608 117.203 286.882C113.022 286.107 108.541 285.652 103.749 285.652H101.663C98.2748 285.788 94.9318 286.29 91.7528 287.229C83.1538 289.699 75.9394 295.068 72.1045 301.695Z" fill="white" stroke="#231F20" stroke-linecap="round" stroke-linejoin="round"/>
<path d="M191.123 204.907H135.74" stroke="#231F20" stroke-linecap="round" stroke-linejoin="round"/>
<path d="M188.7 210.722H132.479" stroke="#231F20" stroke-linecap="round" stroke-linejoin="round"/>
<path d="M169.744 216.529H152.729" stroke="#231F20" stroke-linecap="round" stroke-linejoin="round"/>
<path d="M186.305 222.344H152.656" stroke="#231F20" stroke-linecap="round" stroke-linejoin="round"/>
<path d="M186.715 228.16H153.066" stroke="#231F20" stroke-linecap="round" stroke-linejoin="round"/>
<path d="M188.518 233.976H132.297" stroke="#231F20" stroke-linecap="round" stroke-linejoin="round"/>
<path d="M172.295 239.782H155.58" stroke="#231F20" stroke-linecap="round" stroke-linejoin="round"/>
<path d="M191.096 245.598H157.511" stroke="#231F20" stroke-linecap="round" stroke-linejoin="round"/>
<path d="M192.599 251.414H159.014" stroke="#231F20" stroke-linecap="round" stroke-linejoin="round"/>
<path d="M193.71 257.22H137.489" stroke="#231F20" stroke-linecap="round" stroke-linejoin="round"/>
<path d="M174.882 263.036H159.734" stroke="#231F20" stroke-linecap="round" stroke-linejoin="round"/>
<path d="M191.898 268.852H159.123" stroke="#231F20" stroke-linecap="round" stroke-linejoin="round"/>
<path d="M190.641 274.658H157.866" stroke="#231F20" stroke-linecap="round" stroke-linejoin="round"/>
<path d="M188.291 280.474H132.069" stroke="#231F20" stroke-linecap="round" stroke-linejoin="round"/>
<path d="M184.556 286.29H128.335" stroke="#231F20" stroke-linecap="round" stroke-linejoin="round"/>
<path d="M179.145 292.096H142.782" stroke="#231F20" stroke-linecap="round" stroke-linejoin="round"/>
<path d="M168.123 297.912H156.044" stroke="#231F20" stroke-linecap="round" stroke-linejoin="round"/>
<path d="M152.619 251.487C151.891 247.859 150.524 243.155 149.595 239.782H133.399C134.319 243.128 135.677 247.795 136.405 251.405L152.619 251.478V251.487Z" fill="#FFD800"/>
<path d="M147.045 216.492C146.562 220.129 146.598 224.022 147.163 228.151H130.339C129.783 224.022 129.737 220.129 130.22 216.492H147.045Z" fill="#FFD800"/>
<path d="M151.444 274.786C152.865 270.966 153.758 267.019 154.104 263.036H136.751C136.414 267.01 135.513 270.966 134.092 274.786H151.444Z" fill="#FFD800"/>
<path d="M73.6804 289.717H30.8677" stroke="#231F20" stroke-linecap="round" stroke-linejoin="round"/>
<path d="M67.9417 294.803H21.5947" stroke="#231F20" stroke-linecap="round" stroke-linejoin="round"/>
<path d="M62.7404 299.89H15.938" stroke="#231F20" stroke-linecap="round" stroke-linejoin="round"/>
<path d="M407.631 198.623C403.858 192.373 399.76 176.613 393.42 165.782C388.026 157.863 381.425 153.166 373.853 147.292C373.23 146.813 372.595 146.321 371.843 146.088C371.091 145.855 370.196 145.92 369.626 146.464C369.029 147.033 368.951 148.003 369.211 148.793C369.483 149.582 370.028 150.229 370.559 150.863C374.423 155.418 383.552 163.816 387.416 168.37L389.205 169.16C386.119 167.607 382.618 166.882 379.169 167.076C378.261 167.128 377.315 167.257 376.576 167.788C375.642 168.448 375.214 169.638 375.188 170.777C375.162 171.916 375.642 172.834 376.174 173.805L385.666 186.874C385.367 188.129 385.73 190.057 384.952 191.092C384.174 192.127 382.839 192.852 381.594 192.516C380.544 192.231 379.818 191.312 379.182 190.432C377.743 188.44 376.394 186.369 375.162 184.247C374.709 183.471 374.099 182.047 374.047 181.155L374.968 178.644C374.618 176.729 374.799 175.332 376.031 174.051C376.939 173.106 378.236 172.589 379.545 172.382C381.374 172.097 383.254 172.343 385.017 172.86C386.794 173.378 388.479 174.154 390.152 174.931C390.1 174.879 390.048 174.84 389.996 174.788L390.645 180.081C386.949 178.593 382.981 177.752 379.001 177.622C377.574 177.57 375.979 177.687 374.981 178.709C373.516 180.223 373.723 182.474 375.811 182.811C378.236 183.199 380.336 183.846 382.32 184.687C384.265 185.515 386.379 187.133 387.416 188.97C389.53 194.275 392.331 202.246 393.757 208.237" fill="white"/>
<path d="M407.631 198.623C403.858 192.373 399.76 176.613 393.42 165.782C388.026 157.863 381.425 153.166 373.853 147.292C373.23 146.813 372.595 146.321 371.843 146.088C371.091 145.855 370.196 145.92 369.626 146.464C369.029 147.033 368.951 148.003 369.211 148.793C369.483 149.582 370.028 150.229 370.559 150.863C374.423 155.418 383.552 163.816 387.416 168.37L389.205 169.16C386.119 167.607 382.618 166.882 379.169 167.076C378.261 167.128 377.315 167.257 376.576 167.788C375.642 168.448 375.214 169.638 375.188 170.777C375.162 171.916 375.642 172.834 376.174 173.805L385.666 186.874C385.367 188.129 385.73 190.057 384.952 191.092C384.174 192.127 382.839 192.852 381.594 192.516C380.544 192.231 379.818 191.312 379.182 190.432C377.743 188.44 376.394 186.369 375.162 184.247C374.709 183.471 374.099 182.047 374.047 181.155L374.968 178.644C374.618 176.729 374.799 175.332 376.031 174.051C376.939 173.106 378.236 172.589 379.545 172.382C381.374 172.097 383.254 172.343 385.017 172.86C386.794 173.378 388.479 174.154 390.152 174.931C390.1 174.879 390.048 174.84 389.996 174.788L390.645 180.081C386.949 178.593 382.981 177.752 379.001 177.622C377.574 177.57 375.979 177.687 374.981 178.709C373.516 180.223 373.723 182.474 375.811 182.811C378.236 183.199 380.336 183.846 382.32 184.687C384.265 185.515 386.379 187.133 387.416 188.97C389.53 194.275 392.331 202.246 393.757 208.237" stroke="#231F20" stroke-width="0.75" stroke-miterlimit="10"/>
<path d="M387.338 185.748L398.256 183.044L397.206 178.204L388.894 171.967L381.023 169.418L377.665 171.204L376.161 173.818L376.394 175.384L374.955 178.735L374.203 179.887C374.203 179.887 377.328 185.593 378.184 186.99" fill="white"/>
<path d="M387.468 168.474C386.042 167.969 384.563 167.646 383.059 167.477C381.672 167.322 380.181 167.27 378.806 167.555C377.6 167.814 376.576 168.487 376.083 169.638C375.487 170.997 375.733 172.498 376.005 173.908C376.122 174.517 377.056 174.258 376.939 173.65C376.718 172.433 376.446 171.062 377.03 169.897C377.561 168.836 378.689 168.487 379.792 168.383C382.294 168.15 384.862 168.577 387.222 169.405C387.818 169.612 388.064 168.681 387.481 168.474H387.468Z" fill="#231F20"/>
<path d="M385.484 172.964C383.02 172.589 380.44 172.226 378.093 173.274C376.096 174.167 374.696 176.147 374.994 178.36C375.072 178.981 376.018 178.709 375.927 178.101C375.668 176.173 377.224 174.581 378.923 173.973C380.959 173.248 383.15 173.572 385.225 173.895C385.834 173.986 386.106 173.054 385.484 172.964Z" fill="#231F20"/>
<path d="M384.226 179.175C382.8 178.606 381.283 178.282 379.74 178.23C378.3 178.179 376.731 178.334 375.383 178.864C374.32 179.291 373.373 180.119 373.503 181.362C373.632 182.487 374.268 183.497 374.734 184.519C374.994 185.088 375.824 184.597 375.577 184.027C375.201 183.173 374.657 182.345 374.501 181.426C374.307 180.314 375.461 179.822 376.355 179.589C378.871 178.916 381.568 179.162 383.967 180.132C384.55 180.365 384.797 179.434 384.226 179.201V179.175Z" fill="#231F20"/>
<path d="M386.781 188.414C385.614 185.903 383.319 183.975 380.66 183.199C380.064 183.031 379.805 183.963 380.401 184.131C382.839 184.842 384.875 186.602 385.938 188.893C386.055 189.125 386.392 189.19 386.599 189.061C386.846 188.918 386.884 188.634 386.768 188.401L386.781 188.414Z" fill="#231F20"/>
</g>
</g>
</g>
<defs>
<clipPath id="clip0_325_9561">
<rect width="575" height="312" fill="white" transform="translate(0.5)"/>
</clipPath>
<clipPath id="clip1_325_9561">
<rect width="575" height="312" fill="white" transform="translate(0.5)"/>
</clipPath>
<clipPath id="clip2_325_9561">
<rect width="575" height="312" fill="white" transform="translate(0.5)"/>
</clipPath>
</defs>
</svg>
