<svg width="604" height="320" viewBox="0 0 604 320" fill="none" xmlns="http://www.w3.org/2000/svg">
<g clip-path="url(#clip0_325_9498)">
<g clip-path="url(#clip1_325_9498)">
<g clip-path="url(#clip2_325_9498)">
<mask id="mask0_325_9498" style="mask-type:luminance" maskUnits="userSpaceOnUse" x="0" y="0" width="604" height="320">
<path d="M604 0H0V320H604V0Z" fill="white"/>
</mask>
<g mask="url(#mask0_325_9498)">
<path d="M558.5 294C583.077 294 603 274.077 603 249.5C603 224.923 583.077 205 558.5 205C533.923 205 514 224.923 514 249.5C514 274.077 533.923 294 558.5 294Z" fill="#F5F5F5"/>
<path d="M488 250C492.971 250 497 245.971 497 241C497 236.029 492.971 232 488 232C483.029 232 479 236.029 479 241C479 245.971 483.029 250 488 250Z" fill="#231F20"/>
<path d="M479 312C492.807 312 504 300.807 504 287C504 273.193 492.807 262 479 262C465.193 262 454 273.193 454 287C454 300.807 465.193 312 479 312Z" fill="#231F20"/>
<path d="M252.158 0.467773H453.91V195.56H252.158C240.791 195.56 231.553 186.33 231.553 174.973V21.0553C231.553 9.69813 240.791 0.467773 252.158 0.467773Z" fill="#FFD810"/>
<path d="M586.205 195.56H249.476C240.238 195.56 232.745 188.074 232.745 178.844V17.8012C232.745 8.57084 240.238 1.08447 249.476 1.08447H586.205C595.443 1.08447 602.936 8.57084 602.936 17.8012V178.844C602.936 188.074 595.443 195.56 586.205 195.56Z" stroke="#231F20" stroke-linecap="round" stroke-linejoin="round"/>
<path d="M471.471 144.177H581.756C585.502 144.177 588.546 141.135 588.546 137.392V55.1694C588.546 51.4262 585.502 48.3848 581.756 48.3848H471.471C467.725 48.3848 464.681 51.4262 464.681 55.1694V123.823V137.392C464.681 141.135 467.725 144.177 471.471 144.177Z" stroke="#231F20" stroke-linecap="round" stroke-linejoin="round"/>
<path d="M464.681 18.0142H588.546" stroke="#231F20" stroke-linecap="round" stroke-linejoin="round"/>
<path d="M464.681 32.0298H588.546" stroke="#231F20" stroke-linecap="round" stroke-linejoin="round"/>
<path d="M582.735 157.767H520.238C517.029 157.767 514.427 160.366 514.427 163.573V178.844C514.427 182.05 517.029 184.65 520.238 184.65H582.735C585.944 184.65 588.546 182.05 588.546 178.844V163.573C588.546 160.366 585.944 157.767 582.735 157.767Z" fill="#FFD810"/>
<path d="M345.797 136.669C367.346 136.669 384.815 119.215 384.815 97.6841C384.815 76.1536 367.346 58.6997 345.797 58.6997C324.248 58.6997 306.779 76.1536 306.779 97.6841C306.779 119.215 324.248 136.669 345.797 136.669Z" fill="white"/>
<path d="M363.762 97.6842L350.905 105.107L338.048 112.508V97.6842V82.8604L350.905 90.2828L363.762 97.6842Z" stroke="#231F20" stroke-linecap="round" stroke-linejoin="round"/>
<path d="M71.2664 197.793L60.8787 225.208L18.1357 209.533C25.3518 186.117 34.0153 169.592 34.0792 169.401C46.702 149.472 77.8439 145.58 99.2792 144.772L128.548 153.343C152.006 160.276 174.463 181.63 185.702 197.623L156.029 236.289L139.17 221.486L141.043 205.535L130.805 292.288L28.4596 280.569L53.6626 223.996" fill="#231F20"/>
<path d="M182.999 258.45C173.42 247.284 169.865 243.371 160.499 230.44L179.508 205.663C188.342 216.679 189.832 218.551 197.239 227.76" fill="white"/>
<path d="M182.999 258.45C173.42 247.284 169.865 243.371 160.499 230.44L179.508 205.663C188.342 216.679 189.832 218.551 197.239 227.76" stroke="#231F20" stroke-linecap="round" stroke-linejoin="round"/>
<path d="M260.502 227.781L285.258 196.198C287.578 193.561 292.751 188.308 297.583 187.33C304.097 185.99 316.89 186.117 322.701 182.884C323.276 182.565 323.914 182.055 323.787 181.417C323.701 180.97 323.276 180.673 322.85 180.566C322.403 180.481 320.721 180.311 319.253 180.268L306.949 178.992C310.334 179.524 313.739 179.907 317.124 180.141C319.274 180.29 321.424 180.375 323.531 180.141C325.638 179.907 327.703 179.354 329.47 178.291C329.981 177.972 330.534 177.525 330.513 176.908C330.513 176.419 330.172 175.972 329.789 175.653C328.746 174.781 327.341 174.547 326.043 174.484C320.87 174.271 318.657 174.569 308.673 173.335C314.165 173.952 327.81 174.484 333.131 173.016C333.77 172.846 334.451 172.612 334.855 172.08C335.388 171.421 335.324 170.4 334.855 169.698C334.387 168.996 333.6 168.55 332.769 168.358C331.939 168.167 331.088 168.146 330.236 168.124C325.787 168.061 320.061 168.699 309.61 167.657C314.484 164.381 341.369 164.551 338.602 160.702C335.856 156.831 307.971 160.617 302.5 162.467C297.03 164.317 297.136 162.042 297.136 162.042C305.331 146.963 300.052 147.835 300.052 147.835C297.519 148.069 295.369 149.898 294.007 152.046C292.645 154.194 291.9 156.661 290.984 159.022C289.239 163.53 279.17 175.59 272.167 183.289L228.871 227.803" fill="white"/>
<path d="M261.247 228.526C268.314 219.508 275.381 210.469 282.47 201.452C286.067 196.858 289.665 192.136 294.986 189.393C297.2 188.244 299.669 187.989 302.117 187.712C304.799 187.415 307.503 187.181 310.185 186.883C312.718 186.606 315.251 186.266 317.741 185.713C319.763 185.266 322.403 184.692 323.978 183.246C324.893 182.395 325.17 181.013 324.17 180.098C323.276 179.269 321.7 179.354 320.551 179.269C319.21 179.184 317.89 179.056 316.549 178.929C313.335 178.588 310.121 178.269 306.906 177.929C305.714 177.801 305.438 179.822 306.63 180.013C310.993 180.694 315.4 181.247 319.827 181.332C321.828 181.374 323.85 181.268 325.809 180.821C327.469 180.46 329.576 179.801 330.811 178.588C331.961 177.461 331.663 175.887 330.534 174.888C329.278 173.76 327.512 173.484 325.894 173.42C323.765 173.314 321.658 173.335 319.529 173.25C315.889 173.101 312.271 172.718 308.652 172.272V174.398C315.847 175.207 323.489 175.504 330.683 174.547C332.195 174.356 334.132 174.186 335.302 173.122C336.856 171.719 336.345 169.379 334.813 168.188C333.28 166.997 331.088 167.061 329.172 167.061C327.703 167.061 326.235 167.125 324.766 167.167C319.678 167.295 314.612 167.104 309.567 166.593L310.099 168.571C311.121 167.912 312.377 167.635 313.527 167.38C315.336 166.976 317.167 166.699 318.976 166.444C323.02 165.891 327.086 165.508 331.109 164.913C332.769 164.679 334.43 164.424 336.047 163.998C337.091 163.722 338.325 163.403 339.113 162.637C341.071 160.787 338.453 159.022 336.75 158.554C333.344 157.66 329.576 157.873 326.085 158.043C321.573 158.256 317.081 158.745 312.611 159.383C309.312 159.851 305.927 160.319 302.713 161.234C301.713 161.531 300.755 161.893 299.712 162.042C299.329 162.084 298.903 162.148 298.541 162.084C298.307 162.042 297.988 161.978 298.115 161.978C298.243 161.978 297.945 161.978 298.073 161.872C297.179 162.871 298.243 161.957 298.094 162.042C298.264 161.935 298.498 161.553 298.669 161.212C299.414 159.766 300.137 158.32 300.776 156.81C301.67 154.704 304.969 146.133 299.605 146.792C296.774 147.133 294.475 149.153 292.985 151.493C291.346 154.045 290.793 157.022 289.388 159.66C287.004 164.169 283.513 168.209 280.277 172.123C272.359 181.736 263.546 190.456 254.883 199.389C246.091 208.427 237.3 217.466 228.509 226.505L228.019 227.016C227.061 227.994 228.573 229.504 229.531 228.526C236.832 221.018 244.154 213.489 251.456 205.982L266.377 190.647C268.783 188.18 271.252 185.777 273.551 183.225C277.446 178.907 281.214 174.484 284.811 169.932C287.387 166.657 290.346 163.19 291.921 159.298C293.198 156.15 294.071 152.599 296.795 150.344C297.477 149.791 298.243 149.323 299.094 149.089C299.201 149.068 300.776 148.792 299.988 148.898C300.031 148.898 300.265 148.898 300.265 148.898C300.223 149.004 299.967 148.792 300.244 148.898C299.988 148.834 300.478 149.004 300.244 148.898C300.478 148.962 300.265 148.898 300.308 148.941C300.414 149.068 300.308 148.834 300.457 149.175C300.35 148.919 300.499 149.345 300.521 149.408C300.563 149.664 300.542 149.494 300.563 149.791C300.606 150.408 300.499 151.025 300.35 151.642C299.839 153.896 298.882 156.023 297.881 158.086C297.541 158.788 297.2 159.468 296.838 160.149C296.54 160.723 296.008 161.361 295.965 162.042C295.965 162.361 296.072 162.744 296.221 162.999C297.796 165.785 302.521 163.424 304.778 162.914C312.547 161.127 320.743 160.234 328.725 160.085C331.407 160.043 334.941 159.787 337.367 161.085C337.623 161.212 337.665 161.34 337.644 161.34C337.814 161.085 337.708 161.085 337.474 161.212C336.516 161.723 335.409 161.978 334.323 162.212C327.065 163.743 319.508 163.679 312.313 165.466C311.164 165.742 309.972 166.083 308.971 166.742C308.035 167.337 308.482 168.614 309.503 168.72C313.569 169.124 317.656 169.337 321.743 169.337C324.425 169.337 327.107 169.188 329.811 169.188C330.854 169.188 331.982 169.145 332.961 169.571C333.408 169.762 333.961 170.124 334.047 170.655C334.196 171.485 333.472 171.783 332.769 171.995C331.556 172.357 330.279 172.484 329.023 172.612C325.596 172.931 322.126 172.952 318.699 172.867C315.272 172.782 311.951 172.655 308.609 172.272C307.247 172.123 307.268 174.228 308.609 174.398C314.272 175.1 319.87 175.313 325.575 175.547C326.405 175.59 327.256 175.611 328.044 175.909C328.491 176.079 329.555 176.483 329.236 177.1C329.129 177.333 328.299 177.695 328.086 177.801C326.064 178.822 323.744 179.141 321.488 179.205C316.719 179.354 311.845 178.695 307.141 177.95L306.864 180.035L314.825 180.864C316.145 180.992 317.486 181.162 318.806 181.268C319.295 181.311 319.785 181.332 320.274 181.353C320.721 181.374 321.807 181.268 322.19 181.523C322.403 181.672 322.552 181.353 322.36 181.757C322.275 181.927 321.786 182.098 321.594 182.183C317.252 184.352 311.845 184.586 307.098 185.054C302.351 185.522 297.562 185.5 293.496 187.712C288.387 190.498 284.79 194.943 281.299 199.41C277.148 204.727 272.976 210.023 268.825 215.34C265.781 219.232 262.737 223.124 259.693 226.995C258.863 228.058 260.353 229.568 261.205 228.505L261.247 228.526Z" fill="#231F20"/>
<path d="M56.5364 223.528C46.4893 253.814 44.2968 257.45 36.357 274.188C78.5891 282.526 75.3323 286.12 145.62 294.01L172.121 300.603L169.524 316.406C136.765 316.597 42.7003 317.98 10.6644 307.92C10.6644 307.92 -17.0505 302.284 21.6268 210.746" fill="white"/>
<path d="M56.5364 223.528C46.4893 253.814 44.2968 257.45 36.357 274.188C78.5891 282.526 75.3323 286.12 145.62 294.01L172.121 300.603L169.524 316.406C136.765 316.597 42.7003 317.98 10.6644 307.92C10.6644 307.92 -17.0505 302.284 21.6268 210.746" stroke="#231F20" stroke-linecap="round" stroke-linejoin="round"/>
<path d="M71.2667 197.793L60.879 225.208L18.1147 209.533" stroke="white" stroke-linecap="round" stroke-linejoin="round"/>
<path d="M139.851 205.918C138.83 211.299 138.276 216.765 138.234 222.23C138.234 223.592 140.341 223.592 140.362 222.23C140.405 216.935 140.916 211.681 141.916 206.492C142.171 205.152 140.128 204.578 139.873 205.918H139.851Z" fill="white"/>
<path d="M111.2 109.637C110.689 118.208 104.218 137.583 99.2793 144.772C99.6199 160.383 104.09 175.526 116.713 175.313C130.358 175.079 128.42 144.729 128.42 144.729L128.378 132.883C128.378 132.883 139.979 140.689 146.152 130.012C152.346 119.335 152.878 97.727 152.793 95.9617C152.708 94.1752 125.206 91.0913 125.206 91.0913L112.158 96.7486L111.179 109.637H111.2Z" fill="white" stroke="#231F20" stroke-linecap="round" stroke-linejoin="round"/>
<path d="M130.656 109.658C132.699 108.978 134.892 108.808 136.956 109.212C137.51 109.318 138.127 109.063 138.276 108.467C138.404 107.936 138.127 107.276 137.531 107.149C135.062 106.681 132.486 106.808 130.102 107.595C129.57 107.766 129.166 108.34 129.357 108.914C129.527 109.446 130.102 109.85 130.677 109.658H130.656Z" fill="#231F20"/>
<path d="M130.485 106.149C132.529 105.766 134.743 105.703 136.871 105.894C137.425 105.936 137.957 105.362 137.936 104.831C137.914 104.214 137.467 103.831 136.871 103.767C134.551 103.554 132.209 103.682 129.911 104.086C129.357 104.192 128.995 104.873 129.166 105.405C129.357 106 129.889 106.255 130.485 106.149Z" fill="#231F20"/>
<path d="M144.407 106.404C144.896 106.362 145.364 106.341 145.854 106.341C146.088 106.341 146.344 106.341 146.578 106.383C146.684 106.383 146.791 106.383 146.897 106.404C146.961 106.404 147.025 106.404 147.11 106.426C147.025 106.426 147.004 106.426 147.089 106.426C148.025 106.574 148.941 106.808 149.835 107.149C150.345 107.361 151.027 106.915 151.154 106.404C151.303 105.788 150.963 105.32 150.409 105.086C148.536 104.341 146.45 104.065 144.449 104.256C143.896 104.32 143.364 104.703 143.385 105.32C143.406 105.851 143.853 106.447 144.449 106.383L144.407 106.404Z" fill="#231F20"/>
<path d="M144.3 109.892C144.045 109.935 144.385 109.892 144.428 109.892C144.534 109.892 144.641 109.892 144.747 109.871C144.939 109.871 145.109 109.85 145.301 109.85C145.726 109.85 146.131 109.85 146.556 109.892C146.599 109.892 146.94 109.935 146.684 109.892C146.769 109.892 146.876 109.914 146.961 109.935C147.152 109.977 147.365 109.999 147.557 110.041C147.961 110.126 148.366 110.254 148.77 110.381C149.302 110.573 149.962 110.169 150.09 109.637C150.218 109.042 149.92 108.531 149.345 108.318C147.536 107.68 145.62 107.553 143.747 107.808C143.513 107.851 143.236 108.085 143.108 108.297C142.98 108.531 142.917 108.871 143.002 109.127C143.193 109.722 143.725 109.956 144.321 109.871L144.3 109.892Z" fill="#231F20"/>
<path d="M145.279 109.403C145.024 110.084 144.896 110.828 144.939 111.551C144.96 112.062 145.003 112.615 145.407 112.997C145.62 113.21 145.918 113.338 146.237 113.359C146.471 113.359 146.663 113.295 146.876 113.21C147.152 113.083 147.344 112.827 147.514 112.593L147.344 112.806C147.344 112.806 147.408 112.721 147.45 112.7L147.238 112.87C147.238 112.87 147.28 112.849 147.301 112.827L147.046 112.934C147.046 112.934 147.089 112.934 147.11 112.912L146.833 112.955H146.876C146.876 112.955 146.684 112.934 146.599 112.912C146.62 112.912 146.642 112.912 146.663 112.912C146.897 112.997 147.259 112.912 147.493 112.806C147.727 112.7 147.919 112.423 147.983 112.168C148.047 111.892 148.025 111.594 147.876 111.339C147.727 111.083 147.514 110.956 147.238 110.849C146.918 110.722 146.514 110.807 146.216 110.977C145.96 111.126 145.811 111.339 145.641 111.551L145.811 111.339C145.811 111.339 145.748 111.424 145.705 111.445L145.918 111.275C145.918 111.275 145.854 111.317 145.811 111.339L146.067 111.232H146.024C146.024 111.232 146.216 111.232 146.301 111.211C146.28 111.211 146.258 111.211 146.237 111.211L146.514 111.253H146.471C146.471 111.253 146.642 111.317 146.727 111.339H146.705C146.705 111.339 146.854 111.424 146.918 111.487C146.918 111.487 146.876 111.466 146.876 111.445L147.046 111.658C147.046 111.658 147.025 111.615 147.025 111.594L147.131 111.849C147.131 111.849 147.089 111.7 147.089 111.615L147.131 111.892C147.067 111.487 147.089 111.083 147.131 110.701L147.089 110.977C147.131 110.615 147.238 110.275 147.365 109.956C147.451 109.722 147.365 109.361 147.259 109.127C147.152 108.893 146.876 108.701 146.62 108.638C146.344 108.574 146.046 108.595 145.79 108.744L145.577 108.914C145.45 109.042 145.364 109.212 145.301 109.382L145.279 109.403Z" fill="#231F20"/>
<path d="M132.529 108.574C132.486 108.723 132.422 108.893 132.401 109.063C132.358 109.297 132.316 109.552 132.337 109.807C132.337 110.02 132.38 110.254 132.465 110.445C132.571 110.743 132.699 110.956 132.912 111.211C132.997 111.317 133.125 111.402 133.231 111.487C133.359 111.573 133.487 111.636 133.636 111.679C133.827 111.743 134.04 111.785 134.232 111.764C134.53 111.764 134.785 111.679 135.041 111.551C135.275 111.424 135.488 111.211 135.615 110.977C135.743 110.743 135.786 110.424 135.722 110.148C135.658 109.892 135.466 109.637 135.232 109.51C134.977 109.382 134.679 109.318 134.402 109.403C134.125 109.488 133.912 109.658 133.763 109.892C133.763 109.892 133.742 109.935 133.721 109.956L133.891 109.743C133.891 109.743 133.827 109.807 133.806 109.829L134.019 109.658C134.019 109.658 133.934 109.722 133.891 109.743L134.147 109.637C134.147 109.637 134.04 109.68 133.976 109.68L134.253 109.637C134.253 109.637 134.125 109.637 134.083 109.637L134.359 109.68C134.359 109.68 134.253 109.658 134.189 109.637L134.445 109.743C134.445 109.743 134.338 109.701 134.296 109.658L134.508 109.829C134.508 109.829 134.402 109.743 134.359 109.68L134.53 109.892C134.53 109.892 134.445 109.743 134.402 109.658L134.508 109.914C134.508 109.914 134.445 109.722 134.423 109.616L134.466 109.892C134.466 109.765 134.466 109.616 134.466 109.488L134.423 109.765C134.445 109.552 134.508 109.361 134.572 109.148C134.657 108.893 134.594 108.552 134.466 108.318C134.338 108.085 134.083 107.893 133.827 107.829C133.551 107.766 133.253 107.787 132.997 107.936C132.742 108.085 132.593 108.297 132.507 108.574H132.529Z" fill="#231F20"/>
<path d="M139.298 109.148C138.872 110.998 138.638 112.912 138.617 114.827C138.617 115.741 138.659 116.634 138.723 117.549C138.766 117.995 138.915 119.186 138.319 119.399C137.787 119.612 137.403 120.122 137.574 120.718C137.723 121.228 138.34 121.675 138.893 121.462C139.873 121.079 140.532 120.335 140.767 119.314C141.001 118.293 140.788 117.166 140.767 116.103C140.681 113.955 140.873 111.828 141.341 109.743C141.639 108.404 139.596 107.851 139.298 109.169V109.148Z" fill="#231F20"/>
<path d="M152.793 98.7051C152.879 99.2581 153.134 153.79 123.461 129.374" stroke="#231F20" stroke-linecap="round" stroke-linejoin="round"/>
<path d="M121.949 104.937C121.29 102.682 120.012 100.598 118.182 99.0667C117.309 98.3223 116.266 97.5779 115.074 97.5566C114.01 97.5566 113.094 98.1309 112.477 98.9816C111.221 100.705 111.008 103.235 111.093 105.298C111.179 107.51 111.711 109.68 112.647 111.679C113.733 114.018 115.393 115.996 117.415 117.57C118.501 118.4 119.565 116.549 118.48 115.741C114.989 113.061 113.03 108.616 113.201 104.256C113.243 102.874 113.605 98.7476 115.84 100.003C117.841 101.13 119.246 103.363 119.863 105.511C120.247 106.83 122.29 106.255 121.907 104.937H121.949Z" fill="#231F20"/>
<path d="M132.082 123.079C132.188 123.929 132.444 124.78 132.955 125.482C133.465 126.184 134.104 126.779 134.87 127.141C135.126 127.268 135.402 127.332 135.7 127.247C135.956 127.183 136.211 126.992 136.339 126.758C136.594 126.29 136.488 125.546 135.956 125.312C135.679 125.184 135.445 125.035 135.211 124.844L135.424 125.014C135.147 124.801 134.913 124.567 134.7 124.291L134.87 124.504C134.657 124.227 134.487 123.929 134.359 123.61L134.466 123.865C134.338 123.546 134.232 123.227 134.189 122.887L134.232 123.164C134.232 123.164 134.232 123.1 134.232 123.079C134.189 122.781 134.125 122.547 133.912 122.334C133.721 122.143 133.423 122.015 133.167 122.015C132.912 122.015 132.614 122.121 132.422 122.334C132.252 122.526 132.082 122.802 132.103 123.079H132.082Z" fill="#231F20"/>
<path d="M165.437 83.477C139.426 77.0966 123.354 66.6114 109.114 73.1833C107.794 73.8 106.41 74.5444 105.687 75.7992C104.452 77.9473 105.538 80.6271 106.453 82.9241C111.626 95.7487 110.646 112.189 107.539 125.716L112.881 112.466C111.775 103.342 108.433 93.7708 127.505 101.832C131.613 103.576 128.293 93.3667 132.742 93.7282C136.509 94.026 140.085 95.4722 143.662 96.7058C147.238 97.9393 151.027 98.9815 154.773 98.4498C158.519 97.9181 162.245 97.28 165.416 83.4558L165.437 83.477Z" fill="#231F20"/>
<path d="M71.5007 305.772H261.758V306.027C261.609 313.194 255.755 318.937 248.582 318.937H84.6557C77.3758 318.937 71.4795 313.045 71.4795 305.772H71.5007Z" fill="white" stroke="#231F20" stroke-linecap="round" stroke-linejoin="round"/>
<path d="M149.451 305.793H261.971C265.015 305.793 267.697 303.73 268.442 300.774L289.303 219.87C290.388 215.637 287.195 211.511 282.832 211.511H170.312C167.268 211.511 164.586 213.574 163.841 216.531L154.922 251.176L143.002 297.435C141.916 301.667 145.109 305.793 149.473 305.793H149.451Z" fill="white" stroke="#231F20" stroke-linecap="round" stroke-linejoin="round"/>
<path d="M211.139 258.28C209.628 263.044 211.778 267.999 215.971 269.318C220.165 270.637 224.805 267.872 226.316 263.108C227.828 258.344 225.678 253.388 221.484 252.07C217.291 250.73 212.651 253.516 211.139 258.28Z" fill="#FFDE17"/>
<path d="M526.624 71.2054V64.4634" stroke="#241F20" stroke-linecap="round" stroke-linejoin="round"/>
<path d="M526.624 120.441V114.486" stroke="#241F20" stroke-linecap="round" stroke-linejoin="round"/>
<path d="M526.624 92.8564C533.202 92.8564 538.523 97.7055 538.523 103.682C538.523 109.658 533.202 114.508 526.624 114.508C520.047 114.508 514.725 109.637 514.725 103.661" stroke="#241F20" stroke-linecap="round" stroke-linejoin="round"/>
<path d="M526.624 92.8566C520.047 92.8566 514.725 88.0074 514.725 82.0311C514.725 76.0548 520.047 71.2056 526.624 71.2056C533.202 71.2056 538.523 76.0548 538.523 82.0311" stroke="#241F20" stroke-linecap="round" stroke-linejoin="round"/>
</g>
</g>
</g>
</g>
<defs>
<clipPath id="clip0_325_9498">
<rect width="604" height="320" fill="white"/>
</clipPath>
<clipPath id="clip1_325_9498">
<rect width="604" height="320" fill="white"/>
</clipPath>
<clipPath id="clip2_325_9498">
<rect width="604" height="320" fill="white"/>
</clipPath>
</defs>
</svg>
