<svg width="500" height="264" viewBox="0 0 500 264" fill="none" xmlns="http://www.w3.org/2000/svg">
<g clip-path="url(#clip0_278_2090)">
<mask id="mask0_278_2090" style="mask-type:luminance" maskUnits="userSpaceOnUse" x="0" y="0" width="500" height="265">
<path d="M500 0H0V264.901H500V0Z" fill="white"/>
</mask>
<g mask="url(#mask0_278_2090)">
<path d="M192.667 14C192.667 6.26801 198.935 0 206.667 0H376V162H206.667C198.935 162 192.667 155.732 192.667 148V14Z" fill="white"/>
<path d="M462.334 243.377C482.68 243.377 499.172 226.885 499.172 206.539C499.172 186.194 482.68 169.702 462.334 169.702C441.989 169.702 425.497 186.194 425.497 206.539C425.497 226.885 441.989 243.377 462.334 243.377Z" fill="white"/>
<path d="M403.974 206.953C408.089 206.953 411.424 203.618 411.424 199.503C411.424 195.388 408.089 192.053 403.974 192.053C399.858 192.053 396.523 195.388 396.523 199.503C396.523 203.618 399.858 206.953 403.974 206.953Z" fill="#231F20"/>
<path d="M396.523 258.278C407.953 258.278 417.219 249.012 417.219 237.583C417.219 226.153 407.953 216.887 396.523 216.887C385.094 216.887 375.828 226.153 375.828 237.583C375.828 249.012 385.094 258.278 396.523 258.278Z" fill="#231F20"/>
<path d="M376.091 2.0145C376.085 1.66449 376.079 1.38011 376.073 1.1665H375.833V161.5H376.073C376.079 161.286 376.085 161.002 376.091 160.652C376.106 159.792 376.119 158.546 376.131 157.006C376.153 153.925 376.167 149.67 376.167 144.975V17.6915C376.167 12.9964 376.153 8.74141 376.131 5.66069C376.119 4.12008 376.106 2.87438 376.091 2.0145Z" fill="#FFD810" stroke="black"/>
<path d="M485.269 161.887H206.52C198.873 161.887 192.67 155.69 192.67 148.05V14.7363C192.67 7.09528 198.873 0.897949 206.52 0.897949H485.269C492.916 0.897949 499.119 7.09528 499.119 14.7363V148.05C499.119 155.69 492.916 161.887 485.269 161.887Z" stroke="#231F20" stroke-width="2" stroke-linecap="round" stroke-linejoin="round"/>
<path d="M390.291 119.352H481.586C484.687 119.352 487.207 116.834 487.207 113.735V45.6701C487.207 42.5714 484.687 40.0537 481.586 40.0537H390.291C387.19 40.0537 384.67 42.5714 384.67 45.6701V102.502V113.735C384.67 116.834 387.19 119.352 390.291 119.352Z" stroke="#231F20" stroke-width="2" stroke-linecap="round" stroke-linejoin="round"/>
<path d="M384.67 14.9121H487.207" stroke="#231F20" stroke-width="2" stroke-linecap="round" stroke-linejoin="round"/>
<path d="M384.67 26.5146H487.207" stroke="#231F20" stroke-width="2" stroke-linecap="round" stroke-linejoin="round"/>
<path d="M482.397 130.602H430.661C428.004 130.602 425.85 132.753 425.85 135.408V148.049C425.85 150.703 428.004 152.856 430.661 152.856H482.397C485.053 152.856 487.207 150.703 487.207 148.049V135.408C487.207 132.753 485.053 130.602 482.397 130.602Z" stroke="#231F20" stroke-width="2" stroke-linecap="round" stroke-linejoin="round"/>
<path d="M286.256 113.137C304.094 113.137 318.556 98.688 318.556 80.8646C318.556 63.0414 304.094 48.5928 286.256 48.5928C268.417 48.5928 253.956 63.0414 253.956 80.8646C253.956 98.688 268.417 113.137 286.256 113.137Z" fill="#FED207"/>
<path d="M301.127 80.8646L290.484 87.0092L279.841 93.1358V80.8646V68.5933L290.484 74.7377L301.127 80.8646Z" stroke="#231F20" stroke-width="2" stroke-linecap="round" stroke-linejoin="round"/>
<path d="M58.9957 163.736L50.3966 186.43L15.0133 173.454C20.9869 154.07 28.1587 140.391 28.2116 140.232C38.6609 123.735 64.4406 120.513 82.1851 119.844L106.414 126.939C125.833 132.679 144.423 150.356 153.727 163.595L129.163 195.603L115.207 183.349L116.758 170.145L108.282 241.96L23.5596 232.259L44.423 185.427" fill="#231F20"/>
<path d="M151.489 213.948C143.56 204.705 140.617 201.466 132.863 190.761L148.599 170.25C155.912 179.37 157.146 180.919 163.277 188.543" fill="white"/>
<path d="M151.489 213.948C143.56 204.705 140.617 201.466 132.863 190.761L148.599 170.25C155.912 179.37 157.146 180.919 163.277 188.543" stroke="#231F20" stroke-linecap="round" stroke-linejoin="round"/>
<path d="M215.647 188.56L236.141 162.415C238.061 160.232 242.344 155.884 246.344 155.074C251.736 153.965 262.326 154.07 267.137 151.394C267.613 151.13 268.141 150.708 268.036 150.179C267.964 149.809 267.613 149.564 267.26 149.475C266.89 149.405 265.498 149.264 264.282 149.228L254.097 148.172C256.899 148.612 259.718 148.929 262.52 149.123C264.3 149.247 266.079 149.317 267.824 149.123C269.568 148.929 271.277 148.472 272.74 147.592C273.163 147.328 273.621 146.958 273.604 146.447C273.604 146.042 273.321 145.672 273.004 145.408C272.141 144.686 270.978 144.492 269.903 144.44C265.621 144.264 263.789 144.511 255.524 143.489C260.07 144 271.366 144.44 275.771 143.225C276.3 143.084 276.863 142.891 277.198 142.45C277.639 141.905 277.586 141.059 277.198 140.478C276.81 139.897 276.159 139.528 275.471 139.369C274.784 139.211 274.079 139.194 273.374 139.175C269.691 139.123 264.951 139.651 256.3 138.789C260.334 136.077 282.59 136.218 280.3 133.031C278.027 129.827 254.943 132.961 250.414 134.492C245.886 136.024 245.974 134.141 245.974 134.141C252.757 121.658 248.387 122.38 248.387 122.38C246.291 122.574 244.511 124.088 243.383 125.866C242.256 127.644 241.639 129.686 240.881 131.641C239.436 135.372 231.101 145.356 225.304 151.729L189.463 188.578" fill="white"/>
<path d="M216.264 189.177C222.114 181.712 227.964 174.229 233.833 166.764C236.81 162.962 239.789 159.053 244.194 156.782C246.026 155.831 248.07 155.62 250.097 155.39C252.317 155.144 254.555 154.951 256.776 154.704C258.872 154.475 260.969 154.193 263.031 153.736C264.704 153.365 266.89 152.89 268.194 151.693C268.951 150.989 269.18 149.845 268.353 149.087C267.613 148.401 266.308 148.471 265.357 148.401C264.247 148.331 263.154 148.225 262.044 148.12C259.383 147.837 256.723 147.573 254.061 147.292C253.074 147.186 252.846 148.859 253.833 149.017C257.445 149.581 261.093 150.039 264.757 150.109C266.414 150.144 268.088 150.056 269.709 149.686C271.084 149.387 272.828 148.841 273.85 147.837C274.802 146.904 274.555 145.601 273.621 144.774C272.581 143.841 271.119 143.612 269.78 143.559C268.017 143.471 266.273 143.489 264.511 143.418C261.497 143.295 258.502 142.978 255.507 142.609V144.369C261.463 145.039 267.789 145.284 273.744 144.492C274.996 144.334 276.599 144.193 277.568 143.313C278.854 142.151 278.431 140.214 277.163 139.228C275.894 138.242 274.079 138.295 272.493 138.295C271.277 138.295 270.062 138.348 268.846 138.383C264.634 138.489 260.44 138.331 256.264 137.908L256.704 139.545C257.55 139 258.59 138.77 259.542 138.559C261.04 138.225 262.555 137.995 264.053 137.784C267.401 137.327 270.767 137.01 274.097 136.517C275.471 136.323 276.846 136.112 278.185 135.76C279.049 135.531 280.07 135.267 280.723 134.633C282.344 133.101 280.176 131.64 278.767 131.253C275.947 130.513 272.828 130.689 269.938 130.83C266.203 131.006 262.484 131.411 258.784 131.939C256.053 132.327 253.251 132.714 250.59 133.471C249.762 133.717 248.969 134.017 248.106 134.14C247.789 134.175 247.436 134.228 247.137 134.175C246.943 134.14 246.679 134.087 246.784 134.087C246.89 134.087 246.643 134.087 246.749 134C246.009 134.827 246.89 134.07 246.767 134.14C246.907 134.052 247.101 133.736 247.243 133.453C247.859 132.256 248.458 131.059 248.987 129.809C249.727 128.066 252.458 120.971 248.017 121.516C245.674 121.798 243.771 123.471 242.537 125.408C241.18 127.52 240.723 129.985 239.56 132.168C237.586 135.901 234.696 139.245 232.017 142.486C225.463 150.443 218.167 157.662 210.996 165.057C203.718 172.539 196.44 180.021 189.163 187.504L188.757 187.927C187.964 188.736 189.216 189.986 190.009 189.177C196.053 182.962 202.114 176.729 208.159 170.514L220.511 157.82C222.502 155.778 224.546 153.789 226.449 151.676C229.674 148.101 232.793 144.44 235.771 140.672C237.903 137.961 240.353 135.091 241.656 131.869C242.714 129.263 243.436 126.323 245.691 124.457C246.256 123.999 246.89 123.611 247.594 123.418C247.683 123.4 248.987 123.172 248.334 123.26C248.37 123.26 248.564 123.26 248.564 123.26C248.529 123.347 248.317 123.172 248.546 123.26C248.334 123.207 248.74 123.347 248.546 123.26C248.74 123.313 248.564 123.26 248.599 123.295C248.687 123.4 248.599 123.207 248.723 123.489C248.634 123.277 248.757 123.63 248.776 123.682C248.81 123.894 248.793 123.753 248.81 123.999C248.846 124.51 248.757 125.02 248.634 125.531C248.211 127.397 247.419 129.158 246.59 130.865C246.309 131.447 246.026 132.01 245.727 132.573C245.48 133.048 245.04 133.577 245.004 134.14C245.004 134.404 245.093 134.721 245.216 134.933C246.52 137.239 250.431 135.284 252.3 134.862C258.731 133.383 265.516 132.644 272.123 132.52C274.344 132.486 277.269 132.274 279.277 133.348C279.489 133.453 279.524 133.559 279.507 133.559C279.647 133.348 279.56 133.348 279.366 133.453C278.573 133.876 277.656 134.087 276.757 134.281C270.749 135.548 264.493 135.495 258.537 136.975C257.586 137.203 256.599 137.486 255.771 138.031C254.996 138.524 255.366 139.581 256.211 139.668C259.577 140.003 262.96 140.179 266.344 140.179C268.564 140.179 270.784 140.056 273.022 140.056C273.886 140.056 274.82 140.02 275.63 140.373C276 140.531 276.458 140.831 276.529 141.27C276.652 141.957 276.053 142.204 275.471 142.38C274.467 142.679 273.41 142.784 272.37 142.89C269.533 143.154 266.661 143.172 263.824 143.101C260.987 143.031 258.238 142.926 255.471 142.609C254.344 142.486 254.361 144.228 255.471 144.369C260.159 144.95 264.793 145.126 269.516 145.32C270.203 145.356 270.907 145.373 271.56 145.62C271.93 145.76 272.81 146.095 272.546 146.606C272.458 146.798 271.771 147.098 271.594 147.186C269.921 148.031 268 148.295 266.132 148.348C262.185 148.471 258.15 147.926 254.256 147.309L254.026 149.035L260.617 149.721C261.709 149.827 262.82 149.968 263.912 150.056C264.317 150.091 264.723 150.109 265.127 150.126C265.497 150.144 266.396 150.056 266.714 150.267C266.89 150.39 267.013 150.126 266.854 150.461C266.784 150.601 266.379 150.743 266.22 150.813C262.626 152.609 258.15 152.803 254.22 153.19C250.291 153.577 246.326 153.559 242.96 155.39C238.731 157.697 235.753 161.376 232.863 165.074C229.427 169.476 225.973 173.86 222.537 178.261C220.017 181.483 217.497 184.705 214.978 187.909C214.291 188.789 215.524 190.039 216.229 189.159L216.264 189.177Z" fill="#231F20"/>
<path d="M46.8018 185.04C38.4846 210.111 36.6697 213.121 30.097 226.977C65.0573 233.879 62.3613 236.854 120.546 243.386L142.484 248.843L140.334 261.925C113.216 262.083 35.348 263.228 8.82826 254.901C8.82826 254.901 -14.1145 250.235 17.9031 174.458" fill="white"/>
<path d="M46.8018 185.04C38.4846 210.111 36.6697 213.121 30.097 226.977C65.0573 233.879 62.3613 236.854 120.546 243.386L142.484 248.843L140.334 261.925C113.216 262.083 35.348 263.228 8.82826 254.901C8.82826 254.901 -14.1145 250.235 17.9031 174.458" stroke="#231F20" stroke-linecap="round" stroke-linejoin="round"/>
<path d="M58.9957 163.736L50.3966 186.43L14.9957 173.454" stroke="white" stroke-linecap="round" stroke-linejoin="round"/>
<path d="M115.771 170.462C114.926 174.916 114.467 179.441 114.432 183.965C114.432 185.092 116.176 185.092 116.194 183.965C116.229 179.582 116.652 175.232 117.48 170.937C117.691 169.827 116 169.352 115.789 170.462H115.771Z" fill="white"/>
<path d="M92.053 90.7591C91.63 97.8543 86.2732 113.893 82.1851 119.844C82.467 132.767 86.1673 145.303 96.6168 145.127C107.912 144.933 106.308 119.809 106.308 119.809L106.273 110.003C106.273 110.003 115.877 116.464 120.987 107.626C126.114 98.7873 126.555 80.8999 126.484 79.4385C126.414 77.9596 103.647 75.4067 103.647 75.4067L92.8461 80.0899L92.0356 90.7591H92.053Z" fill="white" stroke="#231F20" stroke-linecap="round" stroke-linejoin="round"/>
<path d="M108.159 90.7765C109.85 90.2136 111.666 90.0728 113.374 90.4073C113.833 90.495 114.344 90.2839 114.467 89.7906C114.573 89.351 114.344 88.8046 113.85 88.6995C111.806 88.3121 109.674 88.4172 107.7 89.0687C107.26 89.2103 106.926 89.6854 107.084 90.1606C107.224 90.601 107.7 90.9354 108.176 90.7765H108.159Z" fill="#231F20"/>
<path d="M108.017 87.8716C109.709 87.5546 111.542 87.5024 113.304 87.6605C113.762 87.6953 114.203 87.2201 114.185 86.7805C114.167 86.2698 113.797 85.9527 113.304 85.8998C111.383 85.7234 109.445 85.8294 107.542 86.1638C107.084 86.2516 106.784 86.8153 106.926 87.2557C107.084 87.7483 107.524 87.9594 108.017 87.8716Z" fill="#231F20"/>
<path d="M119.542 88.0825C119.947 88.0477 120.334 88.0303 120.74 88.0303C120.934 88.0303 121.146 88.0303 121.339 88.0651C121.427 88.0651 121.516 88.0651 121.604 88.0825C121.657 88.0825 121.709 88.0825 121.78 88.1007C121.709 88.1007 121.692 88.1007 121.762 88.1007C122.537 88.2232 123.296 88.4169 124.036 88.6992C124.458 88.8747 125.022 88.5055 125.128 88.0825C125.251 87.5726 124.969 87.1851 124.511 86.9914C122.96 86.3747 121.233 86.1462 119.577 86.3043C119.119 86.3573 118.679 86.6744 118.696 87.1851C118.714 87.6247 119.084 88.1181 119.577 88.0651L119.542 88.0825Z" fill="#231F20"/>
<path d="M119.454 90.9702C119.243 91.0058 119.524 90.9702 119.56 90.9702C119.647 90.9702 119.736 90.9703 119.824 90.9529C119.983 90.9529 120.123 90.9355 120.282 90.9355C120.634 90.9355 120.969 90.9355 121.321 90.9702C121.357 90.9702 121.639 91.0058 121.427 90.9702C121.498 90.9702 121.586 90.9885 121.656 91.0058C121.815 91.0406 121.991 91.0588 122.15 91.0936C122.484 91.164 122.82 91.2699 123.154 91.375C123.594 91.534 124.141 91.1996 124.247 90.7592C124.353 90.2666 124.106 89.8436 123.63 89.6673C122.132 89.1391 120.546 89.034 118.996 89.2451C118.802 89.2807 118.573 89.4744 118.467 89.6499C118.361 89.8436 118.309 90.125 118.379 90.337C118.537 90.8295 118.978 91.0232 119.471 90.9529L119.454 90.9702Z" fill="#231F20"/>
<path d="M120.264 90.5653C120.053 91.1291 119.947 91.745 119.983 92.3435C120 92.7665 120.036 93.2243 120.37 93.5405C120.546 93.7168 120.793 93.8228 121.057 93.8402C121.251 93.8402 121.41 93.7872 121.586 93.7168C121.815 93.6117 121.974 93.3998 122.114 93.2061L121.974 93.3824C121.974 93.3824 122.026 93.312 122.061 93.2946L121.886 93.4354C121.886 93.4354 121.921 93.418 121.938 93.3998L121.727 93.4883C121.727 93.4883 121.762 93.4883 121.78 93.4701L121.55 93.5057H121.586C121.586 93.5057 121.427 93.4883 121.357 93.4701C121.374 93.4701 121.392 93.4701 121.41 93.4701C121.603 93.5405 121.903 93.4701 122.097 93.3824C122.291 93.2946 122.45 93.0653 122.502 92.8542C122.555 92.6258 122.537 92.3791 122.414 92.168C122.291 91.9561 122.114 91.8509 121.886 91.7624C121.621 91.6572 121.286 91.7276 121.04 91.8683C120.828 91.9917 120.704 92.168 120.564 92.3435L120.704 92.168C120.704 92.168 120.652 92.2383 120.617 92.2557L120.793 92.115C120.793 92.115 120.74 92.1498 120.704 92.168L120.916 92.0794H120.881C120.881 92.0794 121.04 92.0794 121.11 92.062C121.093 92.062 121.075 92.062 121.057 92.062L121.286 92.0968H121.251C121.251 92.0968 121.392 92.1498 121.463 92.168H121.445C121.445 92.168 121.568 92.2383 121.621 92.2905C121.621 92.2905 121.586 92.2731 121.586 92.2557L121.727 92.4321C121.727 92.4321 121.709 92.3965 121.709 92.3791L121.797 92.5902C121.797 92.5902 121.762 92.4668 121.762 92.3965L121.797 92.6258C121.744 92.2905 121.762 91.9561 121.797 91.6398L121.762 91.8683C121.797 91.5686 121.886 91.2872 121.991 91.0231C122.062 90.8294 121.991 90.5306 121.903 90.3369C121.815 90.1431 121.586 89.9842 121.374 89.9321C121.146 89.8791 120.899 89.8965 120.687 90.0198L120.511 90.1605C120.406 90.2665 120.334 90.4072 120.282 90.548L120.264 90.5653Z" fill="#231F20"/>
<path d="M109.709 89.8787C109.674 90.0021 109.621 90.1428 109.603 90.2836C109.568 90.4773 109.533 90.6884 109.551 90.8994C109.551 91.0758 109.586 91.2695 109.656 91.4276C109.744 91.6743 109.85 91.8506 110.027 92.0617C110.097 92.1494 110.203 92.2198 110.291 92.2902C110.397 92.3614 110.503 92.4135 110.626 92.4491C110.784 92.5021 110.96 92.5369 111.119 92.5195C111.366 92.5195 111.577 92.4491 111.789 92.3432C111.983 92.238 112.159 92.0617 112.264 91.868C112.37 91.6743 112.406 91.4102 112.353 91.1817C112.3 90.9698 112.141 90.7587 111.947 90.6536C111.736 90.5476 111.489 90.4946 111.26 90.565C111.031 90.6354 110.854 90.7761 110.731 90.9698C110.731 90.9698 110.714 91.0054 110.696 91.0228L110.837 90.8465C110.837 90.8465 110.784 90.8994 110.767 90.9177L110.943 90.7761C110.943 90.7761 110.873 90.8291 110.837 90.8465L111.049 90.7587C111.049 90.7587 110.96 90.7943 110.907 90.7943L111.137 90.7587C111.137 90.7587 111.031 90.7587 110.996 90.7587L111.224 90.7943C111.224 90.7943 111.137 90.7761 111.084 90.7587L111.296 90.8465C111.296 90.8465 111.207 90.8117 111.172 90.7761L111.348 90.9177C111.348 90.9177 111.26 90.8465 111.224 90.7943L111.366 90.9698C111.366 90.9698 111.296 90.8465 111.26 90.7761L111.348 90.988C111.348 90.988 111.296 90.8291 111.277 90.7413L111.313 90.9698C111.313 90.8647 111.313 90.7413 111.313 90.6354L111.277 90.8647C111.296 90.6884 111.348 90.5302 111.401 90.3539C111.471 90.1428 111.419 89.8605 111.313 89.6668C111.207 89.4739 110.996 89.315 110.784 89.262C110.555 89.2099 110.309 89.2273 110.097 89.3506C109.886 89.4739 109.762 89.6494 109.691 89.8787H109.709Z" fill="#231F20"/>
<path d="M115.313 90.354C114.96 91.8854 114.767 93.4699 114.749 95.0551C114.749 95.8118 114.784 96.551 114.837 97.3085C114.873 97.6777 114.996 98.6636 114.503 98.8399C114.062 99.0162 113.744 99.4384 113.886 99.9318C114.009 100.354 114.52 100.724 114.978 100.548C115.789 100.231 116.334 99.6148 116.529 98.7696C116.723 97.9244 116.546 96.9914 116.529 96.1114C116.458 94.3333 116.617 92.5725 117.004 90.8465C117.251 89.7381 115.56 89.2803 115.313 90.3714V90.354Z" fill="#231F20"/>
<path d="M126.484 81.7095C126.555 82.1673 126.767 127.309 102.203 107.097" stroke="#231F20" stroke-linecap="round" stroke-linejoin="round"/>
<path d="M100.951 86.8682C100.406 85.0015 99.3477 83.2763 97.8328 82.0089C97.1101 81.3926 96.2467 80.7764 95.26 80.7588C94.3792 80.7588 93.6209 81.2342 93.1101 81.9384C92.0704 83.3649 91.8941 85.4593 91.9644 87.1671C92.0356 88.9982 92.476 90.7946 93.2509 92.4494C94.1499 94.3856 95.524 96.023 97.1979 97.326C98.0969 98.0131 98.9777 96.4808 98.0795 95.8119C95.1896 93.5934 93.5679 89.9138 93.7095 86.3045C93.7442 85.1604 94.0439 81.7447 95.8941 82.7838C97.5505 83.7167 98.7136 85.5652 99.2244 87.3434C99.5422 88.4353 101.233 87.9593 100.916 86.8682H100.951Z" fill="#231F20"/>
<path d="M109.339 101.887C109.427 102.59 109.639 103.295 110.062 103.876C110.484 104.457 111.013 104.95 111.647 105.249C111.859 105.354 112.088 105.407 112.334 105.337C112.546 105.284 112.757 105.126 112.863 104.932C113.075 104.545 112.987 103.929 112.546 103.735C112.317 103.629 112.123 103.506 111.93 103.348L112.106 103.488C111.877 103.312 111.683 103.118 111.507 102.89L111.647 103.066C111.471 102.837 111.33 102.59 111.224 102.326L111.313 102.537C111.207 102.273 111.119 102.009 111.084 101.728L111.119 101.957C111.119 101.957 111.119 101.904 111.119 101.887C111.084 101.64 111.031 101.446 110.854 101.27C110.696 101.112 110.45 101.006 110.238 101.006C110.027 101.006 109.78 101.094 109.621 101.27C109.48 101.429 109.339 101.657 109.357 101.887H109.339Z" fill="#231F20"/>
<path d="M136.951 69.1036C115.419 63.8218 102.114 55.142 90.3262 60.5823C89.2335 61.0928 88.0878 61.709 87.4893 62.7478C86.4669 64.526 87.3659 66.7444 88.1234 68.6459C92.4057 79.2623 91.5944 92.8715 89.0224 104.069L93.4446 93.1008C92.529 85.5479 89.7625 77.6249 105.551 84.2979C108.951 85.7416 106.203 77.2904 109.886 77.5897C113.004 77.8362 115.964 79.0334 118.926 80.0546C121.886 81.0757 125.022 81.9384 128.123 81.4983C131.224 81.0581 134.309 80.5299 136.934 69.086L136.951 69.1036Z" fill="#231F20"/>
<path d="M59.1894 253.123H216.687V253.334C216.564 259.267 211.718 264.021 205.78 264.021H70.0793C64.0529 264.021 59.1719 259.143 59.1719 253.123H59.1894Z" fill="white" stroke="#231F20" stroke-linecap="round" stroke-linejoin="round"/>
<path d="M123.718 253.14H216.863C219.383 253.14 221.604 251.432 222.22 248.985L239.489 182.011C240.387 178.507 237.744 175.092 234.132 175.092H140.987C138.467 175.092 136.247 176.8 135.63 179.247L128.247 207.927L118.379 246.221C117.48 249.724 120.123 253.14 123.736 253.14H123.718Z" fill="white" stroke="#231F20" stroke-linecap="round" stroke-linejoin="round"/>
<path d="M174.784 213.808C173.533 217.751 175.313 221.853 178.784 222.945C182.256 224.037 186.097 221.748 187.348 217.804C188.599 213.861 186.82 209.758 183.348 208.667C179.877 207.558 176.036 209.864 174.784 213.808Z" fill="#FFDE17"/>
<path d="M435.947 58.9449V53.3638" stroke="#241F20" stroke-width="2" stroke-linecap="round" stroke-linejoin="round"/>
<path d="M435.947 99.7026V94.7729" stroke="#241F20" stroke-width="2" stroke-linecap="round" stroke-linejoin="round"/>
<path d="M435.947 76.8677C441.392 76.8677 445.797 80.8818 445.797 85.8291C445.797 90.7761 441.392 94.791 435.947 94.791C430.503 94.791 426.097 90.7587 426.097 85.8117" stroke="#241F20" stroke-width="2" stroke-linecap="round" stroke-linejoin="round"/>
<path d="M435.947 76.8678C430.503 76.8678 426.097 72.8536 426.097 67.9063C426.097 62.9591 430.503 58.9448 435.947 58.9448C441.392 58.9448 445.797 62.9591 445.797 67.9063" stroke="#241F20" stroke-width="2" stroke-linecap="round" stroke-linejoin="round"/>
</g>
</g>
<defs>
<clipPath id="clip0_278_2090">
<rect width="500" height="264.901" fill="white"/>
</clipPath>
</defs>
</svg>
