<svg width="500" height="246" viewBox="0 0 500 246" fill="none" xmlns="http://www.w3.org/2000/svg">
<g clip-path="url(#clip0_278_4017)">
<g clip-path="url(#clip1_278_4017)">
<g clip-path="url(#clip2_278_4017)">
<path d="M37.4834 238.623C16.784 238.623 0.00390625 222.021 0.00390625 201.542C0.00390625 181.063 16.784 164.461 37.4834 164.461C58.1827 164.461 74.9628 181.063 74.9628 201.542C74.9628 222.021 58.1827 238.623 37.4834 238.623Z" fill="#FFD810"/>
<path d="M66.5899 159.677C58.8827 159.677 52.6348 153.429 52.6348 145.722C52.6348 138.015 58.8827 131.767 66.5899 131.767C74.2971 131.767 80.545 138.015 80.545 145.722C80.545 153.429 74.2971 159.677 66.5899 159.677Z" fill="#231F20"/>
<path d="M377.191 245.003C445.014 245.003 499.996 190.2 499.996 122.596C499.996 54.9931 445.014 0.189941 377.191 0.189941C309.367 0.189941 254.386 54.9931 254.386 122.596C254.386 190.2 309.367 245.003 377.191 245.003Z" fill="#F5F5F5"/>
<path d="M275.979 3.94385H116.004C106.845 3.94385 99.436 11.3662 99.436 20.5248V117.638C99.436 126.796 106.859 134.219 116.019 134.219H275.993C285.153 134.219 292.576 126.796 292.576 117.638V20.5248C292.576 11.3662 285.153 3.94385 275.993 3.94385H275.979Z" fill="white" stroke="#231F20" stroke-width="0.598076" stroke-linecap="round" stroke-linejoin="round"/>
<path d="M283.373 23.9106V115.598C283.373 121.095 278.901 125.552 273.403 125.552H118.595C113.096 125.552 108.625 121.095 108.625 115.598V23.9106C108.625 18.3981 113.096 13.9272 118.61 13.9272H273.373C278.887 13.9272 283.358 18.3981 283.358 23.9106H283.373Z" fill="white" stroke="#231F20" stroke-width="0.598076" stroke-linecap="round" stroke-linejoin="round"/>
<path d="M156.841 195.551L156.233 195.913" stroke="#231F20" stroke-width="0.598076" stroke-linecap="round" stroke-linejoin="round"/>
<path d="M260.987 13.9418L260.77 152.232L172.513 152.941L172.339 153.014C172.339 153.014 172.195 153.085 172.122 153.158C167.231 155.908 163.932 161.13 163.932 167.163V182.254C163.932 187.796 161.11 192.686 156.855 195.58L156.248 195.942C153.816 197.475 150.951 198.343 147.84 198.343C138.97 198.343 131.749 191.124 131.749 182.254L131.923 116.813L131.952 13.8984L260.958 13.9418H260.987Z" fill="white" stroke="#231F20" stroke-width="0.598076" stroke-linecap="round" stroke-linejoin="round"/>
<path d="M148.592 198.329H196.1V167.163C196.1 166.657 196.071 166.194 196.028 165.702C195.666 161.839 193.987 158.381 191.383 155.805C188.489 152.868 184.48 151.089 180.009 151.089C177.288 151.089 174.712 151.769 172.499 152.941L172.325 153.014C172.325 153.014 172.18 153.085 172.108 153.158C167.217 155.907 163.918 161.13 163.918 167.163V182.254C163.918 195.912 154.844 198.329 148.578 198.329H148.592Z" fill="#231F20" stroke="#231F20" stroke-width="0.598076" stroke-miterlimit="10"/>
<path d="M180.009 151.118C184.48 151.118 188.474 152.912 191.383 155.835C193.987 158.41 195.666 161.868 196.028 165.731C196.057 166.237 196.1 166.701 196.1 167.193V228.959C196.1 237.828 203.321 245.048 212.192 245.048C215.303 245.048 218.168 244.194 220.585 242.646L221.193 242.284C225.447 239.391 228.268 234.5 228.268 228.959L334.18 228.93C329.361 226.137 326.134 220.957 326.134 214.996V167.742C326.134 158.844 318.942 151.653 310.043 151.653C307.032 151.653 177.288 151.104 180.009 151.104V151.118Z" fill="white" stroke="#231F20" stroke-width="0.598076" stroke-linecap="round" stroke-linejoin="round"/>
<path d="M311.142 237.871H292.938C291.245 237.871 289.885 236.858 289.885 235.614V224.56C289.885 223.316 291.259 222.304 292.938 222.304H311.142C312.835 222.304 314.196 223.316 314.196 224.56V235.614C314.196 236.858 312.821 237.871 311.142 237.871Z" fill="#FFCF53"/>
<path d="M209.847 225.095H252.709" stroke="#231F20" stroke-width="0.598076" stroke-linecap="round" stroke-linejoin="round"/>
<path d="M209.847 231.404H299.102" stroke="#231F20" stroke-width="0.598076" stroke-linecap="round" stroke-linejoin="round"/>
<path d="M209.847 237.712H299.102" stroke="#231F20" stroke-width="0.598076" stroke-linecap="round" stroke-linejoin="round"/>
<path d="M314.196 164.704V211.64C314.196 212.769 313.487 214.201 311.707 214.201L210.311 214.693C207.995 214.693 208.343 213.796 208.343 212.32V165.384C208.343 164.256 208.777 162.823 210.556 162.823L311.938 162.331C314.253 162.331 314.196 163.228 314.196 164.719V164.704Z" fill="#FFD303"/>
<path d="M140.836 91.71H195.564" stroke="#231F20" stroke-width="0.598076" stroke-linecap="round" stroke-linejoin="round"/>
<path d="M140.373 32.5047L193.857 32.4902" stroke="#231F20" stroke-width="0.598076" stroke-linecap="round" stroke-linejoin="round"/>
<path d="M154.815 23.8091H167.737" stroke="#231F20" stroke-width="0.598076" stroke-linecap="round" stroke-linejoin="round"/>
<path d="M140.562 98.5977L217.517 98.612" stroke="#231F20" stroke-width="0.598076" stroke-linecap="round" stroke-linejoin="round"/>
<path d="M139.954 114.006L217.517 114.049" stroke="#231F20" stroke-width="0.598076" stroke-linecap="round" stroke-linejoin="round"/>
<path d="M140.041 121.573L217.517 121.588" stroke="#231F20" stroke-width="0.598076" stroke-linecap="round" stroke-linejoin="round"/>
<path d="M139.954 129.126L195.68 129.111" stroke="#231F20" stroke-width="0.598076" stroke-linecap="round" stroke-linejoin="round"/>
<path d="M140.171 136.692L217.401 136.708" stroke="#231F20" stroke-width="0.598076" stroke-linecap="round" stroke-linejoin="round"/>
<path d="M140.171 144.26H217.517" stroke="#231F20" stroke-width="0.598076" stroke-linecap="round" stroke-linejoin="round"/>
<path d="M140.041 151.784L177.027 151.799" stroke="#231F20" stroke-width="0.598076" stroke-linecap="round" stroke-linejoin="round"/>
<path d="M139.954 166.917H169.662" stroke="#231F20" stroke-width="0.598076" stroke-linecap="round" stroke-linejoin="round"/>
<path d="M139.954 174.47L168.751 174.456" stroke="#231F20" stroke-width="0.598076" stroke-linecap="round" stroke-linejoin="round"/>
<path d="M139.954 181.994H169.054" stroke="#231F20" stroke-width="0.598076" stroke-linecap="round" stroke-linejoin="round"/>
<path d="M202.323 41.9094V81.5825C202.323 82.5809 200.875 83.8393 199.717 83.8536L157.217 84.1431C155.697 84.1431 154.771 83.3473 154.771 82.045V42.3724C154.771 41.3741 156.219 40.1153 157.376 40.1009L199.862 39.8115C201.382 39.8115 202.323 40.6073 202.323 41.9094Z" fill="#FFD303"/>
<path d="M217.126 41.6488V81.6684C217.126 82.6668 215.679 83.926 214.521 83.9403L142.428 84.3741C140.909 84.3741 139.982 83.5783 139.982 82.2761V42.2564C139.982 41.2581 141.43 39.9993 142.588 39.9848L214.681 39.5508C216.2 39.5508 217.141 40.3465 217.141 41.6488H217.126Z" stroke="#231F20" stroke-width="0.598076" stroke-miterlimit="10"/>
<path d="M244.722 32.3169H252.651" stroke="#231F20" stroke-width="0.598076" stroke-linecap="round" stroke-linejoin="round"/>
<path d="M233.796 32.3169H242.565" stroke="#231F20" stroke-width="0.598076" stroke-linecap="round" stroke-linejoin="round"/>
<path d="M222.191 32.3169H231.192" stroke="#231F20" stroke-width="0.598076" stroke-linecap="round" stroke-linejoin="round"/>
<path d="M210.614 32.3169H219.832" stroke="#231F20" stroke-width="0.598076" stroke-linecap="round" stroke-linejoin="round"/>
<path d="M197.923 32.3169H208.154" stroke="#231F20" stroke-width="0.598076" stroke-linecap="round" stroke-linejoin="round"/>
<path d="M140.562 106.223L217.401 106.237" stroke="#231F20" stroke-width="0.598076" stroke-linecap="round" stroke-linejoin="round"/>
<path d="M222.654 39.8115L252.651 39.826" stroke="#231F20" stroke-width="0.598076" stroke-linecap="round" stroke-linejoin="round"/>
<path d="M222.654 45.9604L252.651 45.975" stroke="#231F20" stroke-width="0.598076" stroke-linecap="round" stroke-linejoin="round"/>
<path d="M222.654 52.1099L252.651 52.1244" stroke="#231F20" stroke-width="0.598076" stroke-linecap="round" stroke-linejoin="round"/>
<path d="M222.654 58.2588L244.852 58.2732" stroke="#231F20" stroke-width="0.598076" stroke-linecap="round" stroke-linejoin="round"/>
<path d="M251.017 69.8481H224.303C223.28 69.8481 222.452 70.6773 222.452 71.7001V92.6652C222.452 93.6876 223.28 94.5169 224.303 94.5169H251.017C252.04 94.5169 252.869 93.6876 252.869 92.6652V71.7001C252.869 70.6773 252.04 69.8481 251.017 69.8481Z" fill="#FFD303"/>
<path d="M232.494 112.704C232.508 113.745 232.682 116.567 236.893 118.043C237.139 118.52 237.428 118.925 237.746 119.345C238.746 120.662 243.622 123.106 247.471 128.88C276.76 181.068 282.447 199.428 296.744 199.732H297.12C303.588 199.732 312.546 196.347 321.518 191.022C321.677 190.921 321.836 190.805 322.01 190.703C321.605 187.29 321.156 183.889 320.649 180.503C319.637 173.37 318.436 166.267 316.988 159.191C316.974 159.22 316.93 159.249 316.916 159.264C307.206 165.861 302.3 168.582 298.263 170.563C293.749 166.122 280.826 157.889 260.697 122.036C255.821 110.085 255.445 107.119 252.854 102.677C250.264 98.2352 240.945 86.3423 237.732 82.2188C232.465 86.7035 241.104 92.1875 247.471 105.484C246.053 103.545 244.519 102.561 243.245 102.272C241.929 101.982 240.525 102.084 239.382 102.793C238.268 103.487 237.501 104.891 237.79 106.164L237.66 106.294C237.168 106.395 236.661 106.555 236.242 106.772C235.2 107.336 234.332 108.363 234.115 109.535C234.1 109.709 234.085 109.854 234.085 110.027C234.1 110.013 234.115 109.969 234.172 110.013L234.085 110.099V110.027C234.085 110.027 233.927 110.071 233.868 110.099C232.914 110.548 232.465 111.662 232.508 112.733L232.494 112.704Z" fill="white"/>
<path d="M231.944 112.704C231.973 114.426 232.668 115.989 233.999 117.089C234.476 117.479 234.983 117.812 235.533 118.072C235.822 118.217 236.271 118.318 236.503 118.535C236.806 118.81 237.009 119.302 237.255 119.62C237.689 120.17 238.254 120.589 238.817 121.024C240.945 122.659 243.014 124.308 244.794 126.305C247.443 129.285 249.15 133.004 251.074 136.476C257.253 147.645 263.23 158.932 269.336 170.144C273.07 177.002 276.789 184.005 281.434 190.314C284.14 193.988 287.367 197.649 291.737 199.342C293.777 200.123 295.962 200.369 298.133 200.268C304.79 199.921 311.316 197.114 317.148 194.075C318.884 193.178 320.606 192.224 322.271 191.181C322.415 191.095 322.56 190.907 322.545 190.719C321.271 180.113 319.622 169.522 317.495 159.047C317.408 158.642 316.858 158.526 316.583 158.801C316.134 159.264 315.425 159.597 314.89 159.959C314.311 160.349 313.718 160.74 313.125 161.13C312.141 161.782 311.157 162.418 310.173 163.055C308.523 164.111 306.859 165.168 305.166 166.166C302.822 167.569 300.419 168.886 297.959 170.087L298.611 170.173C296.325 167.931 293.792 165.934 291.477 163.72C286.962 159.38 282.866 154.62 279.09 149.642C272.679 141.221 267.064 132.208 261.841 123.006C260.379 120.445 259.438 117.551 258.397 114.788C257.731 113.022 257.094 111.243 256.429 109.478C255.532 107.033 254.576 104.602 253.245 102.345C251.364 99.1471 249.034 96.1671 246.82 93.2006C244.36 89.9311 241.856 86.6895 239.353 83.4631C238.934 82.9137 238.499 82.3635 238.08 81.814C237.892 81.5676 237.515 81.6402 237.313 81.814C235.302 83.5644 235.2 85.8363 236.256 88.1656C237.79 91.5802 240.352 94.5754 242.392 97.7005C244.085 100.291 245.633 102.967 246.979 105.745L247.92 105.195C246.372 103.141 244.36 101.476 241.654 101.563C239.121 101.65 236.778 103.574 237.226 106.28L237.371 105.759C237.125 106.005 236.314 106.078 235.938 106.28C235.49 106.527 235.055 106.859 234.708 107.235C233.97 108.016 233.55 108.957 233.507 110.013C233.478 110.505 234.101 110.693 234.433 110.404L234.462 110.375L233.941 110.519H233.999C233.912 110.23 233.84 109.926 233.753 109.622L233.666 109.709L234.593 110.1V110.027C234.593 109.695 234.245 109.391 233.912 109.507C232.523 109.97 231.93 111.359 231.93 112.733C231.93 113.428 233.015 113.428 233.015 112.733C233.015 111.88 233.29 110.853 234.202 110.563L233.522 110.042V110.114C233.522 110.592 234.115 110.823 234.448 110.505L234.534 110.418C234.81 110.143 234.708 109.593 234.288 109.507C234.042 109.463 233.854 109.492 233.666 109.666L234.593 110.057C234.636 109.231 234.983 108.523 235.562 107.944C235.837 107.669 236.14 107.438 236.488 107.264C236.893 107.047 237.385 107.033 237.776 106.845C238.137 106.671 238.282 106.454 238.282 106.049C238.282 105.166 238.398 104.486 239.02 103.791C240.105 102.62 242.002 102.46 243.448 102.924C244.896 103.386 246.082 104.587 246.979 105.788C247.399 106.338 248.224 105.875 247.92 105.239C245.416 100.059 242.073 95.5012 238.948 90.7118C238.036 89.3227 237.009 87.7892 236.691 86.1258C236.416 84.6928 237.023 83.55 238.094 82.6242H237.327C242.132 88.8019 247.109 94.9223 251.407 101.448C252.825 103.603 253.94 105.904 254.852 108.32C256.328 112.212 257.717 116.133 259.265 119.996C259.858 121.472 260.481 122.818 261.262 124.206C262.044 125.596 262.854 126.985 263.664 128.36C265.154 130.891 266.689 133.395 268.251 135.883C270.885 140.036 273.62 144.115 276.543 148.066C280.493 153.433 284.733 158.598 289.465 163.301C291.969 165.79 294.675 168.032 297.265 170.419C297.467 170.608 297.67 170.796 297.858 170.983C298.046 171.157 298.293 171.171 298.509 171.07C301.027 169.826 303.487 168.481 305.89 167.034C307.64 165.992 309.363 164.907 311.07 163.807C312.068 163.156 313.067 162.505 314.065 161.839C315.122 161.145 316.453 160.494 317.336 159.597L316.424 159.351C318.523 169.739 320.172 180.214 321.431 190.733L321.706 190.27C315.658 194.047 308.812 197.33 301.765 198.734C298.929 199.299 295.934 199.515 293.126 198.705C288.973 197.504 285.818 194.278 283.228 190.979C278.757 185.279 275.255 178.768 271.767 172.431C266.095 162.144 260.639 151.74 254.996 141.439C253.173 138.096 251.32 134.768 249.468 131.441C248.557 129.806 247.674 128.2 246.502 126.724C245.518 125.48 244.418 124.322 243.231 123.252C241.712 121.863 239.917 120.777 238.427 119.36C238.08 119.027 237.805 118.622 237.544 118.217C237.385 117.956 237.313 117.739 237.052 117.58C236.633 117.334 236.126 117.219 235.692 116.987C234.694 116.451 233.826 115.67 233.362 114.628C233.101 114.035 233 113.399 232.986 112.747C232.986 112.053 231.886 112.053 231.901 112.747L231.944 112.704Z" fill="#231F20"/>
<path d="M237.037 117.537C235.214 116.871 233.55 115.67 233.116 113.688C233 113.109 232.943 112.356 233.16 111.706C233.333 111.156 233.71 110.679 234.274 110.49C234.982 110.259 235.779 110.519 236.459 110.78C238.094 111.431 239.643 112.372 241.046 113.442C241.277 113.616 241.654 113.471 241.784 113.254C241.943 112.979 241.828 112.69 241.596 112.516C240.149 111.416 238.572 110.49 236.893 109.796C235.359 109.174 233.55 109.058 232.523 110.592C231.495 112.125 231.915 114.527 232.957 115.974C233.897 117.276 235.272 118.072 236.762 118.608C237.414 118.853 237.703 117.797 237.052 117.565L237.037 117.537Z" fill="#231F20"/>
<path d="M234.607 110.057C234.65 108.161 236.387 106.916 238.137 106.729C240.192 106.497 242.131 107.38 243.897 108.306C244.519 108.624 245.069 107.698 244.446 107.365C242.305 106.251 239.946 105.253 237.486 105.745C235.388 106.15 233.593 107.857 233.536 110.071C233.521 110.766 234.607 110.766 234.621 110.071L234.607 110.057Z" fill="#231F20"/>
<path d="M238.296 106.005C238.137 105.05 238.6 104.095 239.309 103.487C240.119 102.793 241.249 102.576 242.29 102.648C244.288 102.778 245.851 104.182 247.008 105.715C247.428 106.265 248.368 105.715 247.949 105.166C246.444 103.169 244.446 101.506 241.813 101.549C240.54 101.563 239.237 101.997 238.34 102.923C237.442 103.849 237.037 105.05 237.254 106.294C237.371 106.974 238.412 106.685 238.296 106.005Z" fill="#231F20"/>
<path d="M261.233 121.877C259.713 118.173 258.296 114.44 256.921 110.693C256.154 108.58 255.387 106.454 254.403 104.428C253.347 102.272 252.001 100.29 250.612 98.3222C248.557 95.414 246.4 92.5783 244.244 89.7426C242.219 87.08 240.149 84.4469 238.109 81.7994C237.92 81.553 237.544 81.6255 237.341 81.7994C235.33 83.5497 235.215 85.8216 236.271 88.1653C237.819 91.5799 240.38 94.5751 242.421 97.6859C244.114 100.275 245.663 102.938 247.008 105.716C247.312 106.338 248.253 105.788 247.949 105.166C245.445 100.001 242.103 95.4427 238.963 90.6541C238.051 89.265 237.023 87.7315 236.705 86.0673C236.43 84.6207 237.038 83.4772 238.109 82.5514H237.341C241.307 87.6589 245.301 92.7378 249.077 97.9897C250.525 100.001 251.986 102.041 253.129 104.24C254.113 106.136 254.852 108.132 255.589 110.128C257.065 114.166 258.585 118.173 260.205 122.152C260.466 122.788 261.522 122.514 261.248 121.863L261.233 121.877Z" fill="#231F20"/>
<path d="M235.432 114.744C235.46 116.785 236.401 118.897 237.906 120.301C238.933 121.255 240.018 122.152 241.046 123.122C245.069 126.912 248.397 131.339 250.944 136.245C251.262 136.867 252.203 136.317 251.885 135.695C249.411 130.934 246.212 126.594 242.363 122.861C239.932 120.503 236.575 118.549 236.531 114.744C236.531 114.05 235.432 114.05 235.446 114.744H235.432Z" fill="#231F20"/>
<path d="M348.853 86.8488C349.098 94.6039 349.244 102.432 347.869 110.013C347.377 112.762 346.682 115.612 347.449 118.318C348.173 120.879 350.126 122.861 352.21 124.337C355.48 126.652 359.315 128.012 363.207 128.272C363.642 128.301 364.148 128.287 364.438 127.94C364.626 127.722 364.684 127.404 364.742 127.115C366.376 117.942 368.026 108.609 367.172 99.2777C366.984 97.1501 366.652 95.009 365.914 93.0122C365.176 91.0154 363.989 89.1638 362.354 87.9198C360.603 86.5881 358.418 86.053 356.291 85.9804C354.164 85.923 352.051 86.2994 349.967 86.6894L348.867 86.8488H348.853Z" fill="white"/>
<path d="M348.303 86.8487C348.564 95.0815 348.549 103.227 347.059 111.359C346.422 114.831 346.176 118.332 348.332 121.342C350.242 124.004 353.194 125.899 356.175 127.144C357.795 127.823 359.489 128.315 361.225 128.59C362.354 128.764 364.323 129.299 365.031 128.04C365.378 127.418 365.393 126.551 365.523 125.87C365.712 124.829 365.9 123.772 366.073 122.731C366.421 120.69 366.753 118.636 367.028 116.582C367.578 112.617 367.954 108.609 367.954 104.601C367.954 100.594 367.795 96.5567 366.435 92.8821C365.176 89.4962 362.76 86.7618 359.185 85.8503C355.611 84.9389 352.196 85.8504 348.723 86.3424C348.028 86.4436 348.332 87.4851 349.012 87.3838C351.82 86.9787 354.612 86.2698 357.463 86.6175C360.82 87.0226 363.396 88.9468 364.886 91.9563C366.464 95.1684 366.724 98.9442 366.854 102.474C366.984 106.005 366.767 109.81 366.362 113.442C365.957 117.073 365.335 120.85 364.684 124.54C364.539 125.364 364.496 126.304 364.236 127.1C363.917 128.026 362.976 127.752 362.166 127.65C360.531 127.448 358.91 127.043 357.362 126.464C354.453 125.378 351.501 123.613 349.548 121.154C347.189 118.173 347.58 114.686 348.231 111.171C349.736 103.126 349.678 95.0089 349.418 86.8631C349.388 86.1685 348.303 86.1685 348.332 86.8631L348.303 86.8487Z" fill="#231F20"/>
<path d="M315.932 155.183C323.124 149.656 336.929 137.763 356.884 134.176C356.884 134.176 374.235 131.455 405.492 137.749L420.454 181.212L408.645 244.614H343.788L336.654 173.486L337.682 183.065C332.241 187.492 327.06 191.89 321.214 195.667L315.947 155.183H315.932Z" fill="#231F20"/>
<path d="M430.019 153.101C437.37 160.147 440.134 171.345 436.907 180.996C436.69 181.662 437.732 181.951 437.949 181.285C441.292 171.273 438.398 159.626 430.786 152.333C430.28 151.856 429.513 152.623 430.019 153.101Z" fill="#231F20"/>
<path d="M297.786 170.274C296.874 171.59 295.658 172.763 294.312 173.631C294.067 173.79 293.965 174.108 294.124 174.369C294.269 174.615 294.616 174.731 294.863 174.557C296.382 173.573 297.685 172.3 298.726 170.81C298.9 170.563 298.77 170.202 298.538 170.071C298.263 169.913 297.959 170.028 297.8 170.26L297.786 170.274Z" fill="#231F20"/>
<path d="M297.786 170.825C298.336 171.924 298.77 173.053 299.088 174.254C299.161 174.543 299.479 174.717 299.754 174.63C300.029 174.543 300.202 174.239 300.13 173.964C299.783 172.691 299.305 171.447 298.712 170.274C298.582 170.014 298.206 169.942 297.974 170.087C297.714 170.246 297.641 170.564 297.786 170.825Z" fill="#231F20"/>
<path d="M345.8 89.3809C345.887 91.3633 346.683 93.5331 348.52 94.3146C350.112 95.0092 352.123 94.4446 353.585 95.4143C354.352 95.9494 354.989 96.7165 355.365 97.5554C355.857 98.6989 356.074 101.158 356.161 102.417C356.161 102.576 356.175 102.721 356.175 102.822C356.71 119.447 356.117 136.577 353.353 152.68C352.384 158.367 351.168 164.169 352.268 169.826C353.368 175.469 357.506 181.01 363.222 181.676C370.096 182.486 376.55 176.293 383.337 177.697C387.794 178.638 390.919 182.602 393.22 186.537C395.506 190.458 397.547 194.784 401.237 197.432C407.517 201.96 416.33 200.08 423.377 196.824C431.756 192.961 439.657 187.058 443.622 178.724C447.558 170.376 447.37 157.369 440.395 151.321C434.824 146.474 426.792 143.551 419.832 141.063C405.983 136.115 399.862 128.765 395.738 116.958C391.614 105.166 395.405 93.8521 388.445 83.4775C383.974 76.5618 372.542 75.5924 367.607 74.8834C362.673 74.1745 357.42 74.6375 353.093 77.1406C348.781 79.6291 345.583 84.3889 345.814 89.3522L345.8 89.3809Z" fill="#231F20"/>
<path d="M417.285 30.5661C418.197 32.3312 419.557 33.807 420.802 35.3552C422.09 36.9901 428.11 49.3462 430.323 55.9005C442.739 92.8679 446.69 114.035 445.388 120.98C441.827 126.666 436.632 128.894 429.744 129.733L445.098 153.36C460.234 146.286 468.728 138.14 470.827 130.674C475.949 112.429 452.797 73.7257 444.027 52.2544C444.027 52.2255 443.998 52.1821 443.998 52.1676C443.13 49.5633 441.278 45.6857 442.507 42.083C444.171 37.1637 449.323 28.6128 449.439 23.4186C449.439 22.9122 449.352 22.2755 448.875 22.1019C448.542 21.9717 448.166 22.1309 447.934 22.4058C447.731 22.6228 447.124 23.462 446.545 24.3301C446.458 24.4604 446.4 24.5906 446.313 24.7063L446.212 24.8509C445.951 25.2706 445.676 25.6756 445.402 26.0808C443.911 28.28 442.305 30.4069 440.597 32.4904L446.226 24.8509C446.342 24.6919 446.443 24.5182 446.559 24.3446C447.066 23.5199 447.543 22.6662 447.949 21.7837C448.628 20.2789 449.063 18.6585 449.049 17.0524C449.049 16.5894 448.962 16.0541 448.542 15.7937C448.209 15.6056 447.775 15.649 447.399 15.7937C446.4 16.1554 445.691 16.9945 445.141 17.8627C442.985 21.2049 442.305 22.8254 437.746 28.7575C440.423 25.097 445.864 16.5315 446.95 12.5093C447.095 12.0029 447.196 11.4531 447.008 10.9757C446.777 10.3535 446.067 9.99178 445.416 10.0352C444.75 10.0641 444.143 10.4258 443.679 10.9033C443.217 11.3663 442.869 11.9595 442.522 12.5093C440.727 15.4899 438.89 19.5844 434.057 26.211C433.782 21.6245 444.519 3.61115 440.829 3.92946C437.139 4.26224 428.673 24.5182 427.747 28.9311C426.821 33.344 425.33 32.3891 425.33 32.3891C418.413 20.9155 416.909 24.8076 416.909 24.8076C416.07 26.6017 416.461 28.7719 417.358 30.5516L417.285 30.5661Z" fill="white"/>
<path d="M416.807 30.8412C417.835 32.7655 419.412 34.2124 420.584 36.0209C421.236 37.0337 421.786 38.1189 422.335 39.1895C424.144 42.691 425.808 46.2647 427.371 49.8818C429.238 54.2369 430.7 58.7076 432.161 63.2073C433.81 68.2858 435.402 73.3932 436.908 78.5151C439.208 86.357 441.35 94.2715 442.999 102.287C444.013 107.177 444.953 112.169 445.068 117.175C445.084 117.956 445.068 118.738 445.025 119.505C444.997 119.809 444.967 120.127 444.938 120.416C444.837 121.14 444.244 121.762 443.81 122.312C441.162 125.697 437.414 127.651 433.29 128.591C432.117 128.866 430.945 129.054 429.744 129.198C429.368 129.241 429.021 129.632 429.281 130.009C433.767 136.91 438.253 143.811 442.725 150.713C443.361 151.697 443.998 152.666 444.635 153.65C444.809 153.911 445.098 153.968 445.372 153.838C451.493 150.959 457.47 147.559 462.593 143.117C466.051 140.122 469.263 136.505 470.899 132.164C472.274 128.533 472.274 124.496 471.84 120.706C471.29 115.844 470.002 111.069 468.468 106.44C464.894 95.5737 459.973 85.1561 455.054 74.84C452.695 69.9063 450.292 64.9725 448.006 60.0098C447.022 57.8829 446.053 55.7415 445.141 53.5712C444.013 50.8946 442.725 47.9141 442.624 44.977C442.522 42.0399 444.201 39.233 445.387 36.6576C446.574 34.0822 447.891 31.3041 448.86 28.5262C449.294 27.2819 449.656 25.9942 449.844 24.6921C449.974 23.7371 450.221 22.16 449.12 21.6537C447.862 21.0894 447.008 22.6809 446.429 23.5056C445.517 24.8078 444.678 26.1533 443.752 27.4556C442.608 29.0471 441.407 30.5952 440.178 32.1144L441.031 32.7655C442.898 30.2191 444.837 27.716 446.646 25.1261C447.775 23.5201 448.715 21.6392 449.193 19.7438C449.497 18.5574 450.119 16.0109 448.686 15.273C447.167 14.4917 445.517 16.2135 444.75 17.3276C444.1 18.2825 443.506 19.2952 442.898 20.2791C441.147 23.115 439.222 25.8206 437.197 28.4539L438.137 29.0037C439.787 26.7466 441.306 24.3882 442.754 22.0009C444.201 19.6136 445.677 17.0526 446.777 14.4049C447.225 13.3343 447.919 11.8295 447.399 10.6865C446.747 9.23967 444.91 9.23967 443.752 10.0499C442.594 10.8601 441.986 12.1623 441.336 13.3197C440.785 14.2892 440.25 15.273 439.714 16.2424C437.833 19.5992 435.764 22.8256 433.506 25.9364L434.52 26.2112C434.476 25.2274 434.794 24.2291 435.098 23.3031C435.547 21.8996 436.097 20.5251 436.675 19.1506C437.949 16.0977 439.352 13.1028 440.583 10.0354C441.061 8.84901 441.523 7.66257 441.842 6.41828C442.015 5.72378 442.233 4.82673 441.958 4.13225C441.205 2.25134 439.006 4.24799 438.311 5.05824C436.386 7.31533 434.982 10.0644 433.652 12.6976C432.074 15.8373 430.641 19.0783 429.353 22.3482C428.384 24.7789 427.632 27.2096 426.937 29.7126C426.763 30.3637 426.503 31.4199 425.895 31.825C425.765 31.9119 425.707 31.9119 425.605 31.9408C425.591 31.9408 425.533 31.8974 425.562 31.9408C425.346 31.6948 425.128 31.1305 424.925 30.8122C424.55 30.219 424.173 29.6259 423.768 29.0471C423.175 28.1934 422.566 27.3543 421.901 26.5585C420.96 25.4155 419.181 23.2162 417.401 23.6792C415.939 24.0555 415.766 26.2257 415.838 27.3832C415.91 28.5407 416.287 29.7271 416.807 30.8122C417.111 31.4344 418.052 30.8846 417.748 30.2625C417.155 29.0326 416.764 27.6436 416.967 26.2836C417.039 25.8206 417.169 25.3721 417.358 24.9525C417.328 24.9959 417.271 25.1117 417.328 25.0248C417.415 24.8802 417.488 24.7933 417.603 24.7644C417.777 24.721 417.85 24.721 418.023 24.7499C418.326 24.8078 418.587 24.9669 418.848 25.1261C419.948 25.8351 420.83 26.9347 421.626 27.9475C422.307 28.83 422.943 29.756 423.566 30.6965C423.927 31.2463 424.275 31.8106 424.621 32.3749C424.752 32.5774 424.838 32.7655 425.042 32.8957C425.649 33.2575 426.401 32.8957 426.836 32.4472C427.834 31.391 428.008 29.8139 428.369 28.4683C428.645 27.441 428.992 26.4283 429.353 25.4299C431.495 19.4689 434.085 13.421 437.486 8.06769C438.108 7.0983 438.759 6.1289 439.556 5.3042C439.816 5.04376 440.091 4.76886 440.423 4.59524C440.655 4.47949 440.828 4.45055 440.945 4.47949C440.901 4.47949 440.945 4.45055 440.945 4.50843C440.945 4.45055 440.988 4.69652 440.988 4.72546C441.031 5.0727 440.959 5.43442 440.887 5.76719C440.655 6.8668 440.25 7.93747 439.844 8.99366C438.716 11.9163 437.4 14.7522 436.169 17.617C435.156 19.9753 433.998 22.435 433.565 24.9959C433.492 25.401 433.449 25.8061 433.463 26.2112C433.492 26.7755 434.158 26.9057 434.476 26.4861C436.343 23.9252 438.094 21.2919 439.686 18.5574C440.727 16.7777 441.668 14.9547 442.71 13.1751C443.043 12.5963 443.39 11.9887 443.824 11.4823C444.461 10.7589 446.024 9.94859 446.458 11.2942C446.762 12.2491 445.879 13.8696 445.503 14.7232C444.418 17.125 443.086 19.4255 441.726 21.6826C440.366 23.9397 438.846 26.2836 437.24 28.4683C436.821 29.0326 437.761 29.5535 438.181 29.0181C439.903 26.7611 441.581 24.475 443.1 22.0877C443.592 21.3064 444.07 20.5251 444.548 19.7438C445.228 18.6442 445.894 17.2841 447.008 16.5752C447.471 16.2858 448.136 15.9676 448.411 16.6041C448.585 16.9948 448.484 17.588 448.441 18.0076C448.339 19.0349 448.05 20.0621 447.659 21.0315C447.152 22.3048 446.458 23.5635 445.662 24.6776C444.75 25.9653 443.795 27.2096 442.869 28.4828L440.105 32.2301C439.743 32.7221 440.569 33.3587 440.959 32.8812C443.072 30.2914 445.04 27.6002 446.892 24.8078C447.123 24.4606 447.34 24.1133 447.572 23.7805C447.731 23.5635 447.992 23.0282 448.223 22.898C449.106 22.406 448.875 23.8963 448.802 24.4027C448.643 25.6614 448.267 26.9057 447.862 28.1066C446.907 30.8846 445.633 33.5613 444.403 36.2235C443.347 38.5095 441.929 40.9981 441.61 43.5301C441.234 46.5685 442.421 49.6214 443.491 52.4138C444.273 54.4394 445.185 56.4216 446.082 58.3893C448.18 63.0337 450.408 67.6347 452.608 72.2357C457.456 82.3347 462.318 92.4773 466.138 103.011C467.831 107.684 469.322 112.443 470.233 117.334C470.957 121.197 471.377 125.306 470.61 129.198C469.799 133.322 467.354 136.867 464.474 139.847C460.263 144.202 455.097 147.559 449.786 150.409C448.151 151.292 446.487 152.117 444.809 152.898L445.546 153.086C441.061 146.185 436.574 139.283 432.103 132.382C431.467 131.398 430.829 130.428 430.193 129.444L429.73 130.254C433.955 129.719 438.181 128.634 441.596 125.986C442.435 125.336 443.217 124.612 443.926 123.801C444.592 123.049 445.445 122.138 445.85 121.212C446.111 120.604 446.096 119.765 446.125 119.114C446.371 114.628 445.561 110.027 444.765 105.629C443.361 97.9605 441.407 90.3936 439.309 82.8849C437.877 77.8206 436.357 72.771 434.78 67.7504C433.203 62.7299 431.698 57.637 429.759 52.7465C428.239 48.8834 426.503 45.0927 424.68 41.3454C423.363 38.6542 422.104 36.0065 420.193 33.6915C419.296 32.5918 418.429 31.4778 417.763 30.2191C417.429 29.5969 416.489 30.1467 416.822 30.7688L416.807 30.8412Z" fill="#231F20"/>
<path d="M440.554 32.5192C442.262 30.4358 443.868 28.3089 445.358 26.1097C445.633 25.7046 445.923 25.2995 446.169 24.8799L440.539 32.5192H440.554Z" fill="white"/>
<path d="M440.93 32.9098C442.956 30.4357 444.953 27.8747 446.631 25.1547C447.008 24.547 446.096 24.055 445.691 24.6048C444.041 26.833 442.406 29.0756 440.757 31.3038L440.062 32.2442C439.888 32.4757 440.018 32.8519 440.25 32.9821C440.525 33.1413 440.814 33.0255 440.988 32.794C442.638 30.5659 444.273 28.3233 445.922 26.0951L446.617 25.1547L445.676 24.6048C444.041 27.2526 442.102 29.7412 440.134 32.1285C439.7 32.6638 440.453 33.4306 440.901 32.8953L440.93 32.9098Z" fill="#231F20"/>
<path d="M378.475 134.233L416.937 163.098C428.037 160.291 439.034 159.525 446.704 155.936L428.818 128.359C420.266 129.43 392.381 133.322 378.475 134.219V134.233Z" fill="#231F20"/>
<path d="M445.17 15.3016C443.086 20.4524 440.149 25.2271 436.502 29.4229C436.039 29.9438 436.806 30.7251 437.269 30.1898C441.046 25.8492 444.056 20.9299 446.212 15.591C446.473 14.9399 445.43 14.665 445.17 15.3016Z" fill="#231F20"/>
<path d="M445.445 121.154C447.123 122.065 448.947 122.731 450.828 123.078C451.118 123.136 451.407 122.991 451.493 122.701C451.566 122.441 451.407 122.094 451.118 122.036C449.323 121.703 447.601 121.095 445.995 120.213C445.387 119.88 444.837 120.821 445.445 121.154Z" fill="#231F20"/>
<path d="M354.801 134.393C354.395 136.968 354.179 139.572 353.903 142.148C353.397 146.879 353.021 151.624 352.326 156.341C351.573 161.419 350.633 166.729 352.182 171.75C353.353 175.527 355.799 179.158 359.359 181.039C363.208 183.079 367.347 182.269 371.254 180.851C375.161 179.433 379.633 177.147 383.974 178.449C388.315 179.752 391.151 184.034 393.321 187.825C395.753 192.108 398.213 196.766 402.829 199.037C407.445 201.309 412.901 201.15 417.82 200.152C418.5 200.007 418.211 198.966 417.531 199.11C413.002 200.036 407.908 200.224 403.625 198.227C399.341 196.231 397.128 192.353 394.957 188.534C392.786 184.714 390.688 181.01 387.042 178.695C383.395 176.38 379.473 176.771 375.624 178.073C371.775 179.375 367.737 181.603 363.483 181.184C359.229 180.764 355.915 177.465 354.135 173.761C351.907 169.131 352.297 163.966 353.021 159.033C353.744 154.099 354.236 149.266 354.758 144.361C355.047 141.684 355.321 139.008 355.64 136.331C355.698 135.854 355.756 135.391 355.813 134.928C355.813 134.841 355.813 134.899 355.843 134.682C355.944 134.002 354.902 133.698 354.801 134.393Z" fill="#FFD303"/>
<path d="M354.728 105.571C355.596 103.805 356.956 102.403 358.505 101.664C358.997 101.433 359.547 101.259 360.024 101.506C360.82 101.911 361.023 103.183 360.994 104.254C360.864 109.13 358.201 113.804 354.511 115.627L354.728 105.571Z" fill="white"/>
<path d="M355.191 105.846C355.596 104.92 356.175 104.125 356.884 103.401C357.434 102.837 358.143 102.114 358.896 101.838C361.051 101.028 360.559 104.617 360.415 105.745C359.966 109.203 358.404 113.152 355.292 115.062C354.699 115.424 355.249 116.364 355.842 116.003C358.751 114.223 360.429 110.837 361.168 107.611C361.558 105.919 361.92 103.864 361.413 102.157C360.994 100.767 359.546 100.275 358.273 100.927C356.566 101.795 355.017 103.56 354.251 105.296C353.976 105.933 354.901 106.483 355.191 105.846Z" fill="#231F20"/>
<path d="M445.025 157.137C443.781 154.156 441.943 151.798 439.382 149.845C436.821 147.892 433.883 146.242 430.902 144.868C424.882 142.09 418.356 140.483 412.553 137.271C409.615 135.651 406.91 133.669 404.565 131.252C404.073 130.746 403.306 131.513 403.798 132.02C407.951 136.303 413.219 139.181 418.761 141.265C424.882 143.566 431.133 145.62 436.661 149.223C439.888 151.321 442.493 153.824 443.983 157.427C444.244 158.063 445.301 157.788 445.025 157.137Z" fill="#FFD303"/>
<path d="M213.682 245.048L349.837 244.064L350.3 243.818C355.09 241.026 359.098 235.05 359.098 229.118L308.19 228.93H228.268C228.268 234.472 222.452 245.048 213.682 245.048Z" fill="white" stroke="#231F20" stroke-width="0.598076" stroke-linecap="round" stroke-linejoin="round"/>
</g>
</g>
</g>
<defs>
<clipPath id="clip0_278_4017">
<rect width="500" height="245.61" fill="white" transform="translate(0 0.189941)"/>
</clipPath>
<clipPath id="clip1_278_4017">
<rect width="500" height="245.61" fill="white" transform="translate(0 0.189941)"/>
</clipPath>
<clipPath id="clip2_278_4017">
<rect width="499.992" height="245.61" fill="white" transform="translate(0.00390625 0.189941)"/>
</clipPath>
</defs>
</svg>
