<svg width="300" height="300" viewBox="0 0 300 300" fill="none" xmlns="http://www.w3.org/2000/svg">
<g clip-path="url(#clip0_278_3466)">
<g clip-path="url(#clip1_278_3466)">
<g clip-path="url(#clip2_278_3466)">
<path d="M108.198 0.969286L291.769 0.47998C295.88 0.47998 299.24 3.3995 299.06 6.79202L297.103 179.974C296.94 182.958 294.021 185.258 290.4 185.258H282.343L280.63 184.394L50.0693 185.241C45.9591 185.241 42.534 182.012 42.7297 178.636L44.7358 6.28641C44.8989 3.30164 47.6717 0.675705 51.3088 0.675705L108.198 0.969286Z" fill="#234092"/>
<path d="M100.497 1.08301H283.611C287.705 1.08301 291.065 4.00253 290.886 7.39504L288.977 179.908C288.814 182.893 285.911 185.193 282.29 185.193H42.5468C38.453 185.193 35.0931 182.273 35.2725 178.88L37.1808 6.3675C37.3439 3.38274 40.2471 1.08301 43.868 1.08301H100.497Z" fill="white"/>
<path d="M282.293 185.552H42.5498C40.2175 185.552 38.0319 184.655 36.564 183.089C35.4223 181.882 34.8351 180.381 34.9167 178.848L36.825 6.36793C37.0044 3.15482 40.0381 0.724609 43.871 0.724609H283.614C285.947 0.724609 288.132 1.62167 289.6 3.18744C290.742 4.3944 291.329 5.89493 291.248 7.42809L289.356 179.925C289.16 183.138 286.126 185.552 282.293 185.552ZM43.8546 1.44226C40.4132 1.44226 37.6894 3.56259 37.5426 6.38424L35.6506 178.88C35.5691 180.218 36.091 181.523 37.1022 182.6C38.4397 184.018 40.4295 184.834 42.5661 184.834H282.293C285.734 184.834 288.459 182.713 288.622 179.892L290.514 7.39547C290.595 6.05804 290.073 4.75322 289.062 3.67675C287.725 2.25776 285.734 1.44226 283.598 1.44226H43.8546Z" fill="#234092"/>
<path d="M36.1249 113.868C35.9292 113.868 35.7661 113.705 35.7661 113.509L36.2554 54.988C36.2554 54.7923 36.4185 54.6292 36.6142 54.6292C36.81 54.6292 36.9731 54.7923 36.9731 54.988L36.4838 113.509C36.4838 113.705 36.3207 113.868 36.1249 113.868Z" fill="#234092"/>
<path d="M275.251 20.624H242.99C241.619 20.624 240.478 19.466 240.478 18.0796C240.478 16.8074 241.473 15.8125 242.745 15.8125H275.007C276.376 15.8125 277.518 16.9705 277.518 18.3569C277.502 19.6291 276.508 20.624 275.251 20.624Z" fill="#FBD510"/>
<path d="M274.683 50.373H260.738C259.368 50.373 258.227 49.215 258.227 47.8286C258.227 46.5564 259.221 45.5615 260.494 45.5615H274.439C275.809 45.5615 276.95 46.7195 276.95 48.1059C276.95 49.3781 275.955 50.373 274.683 50.373Z" fill="#FBD510"/>
<path d="M275.07 30.3779H232.713C231.342 30.3779 230.2 29.2199 230.2 27.8335C230.2 26.5613 231.195 25.5664 232.468 25.5664H274.809C276.179 25.5664 277.321 26.7244 277.321 28.1108C277.321 29.383 276.326 30.3779 275.07 30.3779Z" fill="#FBD510"/>
<path d="M274.925 40.164H232.584C231.214 40.164 230.072 39.006 230.072 37.6197C230.072 36.3475 231.066 35.3525 232.339 35.3525H274.681C276.05 35.3525 277.192 36.5106 277.192 37.8969C277.192 39.1691 276.197 40.164 274.925 40.164Z" fill="#FBD510"/>
<path d="M63.8706 149.146L64.3436 106.169H49.0121L48.5391 149.146H63.8706Z" fill="white"/>
<path d="M82.2358 149.507H66.9042C66.8064 149.507 66.7085 149.474 66.6433 149.393C66.578 149.328 66.5454 149.23 66.5454 149.132L67.573 89.779C67.573 89.5833 67.7361 89.4202 67.9318 89.4202H83.2633C83.3612 89.4202 83.4591 89.4528 83.5243 89.5343C83.5895 89.5996 83.6222 89.6974 83.6222 89.7953L82.5946 149.148C82.5946 149.344 82.4478 149.507 82.2358 149.507ZM67.2794 148.789H81.877L82.8882 90.1541H68.2743L67.2794 148.789Z" fill="#234092"/>
<path d="M100.621 149.507H85.2895C85.1916 149.507 85.0938 149.474 85.0285 149.392C84.9633 149.31 84.9307 149.229 84.9307 149.132L85.7788 94.313C85.7788 94.1173 85.9419 93.9541 86.1376 93.9541H101.469C101.567 93.9541 101.665 93.9868 101.731 94.0684C101.796 94.1336 101.828 94.2315 101.828 94.3293L100.98 149.147C100.98 149.343 100.817 149.507 100.621 149.507ZM85.6646 148.789H100.263L101.11 94.6882H86.4964L85.6646 148.789Z" fill="#234092"/>
<path d="M118.999 149.506H103.667C103.569 149.506 103.471 149.473 103.406 149.391C103.341 149.326 103.308 149.228 103.308 149.13L104.613 74.1035C104.613 73.9077 104.776 73.7446 104.972 73.7446H120.304C120.402 73.7446 120.499 73.7772 120.565 73.8588C120.63 73.924 120.662 74.0219 120.662 74.1198L119.357 149.146C119.357 149.343 119.194 149.506 118.999 149.506ZM104.042 148.788H118.64L119.928 74.4786H105.33L104.042 148.788Z" fill="#234092"/>
<path d="M137.384 149.505H122.052C121.955 149.505 121.857 149.472 121.792 149.391C121.726 149.326 121.694 149.228 121.694 149.131L123.178 54.5803C123.178 54.3845 123.341 54.2214 123.537 54.2214H138.868C138.966 54.2214 139.064 54.2541 139.129 54.3356C139.194 54.4008 139.227 54.4987 139.227 54.5966L137.726 149.146C137.743 149.342 137.58 149.505 137.384 149.505ZM122.411 148.788H137.009L138.493 54.9717H123.879L122.411 148.788Z" fill="#234092"/>
<path d="M155.746 149.506H140.415C140.318 149.506 140.22 149.473 140.155 149.391C140.089 149.326 140.057 149.228 140.057 149.131L141.883 60.5173C141.883 60.3216 142.046 60.1584 142.242 60.1584H157.574C157.672 60.1584 157.77 60.1911 157.835 60.2726C157.9 60.3379 157.933 60.4357 157.933 60.5336L156.106 149.146C156.106 149.342 155.943 149.506 155.746 149.506ZM140.791 148.788H155.388L157.199 60.8924H142.585L140.791 148.788Z" fill="#234092"/>
<path d="M174.473 149.507H159.141C159.044 149.507 158.946 149.474 158.881 149.392C158.815 149.327 158.783 149.229 158.783 149.131L161.002 45.8713C161.002 45.6756 161.165 45.5125 161.36 45.5125H176.691C176.789 45.5125 176.888 45.5451 176.953 45.6266C177.018 45.6919 177.051 45.7897 177.051 45.8876L174.816 149.147C174.832 149.343 174.669 149.507 174.473 149.507ZM159.517 148.788H174.115L176.333 46.2464H161.719L159.517 148.788Z" fill="#234092"/>
<path d="M193.193 149.457H177.861C177.763 149.457 177.665 149.425 177.6 149.343C177.535 149.278 177.502 149.18 177.502 149.082L180.177 40.7175C180.177 40.5217 180.34 40.3586 180.536 40.3586H195.867C195.965 40.3586 196.064 40.3913 196.129 40.4728C196.194 40.5381 196.227 40.6359 196.227 40.7338L193.551 149.099C193.551 149.31 193.388 149.457 193.193 149.457ZM178.236 148.74H192.834L195.493 41.0926H180.879L178.236 148.74Z" fill="#234092"/>
<path d="M211.919 149.457H196.588C196.49 149.457 196.392 149.424 196.327 149.342C196.262 149.277 196.229 149.179 196.229 149.081L198.039 69.7326C198.039 69.5369 198.202 69.3738 198.398 69.3738H213.73C213.827 69.3738 213.925 69.4064 213.99 69.488C214.056 69.5532 214.088 69.6511 214.088 69.7489L212.278 149.098C212.278 149.31 212.114 149.457 211.919 149.457ZM196.962 148.739H211.56L213.354 70.1077H198.74L196.962 148.739Z" fill="#234092"/>
<path d="M230.646 149.506H215.314C215.216 149.506 215.118 149.473 215.053 149.391C214.988 149.326 214.955 149.228 214.955 149.131L216.945 87.1518C216.945 86.9561 217.108 86.8093 217.304 86.8093H232.635C232.733 86.8093 232.831 86.8419 232.896 86.9235C232.961 86.9887 232.994 87.0866 232.994 87.1845L231.004 149.163C231.004 149.359 230.841 149.506 230.646 149.506ZM215.689 148.788H230.287L232.26 87.527H217.646L215.689 148.788Z" fill="#234092"/>
<path d="M249.365 149.506H234.033C233.935 149.506 233.837 149.473 233.772 149.391C233.707 149.326 233.675 149.228 233.675 149.131L234.995 95.3559C234.995 95.1602 235.158 94.9971 235.354 94.9971H250.686C250.784 94.9971 250.882 95.0297 250.947 95.1112C251.012 95.1765 251.045 95.2743 251.045 95.3722L249.724 149.146C249.724 149.359 249.561 149.506 249.365 149.506ZM234.408 148.788H249.005L250.31 95.731H235.697L234.408 148.788Z" fill="#234092"/>
<path d="M268.091 149.505H252.76C252.662 149.505 252.564 149.472 252.498 149.391C252.433 149.326 252.401 149.228 252.401 149.131L253.82 93.268C253.82 93.0723 253.983 92.9092 254.179 92.9092H269.511C269.609 92.9092 269.706 92.9418 269.772 93.0234C269.837 93.0886 269.869 93.1865 269.869 93.2843L268.434 149.146C268.45 149.359 268.287 149.505 268.091 149.505ZM253.135 148.788H267.733L269.135 93.6431H254.522L253.135 148.788Z" fill="#234092"/>
<path d="M149.716 51.6121C149.635 51.6121 149.537 51.5794 149.472 51.5142L138.153 41.304C138.005 41.1735 137.99 40.9452 138.12 40.7984C138.25 40.6516 138.479 40.6353 138.625 40.7658L149.683 50.7313L176.856 19.8561C176.921 19.7909 177.003 19.742 177.101 19.742C177.199 19.742 177.297 19.7746 177.362 19.8398L191.78 32.839L209.167 13.0874C209.297 12.9406 209.525 12.9243 209.673 13.0548C209.819 13.1853 209.836 13.4136 209.705 13.5604L192.106 33.573C192.041 33.6382 191.96 33.6872 191.862 33.6872C191.764 33.6872 191.666 33.6545 191.601 33.5893L177.183 20.5901L150.01 51.4653C149.945 51.5305 149.863 51.5794 149.765 51.5794C149.733 51.6121 149.733 51.6121 149.716 51.6121Z" fill="#FBD510"/>
<path d="M89.969 85.194C89.8874 85.194 89.7895 85.1614 89.7243 85.0961L73.773 70.7105C73.6262 70.5801 73.6098 70.3517 73.7403 70.2049C73.8708 70.0581 74.0992 70.0418 74.2459 70.1723L89.9363 84.3132L127.923 41.1565C128.054 41.0097 128.282 40.9934 128.428 41.1239C128.575 41.2544 128.592 41.4827 128.461 41.6295L90.2462 85.0635C90.181 85.1287 90.0994 85.1777 90.0016 85.1777C89.9853 85.194 89.9853 85.194 89.969 85.194Z" fill="#FBD510"/>
<path d="M75.958 72.3722C76.9064 71.4097 76.8012 69.7686 75.7233 68.7065C74.6454 67.6445 73.0028 67.5637 72.0545 68.5262C71.1062 69.4886 71.2114 71.1298 72.2893 72.1918C73.3672 73.2539 75.0098 73.3346 75.958 72.3722Z" fill="#FBD510"/>
<path d="M151.722 53.0768C152.67 52.1143 152.565 50.4732 151.487 49.4111C150.41 48.3491 148.767 48.2683 147.818 49.2308C146.87 50.1932 146.975 51.8344 148.053 52.8964C149.131 53.9585 150.774 54.0392 151.722 53.0768Z" fill="#FBD510"/>
<path d="M174.781 19.8069C174.618 18.3716 175.646 17.2136 177.064 17.2136C178.483 17.2136 179.772 18.3716 179.951 19.8069C180.115 21.2422 179.087 22.4003 177.668 22.4003C176.249 22.4003 174.944 21.2422 174.781 19.8069Z" fill="#FBD510"/>
<path d="M189.594 33.1485C189.431 31.7132 190.459 30.5552 191.877 30.5552C193.296 30.5552 194.585 31.7132 194.764 33.1485C194.927 34.5838 193.899 35.7418 192.481 35.7418C191.062 35.7418 189.757 34.5838 189.594 33.1485Z" fill="#FBD510"/>
<path d="M210.898 16.0177C211.847 15.0553 211.741 13.4141 210.663 12.3521C209.586 11.29 207.943 11.2092 206.994 12.1717C206.046 13.1341 206.152 14.7753 207.229 15.8373C208.307 16.8994 209.95 16.9802 210.898 16.0177Z" fill="#FBD510"/>
<path d="M92.1212 86.4496C93.0694 85.4871 92.9642 83.846 91.8863 82.7839C90.8084 81.7219 89.1658 81.6411 88.2176 82.6036C87.2694 83.566 87.3744 85.2072 88.4523 86.2692C89.5304 87.3313 91.1728 87.412 92.1212 86.4496Z" fill="#FBD510"/>
<path d="M134.838 38.2164C135.787 37.254 135.682 35.6128 134.603 34.5508C133.526 33.4887 131.883 33.408 130.934 34.3704C129.987 35.3329 130.092 36.974 131.169 38.0361C132.247 39.0981 133.89 39.1789 134.838 38.2164Z" fill="#FBD510"/>
<path d="M118.293 171.231H50.0022C48.4201 171.231 47.0664 170.073 47.0827 168.768L47.1805 162.309C47.1968 161.184 48.2244 160.335 49.5781 160.335H117.853C119.435 160.335 120.789 161.493 120.772 162.798L120.674 169.257C120.674 170.382 119.631 171.231 118.293 171.231Z" fill="#234092"/>
<path d="M54.6983 62.6865C57.8462 62.5234 61.1571 65.5571 60.4069 70.1728C59.7871 73.9568 55.7258 74.756 53.7197 76.6317C47.2282 82.6827 45.0753 102.5 35.5665 107.67C27.9822 111.797 14.5752 110.247 7.72496 100.869C1.2172 91.9469 0.63003 79.3555 8.55678 73.9894C15.6843 69.1616 19.8271 75.8651 27.3624 71.4124C34.7999 67.025 33.283 62.0177 37.8336 60.3052C44.0967 57.9565 45.7766 63.1432 54.6983 62.6865Z" fill="#FBD510"/>
<path d="M66.1465 111.977C69.4737 132.396 69.8652 132.707 70.3219 134.843C70.3219 134.843 71.643 140.862 72.0181 146.652C72.3443 151.675 71.3984 181.882 55.7895 188.52C50.1462 190.918 48.5152 186.514 36.5272 186.987C24.2293 187.476 21.7338 191.847 16.3678 190.314C4.75491 187.003 0.954641 162.081 1.60704 146.684C2.12897 134.142 8.37577 122.301 20.8531 98.6188C22.7614 95.014 25.7951 89.5011 30.7044 88.7998C32.9553 88.4736 33.8523 88.8161 42.8718 91.2952C52.6906 93.9864 55.1697 91.1158 59.3941 93.7744C63.7163 96.5308 64.4828 101.75 66.1465 111.977Z" fill="white"/>
<path d="M18.5898 191C17.8558 191 17.0892 190.901 16.2574 190.657C9.55394 188.748 5.91678 180.055 4.02479 173.123C1.90447 165.311 0.86062 155.41 1.21945 146.668C1.74137 134.044 8.02079 122.154 20.4981 98.4557C22.2106 95.2259 25.3748 89.1912 30.6104 88.4572C32.7144 88.1473 33.6114 88.4083 40.5922 90.3329L42.9246 90.969C47.8502 92.3227 50.8513 92.2575 53.2815 92.2085C55.6628 92.1596 57.3754 92.127 59.5446 93.4971C63.9484 96.2698 64.7639 101.294 66.3949 111.291L66.4928 111.927C69.2655 128.923 69.9995 131.94 70.4235 133.751C70.5051 134.109 70.5866 134.42 70.6682 134.778C70.6845 134.843 72.0056 140.878 72.3644 146.636C72.7885 153.437 71.2227 182.339 55.9075 188.863C52.9553 190.119 51.0307 189.58 48.3722 188.814C45.7136 188.064 42.4189 187.117 36.5147 187.362C30.2679 187.606 26.647 188.846 23.7438 189.841C21.8192 190.477 20.2697 191 18.5898 191ZM31.9315 89.0607C31.5401 89.0607 31.1649 89.0933 30.7245 89.1585C25.8478 89.8599 22.7978 95.6663 21.1505 98.7819C8.70581 122.382 2.45902 134.24 1.9534 146.684C1.28469 162.733 5.34592 186.775 16.4531 189.956C18.9649 190.673 20.7753 190.053 23.5154 189.124C26.3208 188.177 30.1537 186.857 36.4983 186.612C42.5168 186.368 46.0235 187.362 48.5842 188.096C51.1938 188.846 52.9227 189.335 55.6465 188.177C63.7527 184.72 67.6671 174.689 69.5265 166.877C71.5652 158.314 71.8425 149.555 71.6631 146.652C71.3043 140.959 69.9995 134.958 69.9832 134.892C69.9016 134.533 69.8364 134.224 69.7548 133.881C69.3144 132.07 68.5968 129.037 65.8077 112.009L65.7099 111.373C64.1115 101.587 63.3123 96.6775 59.1858 94.0679C57.196 92.812 55.6628 92.8446 53.3305 92.8936C50.8676 92.9425 47.8013 93.0077 42.7778 91.6214L40.4454 90.9853C35.0631 89.5337 33.3505 89.0607 31.9315 89.0607Z" fill="#234092"/>
<path d="M48.2469 230.24V240.108L43.4844 239.814L42.5547 230.24H48.2469Z" fill="white"/>
<path d="M48.2449 240.466H48.2286L43.4822 240.173C43.3028 240.156 43.1561 240.026 43.1398 239.846L42.2101 230.256C42.1938 230.158 42.2264 230.06 42.3079 229.979C42.3731 229.897 42.4711 229.864 42.569 229.864H48.2449C48.4406 229.864 48.6037 230.027 48.6037 230.223V240.108C48.6037 240.206 48.5548 240.303 48.4896 240.369C48.4243 240.434 48.3265 240.466 48.2449 240.466ZM43.8084 239.487L47.8698 239.732V230.598H42.9441L43.8084 239.487Z" fill="#234092"/>
<path d="M42.7764 252.422C44.7173 252.635 47.8816 252.765 51.5677 252.129C52.7746 251.917 53.5411 250.709 53.2149 249.536C52.2852 246.241 50.4585 240.108 49.007 237.172L48.1261 238.771L47.4248 237.075C47.3106 236.879 47.0986 236.749 46.8702 236.716L44.3421 236.732C43.5919 236.732 43.5429 237.14 43.4451 237.45L42.9395 238.771L42.2544 236.993L40.9496 250.171C40.8355 251.297 41.651 252.308 42.7764 252.422Z" fill="white"/>
<path d="M46.0684 252.96C44.7636 252.96 43.6219 252.878 42.7249 252.78C41.4037 252.633 40.4414 251.443 40.5719 250.138L41.8767 236.959C41.893 236.796 42.0235 236.666 42.1866 236.633C42.3497 236.617 42.5128 236.699 42.5781 236.862L42.9369 237.775L43.1163 237.285C43.2142 236.976 43.3773 236.388 44.3396 236.388L46.8513 236.373C47.2265 236.405 47.5527 236.601 47.7321 236.894C47.7484 236.911 47.7484 236.927 47.7484 236.944L48.1561 237.938L48.6781 236.992C48.7433 236.878 48.8738 236.796 49.0043 236.813C49.1348 236.813 49.2652 236.894 49.3142 237.009C50.8473 240.124 52.7882 246.73 53.5548 249.436C53.7342 250.089 53.6364 250.807 53.2775 251.394C52.9024 251.981 52.3152 252.372 51.6302 252.487C49.5751 252.846 47.6831 252.96 46.0684 252.96ZM42.8064 252.063C44.7799 252.275 47.8789 252.389 51.4997 251.769C51.9727 251.688 52.3968 251.41 52.6578 251.002C52.9187 250.595 52.984 250.105 52.8535 249.633C52.1521 247.121 50.4233 241.216 48.9716 237.971L48.4334 238.949C48.3682 239.064 48.2377 239.146 48.0909 239.129C47.9441 239.129 47.8299 239.031 47.781 238.901L47.096 237.237C47.0307 237.139 46.9329 237.09 46.8187 237.074L44.3396 237.09C43.9155 237.09 43.8829 237.204 43.8013 237.465L43.7687 237.547L43.2631 238.884C43.2142 239.031 43.0837 239.113 42.9206 239.113C42.7738 239.113 42.6433 239.014 42.5781 238.884L42.4313 238.509L41.2896 250.187C41.208 251.134 41.8767 251.965 42.8064 252.063Z" fill="#234092"/>
<path d="M46.6237 250.725C44.1282 250.725 42.4157 250.204 42.3178 250.171C42.1221 250.105 42.0242 249.909 42.0895 249.714C42.1547 249.518 42.3504 249.42 42.5462 249.486C42.5788 249.502 46.3464 250.643 50.7991 249.486C50.9948 249.437 51.1905 249.551 51.2395 249.746C51.2884 249.942 51.1742 250.138 50.9785 250.187C49.3964 250.578 47.8959 250.725 46.6237 250.725Z" fill="#234092"/>
<path d="M48.9888 245.589H44.6503C44.4546 245.589 44.2915 245.426 44.2915 245.23C44.2915 245.034 44.4546 244.871 44.6503 244.871H48.9888C49.1846 244.871 49.3477 245.034 49.3477 245.23C49.3477 245.426 49.2009 245.589 48.9888 245.589Z" fill="#234092"/>
<path d="M13.2699 225.005L11.8672 236.912L7.41455 236.764V225.005H13.2699Z" fill="white"/>
<path d="M11.8696 237.27L7.40063 237.107C7.20491 237.107 7.05811 236.944 7.05811 236.747V224.988C7.05811 224.792 7.22122 224.629 7.41694 224.629H13.2723C13.3701 224.629 13.468 224.678 13.5495 224.743C13.6148 224.825 13.6474 224.923 13.6311 225.021L12.2284 236.927C12.2121 237.139 12.049 237.27 11.8696 237.27ZM7.77575 236.405L11.5434 236.536L12.8645 225.363H7.77575V236.405Z" fill="#234092"/>
<path d="M12.9294 234.074C12.9294 234.074 13.5003 239.358 13.3208 241.495C13.1904 243.011 11.1027 247.611 9.92833 250.106C9.43899 251.134 8.52562 251.786 7.49808 251.835C6.2422 251.884 4.51332 251.949 3.11064 251.949C1.18604 251.949 -0.15139 249.764 0.549947 247.708C1.18604 245.817 2.19727 243.452 3.77936 240.94C4.97 239.049 6.71519 233.894 6.71519 233.894H10.3524L11.07 236.912L12.9294 234.074Z" fill="white"/>
<path d="M3.11094 252.308C2.16495 252.308 1.2842 251.835 0.697031 251.02C-0.00430644 250.041 -0.183719 248.769 0.207726 247.595C1.00693 245.23 2.09971 242.93 3.46976 240.744C4.62779 238.902 6.35667 233.829 6.37297 233.781C6.42191 233.633 6.55239 233.536 6.71549 233.536H10.3526C10.5157 233.536 10.6625 233.649 10.7114 233.813L11.2334 236.014L12.6524 233.878C12.7339 233.748 12.897 233.682 13.0438 233.731C13.1906 233.764 13.3048 233.894 13.3211 234.041C13.3374 234.253 13.8919 239.391 13.7125 241.528C13.582 243.011 11.7879 247.105 10.2874 250.269C9.74915 251.411 8.68902 252.145 7.54731 252.211C6.29143 252.243 4.52993 252.308 3.11094 252.308ZM6.97645 234.27C6.61763 235.33 5.14971 239.456 4.08955 241.152C2.75212 243.272 1.67564 245.524 0.892755 247.839C0.566552 248.786 0.713342 249.83 1.2842 250.612C1.74089 251.248 2.4096 251.607 3.11094 251.607C4.51362 251.607 6.25881 251.542 7.48207 251.493C8.36282 251.461 9.17833 250.873 9.60239 249.976C11.6574 245.637 12.8807 242.555 12.9623 241.495C13.0927 239.978 12.8155 236.798 12.6687 235.15L11.3639 237.14C11.2823 237.254 11.1355 237.319 11.005 237.303C10.8582 237.271 10.7441 237.173 10.7114 237.026L10.059 234.285H6.97645V234.27Z" fill="#234092"/>
<path d="M5.88393 250.042H2.75238C2.55666 250.042 2.39355 249.879 2.39355 249.683C2.39355 249.488 2.55666 249.325 2.75238 249.325H5.88393C6.89516 249.325 7.98795 247.872 8.33046 247.318L10.3692 243.355C10.4671 243.175 10.6791 243.11 10.8585 243.208C11.0379 243.306 11.1032 243.518 11.0053 243.698L8.95025 247.677C8.88501 247.775 7.49864 250.042 5.88393 250.042Z" fill="#234092"/>
<path d="M7.62708 245.735H3.6474C3.45168 245.735 3.28857 245.571 3.28857 245.375C3.28857 245.18 3.45168 245.017 3.6474 245.017H7.62708C7.8228 245.017 7.98592 245.18 7.98592 245.375C7.98592 245.571 7.8228 245.735 7.62708 245.735Z" fill="#234092"/>
<path d="M55.8764 131.483C55.8764 131.483 55.4034 167.821 53.8703 191.488C52.3371 215.154 49.336 233.242 49.336 233.242C49.336 233.242 44.1494 235.101 40.7569 234.122C40.7569 234.122 37.9352 213.36 37.2991 206.346C36.663 199.333 38.3593 195.842 38.5061 190.101C38.6529 184.36 36.0269 159.014 36.0269 159.014C36.0269 159.014 16.4873 216.328 14.2528 228.985C14.2528 228.985 9.52287 229.784 6.17928 227.957C6.17928 227.957 6.08142 205.416 6.55442 201.943C7.43517 195.484 12.475 189.139 13.3721 182.289C14.2691 175.439 14.8074 158.231 17.3028 147.923C19.7983 137.615 24.6913 126.019 24.6913 126.019L55.8764 131.483Z" fill="#FBD510"/>
<path d="M23.5765 144.988C23.4297 144.988 23.2992 144.907 23.2503 144.759C23.1687 144.58 23.2666 144.368 23.446 144.286C25.9251 143.276 28.0128 141.595 29.6439 139.312C29.758 139.149 29.9864 139.117 30.1495 139.23C30.3126 139.345 30.3452 139.573 30.231 139.736C28.5185 142.117 26.3329 143.879 23.7069 144.955C23.6743 144.972 23.6254 144.988 23.5765 144.988Z" fill="white"/>
<path d="M53.055 144.841C52.9734 144.841 52.8756 144.808 52.8103 144.743C50.5432 142.606 50.2007 141.252 49.7277 139.377L49.5972 138.871C49.5483 138.676 49.6625 138.48 49.8582 138.431C50.0539 138.382 50.2496 138.496 50.2986 138.691L50.4291 139.214C50.8857 141.041 51.1956 142.231 53.316 144.221C53.4628 144.351 53.4628 144.58 53.3323 144.726C53.2507 144.808 53.1529 144.841 53.055 144.841Z" fill="white"/>
<path d="M109.201 105.42C107.831 105.697 105.27 107.034 104.928 107.377C102.301 110.101 100.752 105.86 100.752 105.86C100.752 105.86 105.466 103.006 108.141 102.598C113.295 101.799 112.055 104.865 109.201 105.42Z" fill="white"/>
<path d="M103.219 108.665C103.089 108.665 102.957 108.649 102.827 108.616C101.278 108.29 100.446 106.072 100.413 105.99C100.348 105.827 100.413 105.648 100.56 105.55C100.756 105.436 105.372 102.647 108.079 102.239C111.374 101.733 111.928 102.793 112.01 103.283C112.189 104.311 110.933 105.452 109.253 105.779C107.932 106.04 105.421 107.377 105.176 107.638C104.54 108.307 103.871 108.665 103.219 108.665ZM101.213 106.007C101.506 106.643 102.158 107.736 102.974 107.899C103.496 108.013 104.067 107.752 104.67 107.115C105.061 106.708 107.737 105.321 109.123 105.045C110.558 104.767 111.39 103.853 111.309 103.381C111.244 103.038 110.525 102.565 108.21 102.924C105.991 103.283 102.24 105.419 101.213 106.007Z" fill="#234092"/>
<path d="M100.362 107.621C100.248 107.621 100.134 107.572 100.069 107.474C99.9547 107.311 99.9877 107.082 100.151 106.969L136.864 81.2148C137.027 81.1006 137.256 81.1333 137.37 81.2964C137.485 81.4595 137.452 81.6878 137.288 81.802L100.574 107.555C100.509 107.588 100.444 107.621 100.362 107.621Z" fill="#234092"/>
<path d="M104.866 101.471C104.099 102.255 102.664 102.972 101.588 103.2C101.132 103.298 100.626 103.363 100.136 103.347C96.3036 103.2 97.2171 108.631 89.0293 109.904C88.7357 109.952 88.3279 114.879 88.3442 116.167C91.6878 114.747 96.1242 111.6 98.2122 112.187C102.061 113.264 103.333 111.274 104.149 110.344C106.269 107.93 103.398 105.582 103.398 105.582C103.398 105.582 103.888 105.5 105.404 104.668C107.737 103.412 108.258 97.9645 104.866 101.471Z" fill="white"/>
<path d="M88.3613 116.526C88.296 116.526 88.2308 116.509 88.1655 116.46C88.0677 116.395 88.0024 116.281 88.0024 116.167C88.0024 115.514 88.1003 113.948 88.2308 112.53C88.5244 109.61 88.6875 109.594 88.9974 109.545C93.5479 108.827 95.1789 106.821 96.4837 105.206C97.4948 103.967 98.3433 102.907 100.169 102.972C100.577 102.988 101.034 102.939 101.524 102.841C102.584 102.613 103.954 101.912 104.606 101.21C105.601 100.183 106.367 99.775 106.971 99.9866C107.199 100.068 107.575 100.313 107.64 101.08C107.722 102.188 106.988 104.212 105.585 104.978C104.899 105.353 104.41 105.582 104.068 105.712C104.525 106.217 105.194 107.098 105.275 108.191C105.34 109.039 105.047 109.839 104.41 110.556C104.345 110.621 104.28 110.703 104.215 110.784C103.399 111.746 101.882 113.557 98.1151 112.497C96.8262 112.138 94.3145 113.476 91.9006 114.764C90.7425 115.384 89.5682 116.004 88.4917 116.46C88.4591 116.509 88.4102 116.526 88.3613 116.526ZM89.2746 110.23C89.0789 110.931 88.7853 113.998 88.7201 115.612C89.6335 115.188 90.6121 114.666 91.5581 114.161C94.2166 112.742 96.7284 111.404 98.3103 111.844C101.637 112.775 102.861 111.322 103.676 110.36C103.742 110.279 103.824 110.197 103.872 110.115C104.378 109.545 104.606 108.925 104.558 108.273C104.443 106.935 103.187 105.875 103.171 105.875C103.057 105.793 103.008 105.647 103.057 105.5C103.09 105.369 103.203 105.255 103.35 105.239C103.35 105.239 103.839 105.124 105.242 104.375C106.367 103.771 106.988 102.058 106.923 101.161C106.906 100.917 106.825 100.737 106.727 100.689C106.678 100.672 106.254 100.557 105.129 101.732C104.362 102.531 102.877 103.315 101.67 103.559C101.116 103.673 100.61 103.722 100.137 103.706C98.6695 103.656 97.9841 104.505 97.0383 105.68C95.7498 107.261 93.972 109.447 89.2746 110.23Z" fill="#234092"/>
<path d="M100.443 109.937C100.411 109.937 100.378 109.937 100.346 109.921C99.4976 109.692 99.1714 109.138 99.0413 108.73C98.7307 107.752 99.2365 106.528 99.8724 105.746C100.493 104.995 101.21 104.621 101.961 104.621C103.347 104.636 104.391 105.974 104.439 106.039C104.554 106.202 104.537 106.43 104.374 106.545C104.211 106.659 103.983 106.643 103.868 106.48C103.853 106.463 102.988 105.37 101.944 105.355C101.422 105.355 100.9 105.631 100.428 106.219C99.8238 106.953 99.5306 107.898 99.7258 108.519C99.8403 108.877 100.101 109.106 100.541 109.236C100.737 109.285 100.851 109.481 100.786 109.677C100.754 109.84 100.606 109.937 100.443 109.937Z" fill="#234092"/>
<path d="M59.4274 91.326C59.4274 91.326 47.7656 89.6623 36.2832 89.3198C36.2832 89.3198 21.1963 129.638 21.1963 132.166C21.1963 134.694 28.4217 140.452 35.5982 135.869C47.5535 128.236 55.0236 130.846 60.9116 132.216C69.7354 134.287 59.4274 91.326 59.4274 91.326Z" fill="white"/>
<path d="M29.9579 137.957C27.5603 137.957 25.6357 137.109 24.6408 136.571C22.4389 135.364 20.8242 133.504 20.8242 132.167C20.8242 129.59 35.324 90.8369 35.9438 89.1896C35.9927 89.0428 36.1395 88.9449 36.2863 88.9612C47.6545 89.2874 59.3489 90.9511 59.463 90.9674C59.6098 90.9837 59.724 91.0979 59.7566 91.2447C60.0991 92.6963 68.2216 126.833 63.1328 131.955C62.513 132.575 61.7302 132.787 60.8005 132.575C60.3927 132.477 59.9687 132.379 59.5446 132.281C53.8523 130.894 46.7574 129.166 35.748 136.18C33.7093 137.5 31.7031 137.957 29.9579 137.957ZM36.5309 89.6952C32.274 101.063 21.5582 130.16 21.5582 132.167C21.5582 133.096 22.8467 134.76 24.9996 135.935C26.598 136.799 30.7897 138.512 35.4055 135.576C46.6595 128.383 53.9176 130.16 59.7566 131.58C60.1807 131.678 60.5884 131.791 60.9962 131.873C61.6649 132.036 62.2032 131.89 62.6435 131.45C67.243 126.817 59.8545 94.7514 59.1368 91.6524C57.408 91.4078 46.8716 90.0051 36.5309 89.6952Z" fill="#234092"/>
<path d="M96.1926 113.836C94.741 115.597 92.0825 119.201 85.9172 121.191C73.5867 125.187 65.9699 117.065 65.9699 117.065L67.03 141.4C67.03 141.4 61.0768 144.939 61.0768 144.612C61.0768 144.286 58.4673 90.3323 58.4673 90.3323C58.4673 90.3323 63.2787 90.4138 65.4153 93.4638C67.5683 96.5138 75.6744 109.138 85.0202 109.284C89.2608 109.35 91.3159 107.605 92.6696 107.115L96.1926 113.836Z" fill="white"/>
<path d="M60.2638 128.025C60.0681 128.025 59.905 127.878 59.905 127.682C59.1384 111.763 58.1108 90.3644 58.1108 90.3644C58.1108 90.2665 58.1435 90.1687 58.2087 90.1034C58.2739 90.0382 58.3718 89.9893 58.4697 89.9893C58.6817 89.9893 63.4932 90.1034 65.7114 93.2676C65.8419 93.447 65.9887 93.6754 66.1681 93.92C68.7125 97.6062 76.4435 108.795 85.0226 108.942C88.1868 108.99 90.0462 108.028 91.4162 107.327C91.8403 107.115 92.1991 106.92 92.5416 106.805C92.7047 106.74 92.9005 106.821 92.982 106.968L96.5213 113.672C96.5866 113.802 96.5703 113.965 96.4887 114.063L96.2277 114.373C94.7435 116.2 91.9545 119.608 86.0339 121.533C83.5873 122.333 81.3039 122.642 79.2325 122.642C72.5617 122.642 67.9948 119.315 66.3638 117.912L66.7226 126.018C66.7389 126.214 66.5758 126.394 66.3801 126.394C66.1844 126.41 66.005 126.247 66.005 126.051L65.6135 117.064C65.6135 116.917 65.6951 116.771 65.8419 116.721C65.9887 116.656 66.1355 116.689 66.2496 116.803C66.3312 116.884 73.8665 124.713 85.8218 120.832C91.5467 118.973 94.2379 115.677 95.6732 113.9L95.771 113.77L92.4927 107.572C92.2644 107.669 92.0197 107.8 91.7424 107.947C90.3887 108.648 88.3499 109.708 85.0063 109.643C76.052 109.496 68.1579 98.0625 65.5646 94.3115C65.4015 94.0668 65.2384 93.8548 65.1242 93.659C63.4443 91.2778 60.0028 90.8048 58.8448 90.7069C58.9916 93.708 59.9213 112.97 60.6226 127.617C60.6389 127.812 60.4758 127.992 60.2801 127.992C60.2638 128.025 60.2638 128.025 60.2638 128.025Z" fill="#234092"/>
<path d="M73.9957 99.239H51.4387C50.7211 99.239 50.0524 99.8419 49.9382 100.576L44.8168 132.169C44.7026 132.903 45.1756 133.506 45.8933 133.506H68.4502C69.1679 133.506 69.8366 132.903 69.9508 132.169L75.0722 100.576C75.1863 99.8419 74.697 99.239 73.9957 99.239Z" fill="white"/>
<path d="M68.4518 133.864H45.8949C45.4545 133.864 45.063 133.686 44.7858 133.375C44.5085 133.049 44.378 132.593 44.4596 132.12L49.581 100.527C49.7277 99.613 50.5433 98.8955 51.4403 98.8955H73.9973C74.4377 98.8955 74.8291 99.0751 75.1064 99.3848C75.3837 99.711 75.5141 100.167 75.4326 100.641L70.3112 132.233C70.1481 133.147 69.3326 133.864 68.4518 133.864ZM51.4403 99.5965C50.9021 99.5965 50.3802 100.07 50.2986 100.625L45.1772 132.217C45.1283 132.478 45.1935 132.723 45.3403 132.886C45.4708 133.049 45.6665 133.13 45.8949 133.13H68.4518C68.9901 133.13 69.512 132.658 69.5935 132.103L74.7149 100.51C74.7639 100.249 74.6986 100.004 74.5518 99.8411C74.4214 99.678 74.2256 99.5965 73.9973 99.5965H51.4403Z" fill="#234092"/>
<path d="M48.0918 112.025L47.7167 114.406C47.6841 115.499 48.6627 116.331 49.7391 116.135L55.6108 115.075C56.5242 114.911 57.356 115.629 57.3071 116.542C57.2744 117.065 57.0461 117.668 56.3937 118.305C56.0838 118.598 50.8809 122.577 46.8685 121.843C46.6891 121.811 42.9378 123.915 42.791 123.817C42.1549 123.361 41.7145 121.925 41.584 120.718C41.5677 120.62 44.6993 118.859 45.0092 117.897C45.3354 116.902 45.0744 116.168 45.4659 114.472C45.9226 112.481 48.0918 112.025 48.0918 112.025Z" fill="white"/>
<path d="M42.7746 124.209C42.6931 124.209 42.6441 124.176 42.5789 124.128C41.796 123.573 41.3556 121.974 41.2252 120.767C41.1925 120.523 41.2904 120.458 41.9754 120.001C42.7257 119.511 44.4872 118.354 44.6666 117.783C44.8134 117.342 44.8297 116.968 44.846 116.478C44.8623 115.956 44.8949 115.304 45.107 114.39C45.6126 112.188 47.9123 111.699 48.0102 111.667C48.1244 111.65 48.2385 111.682 48.3364 111.764C48.4179 111.845 48.4669 111.96 48.4506 112.075L48.0754 114.44C48.0754 114.847 48.2385 115.222 48.5484 115.483C48.8583 115.744 49.2661 115.858 49.6738 115.793L55.5455 114.733C56.1 114.635 56.6546 114.781 57.0623 115.157C57.4701 115.515 57.6821 116.038 57.6658 116.575C57.6169 117.277 57.2744 117.962 56.6383 118.582C56.5894 118.631 51.2233 122.953 46.8848 122.235C46.6564 122.333 45.8899 122.725 45.2538 123.051C43.5086 123.964 43.0193 124.209 42.7746 124.209ZM41.9591 120.882C42.1222 121.991 42.481 123.018 42.8725 123.442C43.2476 123.279 44.2262 122.773 44.9113 122.415C46.7217 121.468 46.738 121.468 46.9174 121.501C50.6361 122.17 55.676 118.484 56.1327 118.043C56.6383 117.554 56.9156 117.033 56.9319 116.51C56.9482 116.184 56.8177 115.891 56.573 115.663C56.3284 115.434 55.9859 115.352 55.6597 115.402L49.788 116.462C49.1682 116.575 48.5484 116.397 48.0754 115.989C47.6024 115.581 47.3415 114.994 47.3578 114.358C47.3578 114.341 47.3578 114.325 47.3578 114.308L47.6351 112.498C47.0316 112.742 46.0856 113.313 45.8083 114.505C45.6126 115.352 45.58 115.939 45.5637 116.462C45.5474 116.983 45.5147 117.424 45.3516 117.962C45.107 118.712 43.7369 119.659 42.3669 120.571C42.2201 120.702 42.0733 120.816 41.9591 120.882Z" fill="#234092"/>
<path d="M42.859 119.054C40.2656 119.478 39.9068 120.75 36.6937 119.332C29.452 116.151 30.8221 105.027 32.0616 99.4984C32.3226 98.3567 32.6325 97.2476 32.975 96.2037C33.6111 94.2791 25.8311 92.5012 24.4611 93.9855C22.7974 95.7796 21.0359 98.047 19.5191 100.82C15.0012 109.088 13.5333 127.585 28.6202 130.929C36.5632 132.69 42.8916 126.182 45.1587 123.376C45.6806 122.74 43.5929 118.924 42.859 119.054Z" fill="white"/>
<path d="M31.3429 131.597C30.4296 131.597 29.4999 131.499 28.5376 131.288C18.3437 129.036 16.3702 120.31 16.0929 115.304C16.0766 115.107 16.2397 114.928 16.4354 114.928C16.6312 114.912 16.8106 115.075 16.8106 115.271C17.0715 120.066 18.9635 128.433 28.6844 130.586C36.448 132.315 42.597 125.97 44.8641 123.165C44.8967 123.067 44.8315 122.497 44.3095 121.436C43.7061 120.213 43.07 119.495 42.8579 119.413C42.1077 119.544 41.5368 119.739 41.0475 119.919C39.8405 120.36 38.8782 120.702 36.5296 119.658C29.8098 116.706 30.3154 107.197 31.2125 101.783C31.2451 101.587 31.4245 101.456 31.6202 101.488C31.8159 101.521 31.9464 101.701 31.9138 101.896C31.0494 107.099 30.5274 116.233 36.8069 118.99C38.8946 119.902 39.6448 119.642 40.7865 119.218C41.3248 119.022 41.9283 118.81 42.7601 118.679C43.2494 118.598 43.8692 119.202 44.5868 120.441C44.913 121.012 45.9406 122.904 45.4023 123.589C43.3635 126.166 38.1443 131.597 31.3429 131.597Z" fill="#234092"/>
<path d="M48.7462 75.4406C48.9746 75.5711 49.2518 75.4732 49.3497 75.2449C49.8227 74.0869 50.573 71.8687 52.1061 71.5099C54.0797 71.0532 57.2601 70.466 57.5374 72.0318C57.7821 73.4018 57.4885 75.7505 58.9238 77.4468C59.0543 77.6099 58.9401 77.8708 58.777 78.0013L57.8799 78.7679C57.6842 78.9147 57.5211 79.404 57.5048 79.6323C57.4396 80.3663 56.673 82.9433 56.412 83.1553C55.9064 83.5468 53.4272 83.4 53.4272 83.4L52.0898 89.2553C52.0083 89.5163 52.1714 89.7936 52.4323 89.8588L54.8136 90.6743C54.8136 90.6743 52.9053 93.3492 46.9521 92.9414C43.1518 92.6805 40.3628 90.0056 40.3628 90.0056C40.3628 90.0056 47.7676 88.9618 48.7625 80.2032C48.7788 80.0075 48.6973 79.8281 48.5505 79.6976C47.9633 79.2572 46.3649 77.9524 46.6422 76.615C46.9358 75.196 47.9796 74.9839 48.7462 75.4406Z" fill="white"/>
<path d="M48.1422 93.3334C47.7508 93.3334 47.343 93.3171 46.919 93.2844C43.0208 93.0235 40.2155 90.3486 40.1013 90.2507C40.0034 90.1529 39.9708 90.0061 40.0034 89.8756C40.0524 89.7451 40.1665 89.6473 40.297 89.631C40.5906 89.582 47.4409 88.5055 48.3869 80.1384C48.3869 80.0732 48.3706 80.0079 48.3053 79.9753C47.4083 79.3066 45.973 77.9692 46.2666 76.5339C46.4623 75.5716 46.9679 75.1638 47.3593 75.0007C47.8486 74.7887 48.4195 74.8376 48.9251 75.1312C48.9414 75.1475 48.974 75.1475 48.974 75.1312C48.9904 75.1312 49.0067 75.1149 49.0067 75.0986L49.1371 74.7724C49.6591 73.4676 50.4256 71.5103 52.024 71.1515C54.7968 70.5154 56.4278 70.4828 57.2759 71.0373C57.6021 71.2657 57.8142 71.5593 57.8794 71.9507C57.9446 72.3095 57.9773 72.7336 57.9936 73.174C58.0751 74.4462 58.1893 76.012 59.1842 77.2026C59.2984 77.3331 59.3473 77.5125 59.331 77.6756C59.2984 77.9039 59.1679 78.116 58.9885 78.2628L58.0914 79.013C58.0099 79.0946 57.8631 79.4371 57.8468 79.6491C57.7815 80.2363 57.0476 83.0743 56.6235 83.4168C56.1342 83.8082 54.5195 83.7919 53.704 83.7593L52.4481 89.3211C52.4318 89.3863 52.4481 89.4189 52.4481 89.4352C52.4644 89.4515 52.4807 89.4842 52.5134 89.4842L54.911 90.2997C55.0251 90.3323 55.1067 90.4301 55.1393 90.528C55.1719 90.6422 55.1556 90.7564 55.0904 90.8542C55.0251 90.9684 53.2799 93.3334 48.1422 93.3334ZM41.1288 90.1692C42.0911 90.9195 44.2767 92.3874 46.9679 92.5668C51.2901 92.8604 53.3941 91.5066 54.1607 90.8216L52.3176 90.1855C52.1219 90.1366 51.9425 89.9898 51.8283 89.7941C51.7142 89.5983 51.6815 89.3537 51.7468 89.1416L53.0679 83.3026C53.1005 83.1232 53.2636 83.009 53.443 83.0253C54.6663 83.1069 55.9059 83.0253 56.1668 82.8785C56.3789 82.5523 57.0639 80.3341 57.1454 79.6002C57.1781 79.3229 57.3575 78.7194 57.6674 78.4748L58.5644 77.7245C58.5971 77.6919 58.6297 77.6593 58.646 77.643C57.5206 76.2892 57.4064 74.593 57.3249 73.2392C57.2922 72.8152 57.2759 72.4074 57.2107 72.0975C57.1781 71.9181 57.0802 71.7713 56.9171 71.6571C56.2647 71.2331 54.6826 71.2983 52.2198 71.8692C50.9965 72.1464 50.3115 73.9079 49.8548 75.066L49.7243 75.3922C49.6428 75.6042 49.4633 75.7673 49.2513 75.8325C49.0393 75.8978 48.7946 75.8815 48.5989 75.7673C48.289 75.5879 47.9628 75.5553 47.6855 75.6694C47.3593 75.8162 47.131 76.175 47.0168 76.697C46.7885 77.7734 48.1748 78.9478 48.7783 79.4045C49.0393 79.6002 49.1698 79.9101 49.1371 80.2363C48.2727 87.4943 43.0698 89.631 41.1288 90.1692Z" fill="#234092"/>
<path d="M200.608 234.646L170.01 262.177L85.2459 261.917C85.1643 261.917 85.1154 261.819 85.1806 261.769L115.68 234.336L200.51 234.384C200.64 234.384 200.706 234.548 200.608 234.646Z" fill="white"/>
<path d="M169.995 262.536L85.2316 262.275C85.0359 262.275 84.8728 262.16 84.8076 261.982C84.7423 261.802 84.7913 261.622 84.9218 261.492L115.422 234.058C115.487 233.993 115.569 233.96 115.667 233.96L200.495 234.01C200.725 234.01 200.92 234.14 200.985 234.336C201.066 234.531 201.001 234.744 200.855 234.89L170.24 262.438C170.175 262.503 170.093 262.536 169.995 262.536ZM85.933 261.557L169.865 261.819L199.958 234.759L115.797 234.711L85.933 261.557Z" fill="#234092"/>
<path d="M200.737 234.4V270.951L170.237 298.418C170.155 298.499 170.008 298.434 170.008 298.336V262.177C169.992 262.177 200.296 234.433 200.737 234.4Z" fill="white"/>
<path d="M170.142 298.81C170.077 298.81 169.995 298.793 169.93 298.761C169.751 298.68 169.637 298.516 169.637 298.32V262.16C169.637 262.063 169.686 261.965 169.751 261.9C200.153 234.075 200.545 234.058 200.724 234.042C200.822 234.042 200.92 234.075 200.985 234.14C201.05 234.205 201.099 234.303 201.099 234.401V270.952C201.099 271.049 201.05 271.147 200.985 271.212L170.485 298.68C170.387 298.777 170.257 298.81 170.142 298.81ZM170.371 262.323V297.815L200.397 270.789V235.135C196.924 238.071 178.052 255.294 170.371 262.323Z" fill="#234092"/>
<path d="M169.998 298.598L85.1201 298.337C85.2995 298.5 85.1854 261.965 85.1854 261.965L169.998 262.161C169.998 262.177 169.998 298.696 169.998 298.598Z" fill="white"/>
<path d="M169.999 298.957L85.1367 298.696C85.0388 298.696 84.9573 298.663 84.8757 298.598C84.7616 298.5 84.7289 298.353 84.7779 298.223C84.9084 296.902 84.8594 271.67 84.8268 261.965C84.8268 261.868 84.8594 261.77 84.9247 261.705C84.9899 261.639 85.0715 261.607 85.1856 261.607L169.999 261.802C170.194 261.802 170.357 261.965 170.357 262.161V298.582C170.357 298.68 170.325 298.778 170.244 298.843C170.194 298.924 170.096 298.957 169.999 298.957ZM85.5118 297.979L169.64 298.24V262.536L85.5445 262.341C85.5445 264.119 85.5771 272.127 85.5771 280.135C85.5771 285.403 85.5771 289.611 85.5608 292.628C85.5608 295.809 85.5608 297.277 85.5118 297.979Z" fill="#234092"/>
<path d="M143.644 283.494C143.546 283.494 143.448 283.462 143.383 283.38C143.252 283.232 143.269 283.004 143.415 282.874L151.147 275.926C151.294 275.796 151.522 275.811 151.652 275.959C151.783 276.105 151.767 276.334 151.62 276.464L143.889 283.412C143.808 283.461 143.726 283.494 143.644 283.494Z" fill="#234092"/>
<path d="M298.207 199.334L267.316 227.127L183.678 226.865C183.546 226.865 183.498 226.735 183.579 226.654L214.014 199.285L298.207 199.334Z" fill="white"/>
<path d="M267.316 227.468L183.676 227.208C183.465 227.208 183.285 227.077 183.204 226.897C183.139 226.719 183.187 226.506 183.334 226.376L213.769 199.007C213.834 198.942 213.915 198.91 214.013 198.91L298.223 198.958C298.37 198.958 298.5 199.056 298.565 199.187C298.615 199.333 298.582 199.481 298.468 199.578L267.576 227.371C267.479 227.436 267.397 227.468 267.316 227.468ZM184.264 226.49L267.168 226.751L297.26 199.692L214.128 199.644L184.264 226.49Z" fill="#234092"/>
<path d="M298.209 199.352V270.48L267.774 297.865C267.66 297.963 267.464 297.897 267.464 297.751V227.127C267.464 227.111 297.769 199.368 298.209 199.352Z" fill="white"/>
<path d="M267.646 298.272C267.564 298.272 267.483 298.255 267.418 298.223C267.222 298.142 267.108 297.946 267.108 297.749V227.126C267.108 227.029 267.156 226.931 267.222 226.866C297.624 199.041 298.016 199.024 298.195 199.008C298.293 199.008 298.39 199.041 298.456 199.106C298.522 199.171 298.57 199.269 298.57 199.367V270.496C298.57 270.593 298.522 270.691 298.456 270.756L268.038 298.142C267.923 298.223 267.793 298.272 267.646 298.272ZM267.825 227.274V297.326L297.853 270.3V200.068C294.394 203.004 275.508 220.228 267.825 227.274Z" fill="#234092"/>
<path d="M267.461 297.913L183.464 297.651C183.643 297.815 183.529 226.914 183.529 226.914L267.461 227.11C267.461 227.11 267.461 297.994 267.461 297.913Z" fill="white"/>
<path d="M267.465 298.271L183.483 298.01C183.386 298.01 183.305 297.978 183.239 297.912C183.141 297.815 183.092 297.683 183.125 297.553C183.255 295.954 183.223 250.727 183.173 226.897C183.173 226.799 183.206 226.702 183.272 226.636C183.337 226.571 183.435 226.539 183.533 226.539L267.465 226.734C267.66 226.734 267.823 226.897 267.823 227.093V297.88C267.823 297.978 267.791 298.075 267.71 298.141C267.644 298.222 267.562 298.271 267.465 298.271ZM183.842 297.292L267.106 297.553V227.485L183.891 227.289C183.891 229.883 183.924 246.078 183.924 262.258C183.924 272.517 183.924 280.704 183.907 286.576C183.907 289.888 183.891 292.66 183.875 294.601C183.875 296.02 183.859 296.819 183.842 297.292Z" fill="#234092"/>
<path d="M219.204 270.332C219.106 270.332 219.007 270.299 218.942 270.217C218.812 270.071 218.828 269.843 218.975 269.711L243.293 247.839C243.441 247.709 243.669 247.726 243.799 247.872C243.93 248.019 243.913 248.247 243.767 248.378L219.448 270.25C219.383 270.299 219.285 270.332 219.204 270.332Z" fill="#234092"/>
<path d="M218.339 253.859C218.24 253.859 218.143 253.826 218.077 253.744C217.947 253.598 217.964 253.369 218.11 253.238L225.841 246.291C225.988 246.16 226.217 246.176 226.347 246.323C226.477 246.471 226.462 246.699 226.314 246.829L218.583 253.777C218.518 253.826 218.437 253.859 218.339 253.859Z" fill="#234092"/>
<path d="M284.201 127.943H192.979C191.641 127.943 190.581 129.101 190.729 130.438L199.438 216.279C199.47 216.605 199.748 216.85 200.074 216.85L204.787 216.752C204.983 216.752 205.13 216.589 205.114 216.393L199.373 136.571C199.275 135.25 200.319 134.141 201.64 134.141L275.672 134.239C276.993 134.239 278.037 135.364 277.922 136.686L271.822 216.1C271.79 216.507 272.116 216.867 272.524 216.882L276.634 216.997C276.928 216.997 277.173 216.785 277.205 216.491L286.42 130.471C286.599 129.101 285.556 127.943 284.201 127.943Z" fill="white"/>
<path d="M276.679 217.323C276.663 217.323 276.663 217.323 276.646 217.323L272.537 217.208C272.243 217.208 271.966 217.078 271.753 216.85C271.558 216.621 271.46 216.344 271.477 216.034L277.576 136.62C277.625 136.082 277.446 135.576 277.071 135.185C276.712 134.793 276.207 134.581 275.668 134.581L201.636 134.484C201.098 134.484 200.609 134.695 200.25 135.087C199.891 135.478 199.712 135.984 199.744 136.522L205.485 216.344C205.502 216.539 205.437 216.719 205.306 216.866C205.176 217.012 204.996 217.094 204.8 217.094L200.087 217.192C199.581 217.208 199.124 216.817 199.076 216.295L190.366 130.455C190.284 129.721 190.529 128.97 191.034 128.432C191.54 127.894 192.241 127.567 192.975 127.567H284.199C284.949 127.567 285.65 127.878 286.156 128.432C286.662 128.987 286.89 129.721 286.808 130.471L277.593 216.491C277.543 216.964 277.152 217.323 276.679 217.323ZM201.636 133.765L275.684 133.863C276.418 133.863 277.12 134.173 277.609 134.712C278.099 135.25 278.359 135.967 278.294 136.701L272.194 216.115C272.194 216.213 272.227 216.311 272.292 216.393C272.357 216.474 272.455 216.507 272.553 216.507L276.663 216.621C276.777 216.621 276.859 216.539 276.876 216.442L286.091 130.422C286.156 129.884 285.976 129.346 285.617 128.938C285.259 128.53 284.736 128.301 284.199 128.301H192.975C192.437 128.301 191.915 128.53 191.557 128.922C191.198 129.313 191.018 129.851 191.067 130.39L199.777 216.23C199.793 216.376 199.923 216.474 200.055 216.474L204.768 216.376L199.01 136.571C198.961 135.854 199.206 135.12 199.712 134.597C200.218 134.076 200.919 133.765 201.636 133.765Z" fill="#234092"/>
<path d="M267.679 132.951C267.483 132.951 267.32 132.788 267.32 132.591V128.71C267.32 128.514 267.483 128.351 267.679 128.351C267.875 128.351 268.038 128.514 268.038 128.71V132.591C268.038 132.788 267.875 132.951 267.679 132.951Z" fill="white"/>
<path d="M222.077 201.354L220.3 210.194C220.235 210.487 219.957 210.7 219.696 210.635L214.51 209.314C214.281 209.264 214.15 209.019 214.2 208.759L215.7 200.864L222.077 201.354Z" fill="white"/>
<path d="M219.809 211.01C219.744 211.01 219.678 211.01 219.613 210.994L214.427 209.673C214.019 209.575 213.774 209.15 213.856 208.71L215.356 200.817C215.389 200.637 215.552 200.506 215.732 200.522L222.109 201.012C222.207 201.012 222.304 201.077 222.369 201.158C222.435 201.24 222.452 201.338 222.435 201.452L220.657 210.292C220.608 210.553 220.462 210.766 220.249 210.896C220.102 210.961 219.956 211.01 219.809 211.01ZM215.993 201.24L214.557 208.824C214.54 208.89 214.573 208.955 214.606 208.955L219.793 210.276C219.809 210.276 219.841 210.26 219.858 210.26C219.907 210.227 219.939 210.178 219.956 210.113L221.652 201.664L215.993 201.24Z" fill="#234092"/>
<path d="M238.804 193.771L243.175 200.963L238.167 203.606L233.682 197.18L238.804 193.771Z" fill="white"/>
<path d="M238.167 203.964C238.053 203.964 237.939 203.916 237.874 203.818L233.372 197.392C233.324 197.31 233.291 197.212 233.307 197.114C233.324 197.017 233.389 196.935 233.454 196.886L238.575 193.477C238.656 193.429 238.754 193.412 238.852 193.429C238.951 193.444 239.032 193.51 239.081 193.592L243.452 200.784C243.501 200.865 243.517 200.963 243.484 201.061C243.452 201.159 243.386 201.241 243.305 201.289L238.315 203.932C238.298 203.949 238.233 203.964 238.167 203.964ZM234.188 197.277L238.298 203.149L242.669 200.833L238.689 194.293L234.188 197.277Z" fill="#234092"/>
<path d="M222.141 206.315C222.5 207.586 223.251 211.175 223.561 213.328C223.757 214.681 222.908 215.954 221.587 216.312C217.885 217.307 209.044 217.275 201.688 217.602C201.183 217.617 200.253 217.372 199.846 216.149C198.443 212.007 206.174 210.718 213.823 206.511C213.971 206.429 214.149 206.429 214.297 206.543C214.378 206.608 214.492 206.689 214.623 206.771C215.96 207.619 218.162 207.619 219.516 206.804L221.049 205.89C221.473 205.629 222.011 205.842 222.141 206.315Z" fill="white"/>
<path d="M201.636 217.96C200.902 217.96 199.94 217.519 199.516 216.264C198.439 213.067 202.207 211.436 206.97 209.364C209.025 208.467 211.357 207.456 213.657 206.2C213.934 206.053 214.26 206.069 214.521 206.248C214.603 206.313 214.717 206.379 214.831 206.461C216.038 207.227 218.093 207.243 219.349 206.493L220.882 205.579C221.176 205.401 221.534 205.368 221.861 205.498C222.187 205.629 222.415 205.89 222.513 206.232C222.889 207.553 223.623 211.141 223.932 213.295C224.161 214.828 223.198 216.279 221.698 216.687C218.908 217.437 213.396 217.6 207.557 217.78C205.615 217.845 203.61 217.895 201.734 217.976C201.686 217.96 201.669 217.96 201.636 217.96ZM214.048 206.819C214.032 206.819 214.015 206.819 214 206.836C211.667 208.124 209.318 209.136 207.247 210.033C202.19 212.218 199.353 213.588 200.185 216.034C200.592 217.226 201.489 217.242 201.669 217.242C203.561 217.161 205.567 217.095 207.508 217.046C213.053 216.883 218.778 216.703 221.486 215.969C222.628 215.66 223.362 214.551 223.182 213.376C222.889 211.305 222.138 207.7 221.779 206.411C221.747 206.298 221.665 206.2 221.551 206.167C221.436 206.118 221.323 206.135 221.225 206.2L219.692 207.113C218.224 207.994 215.859 207.977 214.423 207.08C214.293 206.999 214.163 206.917 214.081 206.852C214.081 206.819 214.065 206.819 214.048 206.819Z" fill="#234092"/>
<path d="M223.786 214.305C223.786 214.337 223.802 214.37 223.802 214.386C223.998 215.739 222.709 216.572 221.486 217.142C217.848 218.855 203.121 217.876 202.566 217.828C202.55 217.828 202.55 217.828 202.533 217.828C202.354 217.828 200.478 217.828 199.94 216.67C199.875 216.523 199.826 216.327 199.81 216.131C199.76 215.821 199.794 215.511 199.859 215.202C199.907 214.957 200.152 214.794 200.413 214.859C203.137 215.56 209.547 216.017 215.891 215.087C218.224 214.744 221.975 213.701 222.954 213.113C223.215 212.95 223.557 213.113 223.623 213.424C223.655 213.669 223.72 213.978 223.786 214.305Z" fill="white"/>
<path d="M211.779 218.497C207.229 218.497 202.875 218.204 202.532 218.187C202.304 218.187 200.232 218.187 199.613 216.817C199.531 216.654 199.482 216.442 199.45 216.181C199.4 215.839 199.417 215.479 199.498 215.121C199.547 214.909 199.678 214.713 199.873 214.599C200.053 214.485 200.281 214.452 200.493 214.501C202.858 215.105 209.121 215.708 215.825 214.73C218.108 214.404 221.795 213.359 222.757 212.805C222.985 212.675 223.263 212.658 223.491 212.756C223.735 212.87 223.915 213.082 223.964 213.343L224.143 214.241C224.16 214.289 224.16 214.322 224.16 214.338C224.404 215.985 222.838 216.915 221.647 217.47C219.903 218.269 215.76 218.497 211.779 218.497ZM202.516 217.47C202.532 217.47 202.564 217.47 202.581 217.47C207.817 217.829 218.483 218.138 221.321 216.817C222.92 216.067 223.556 215.333 223.426 214.436L223.409 214.371L223.23 213.474C223.213 213.425 223.197 213.409 223.181 213.409C223.165 213.409 223.132 213.392 223.1 213.409C222.071 214.028 218.304 215.088 215.907 215.431C209.822 216.311 203.315 215.969 200.281 215.203C200.265 215.203 200.232 215.203 200.216 215.219C200.199 215.219 200.184 215.251 200.167 215.284C200.102 215.561 200.086 215.839 200.118 216.083C200.151 216.344 200.199 216.458 200.216 216.524C200.705 217.486 202.434 217.47 202.516 217.47Z" fill="#234092"/>
<path d="M213.316 210.212C213.234 210.212 213.169 210.197 213.104 210.131L210.869 208.435C210.706 208.321 210.673 208.092 210.804 207.929C210.918 207.766 211.147 207.734 211.31 207.864L213.544 209.56C213.707 209.674 213.74 209.903 213.609 210.066C213.527 210.164 213.414 210.212 213.316 210.212Z" fill="#234092"/>
<path d="M210.346 211.436C210.264 211.436 210.199 211.419 210.134 211.371L208.177 209.903C208.014 209.788 207.981 209.56 208.111 209.397C208.225 209.234 208.454 209.202 208.617 209.332L210.574 210.8C210.737 210.914 210.77 211.143 210.639 211.306C210.557 211.387 210.46 211.436 210.346 211.436Z" fill="#234092"/>
<path d="M237.843 202.072L243.584 201.24L246.977 208.433C247.482 209.509 247.075 210.911 246.064 211.548C244.743 212.379 242.785 213.472 240.519 214.19C236.261 215.56 232.004 219.491 228.351 217.55C224.681 215.626 224.926 215.478 224.746 214.158C224.567 212.836 228.188 210.227 230.651 208.514C232.673 207.128 237.843 202.072 237.843 202.072Z" fill="white"/>
<path d="M230.523 218.448C229.74 218.448 228.957 218.285 228.207 217.894C224.749 216.066 224.602 215.74 224.456 214.484C224.439 214.402 224.439 214.321 224.423 214.224C224.243 212.886 226.706 210.864 230.474 208.238C232.431 206.868 237.552 201.86 237.618 201.812C237.667 201.762 237.749 201.73 237.814 201.714L243.554 200.882C243.717 200.865 243.865 200.947 243.93 201.078L247.322 208.271C247.893 209.509 247.437 211.125 246.278 211.842C244.99 212.658 242.983 213.783 240.651 214.517C239.33 214.941 237.993 215.626 236.688 216.295C234.633 217.371 232.529 218.448 230.523 218.448ZM238.025 202.414C237.324 203.1 232.774 207.52 230.882 208.825C229.414 209.852 224.961 212.951 225.124 214.126C225.14 214.224 225.14 214.305 225.157 214.387C225.271 215.333 225.303 215.544 228.533 217.241C230.882 218.48 233.54 217.11 236.362 215.675C237.683 214.99 239.053 214.305 240.423 213.865C242.674 213.147 244.631 212.054 245.887 211.255C246.735 210.717 247.094 209.526 246.653 208.597L243.376 201.648L238.025 202.414Z" fill="#234092"/>
<path d="M235.971 208.319C235.906 208.319 235.841 208.303 235.776 208.254L233.183 206.574C233.02 206.46 232.97 206.247 233.085 206.069C233.198 205.906 233.411 205.856 233.591 205.971L236.184 207.65C236.347 207.765 236.395 207.977 236.282 208.156C236.2 208.254 236.086 208.319 235.971 208.319Z" fill="#234092"/>
<path d="M234.128 210.243C234.063 210.243 233.997 210.228 233.932 210.178L231.339 208.499C231.176 208.384 231.128 208.173 231.241 207.993C231.356 207.83 231.567 207.781 231.747 207.895L234.34 209.575C234.503 209.689 234.553 209.902 234.438 210.08C234.357 210.195 234.242 210.243 234.128 210.243Z" fill="#234092"/>
<path d="M225.028 215.17C225.028 215.17 227.915 217.275 231.079 216.182C234.243 215.089 246.998 208.37 246.998 208.37L247.65 209.805C247.977 210.538 247.699 211.404 246.998 211.795C243.818 213.589 235.353 218.139 230.933 218.449C225.436 218.825 225.028 215.17 225.028 215.17Z" fill="white"/>
<path d="M230.164 218.84C225.124 218.84 224.651 215.252 224.651 215.219C224.634 215.073 224.7 214.942 224.831 214.86C224.961 214.795 225.108 214.795 225.222 214.876C225.255 214.893 227.995 216.85 230.947 215.839C234.062 214.763 246.686 208.124 246.816 208.043C246.898 207.994 247.012 207.994 247.094 208.026C247.192 208.059 247.257 208.124 247.306 208.222L247.958 209.657C248.366 210.554 248.007 211.631 247.159 212.12C243.767 214.029 235.384 218.514 230.947 218.807C230.686 218.824 230.425 218.84 230.164 218.84ZM225.663 215.97C226.152 216.932 227.457 218.335 230.914 218.09C235.221 217.796 243.473 213.377 246.816 211.484C247.355 211.175 247.583 210.506 247.322 209.951L246.816 208.858C244.729 209.951 234.094 215.512 231.192 216.507C228.908 217.306 226.788 216.54 225.663 215.97Z" fill="#234092"/>
<path d="M234.01 144.905C234.01 144.905 214.209 152.962 206.918 161.802C199.938 170.25 231.367 200.962 231.367 200.962C231.4 201.11 242.05 195.09 242.05 194.912L233.895 177.134C230.683 170.202 224.24 166.238 226.865 163.791C229.247 161.573 242.523 162.715 249.341 162.487C261.443 162.062 261.329 144.415 261.329 144.415L234.01 144.905Z" fill="white"/>
<path d="M231.388 201.321C231.29 201.321 231.192 201.289 231.127 201.208C229.838 199.952 199.533 170.185 206.645 161.574C213.919 152.767 233.688 144.66 233.883 144.578C233.932 144.562 233.964 144.546 234.014 144.546L261.334 144.057C261.431 144.057 261.529 144.089 261.594 144.154C261.66 144.22 261.708 144.317 261.708 144.415C261.708 144.595 261.675 162.422 249.378 162.846C247.42 162.911 244.957 162.862 242.348 162.814C236.281 162.699 228.745 162.569 227.147 164.053C225.924 165.194 227.082 166.76 229.398 169.68C230.947 171.621 232.888 174.051 234.259 176.971L242.414 194.749C242.429 194.797 242.446 194.847 242.446 194.895C242.446 195.157 242.446 195.238 237.063 198.288C234.666 199.642 231.746 201.273 231.453 201.306C231.42 201.321 231.404 201.321 231.388 201.321ZM234.096 145.264C232.872 145.77 214.164 153.599 207.199 162.03C200.757 169.827 229.023 198.125 231.469 200.539C232.806 199.903 240.26 195.679 241.614 194.797L233.59 177.28C232.268 174.426 230.36 172.045 228.827 170.137C226.608 167.364 224.864 165.179 226.641 163.531C228.452 161.851 235.514 161.982 242.348 162.095C244.942 162.145 247.404 162.193 249.346 162.128C260.012 161.754 260.909 147.286 260.974 144.791L234.096 145.264Z" fill="#234092"/>
<path d="M217.148 166.826C215.436 173.22 213.821 192.45 213.446 203.198C213.446 203.345 224.341 203.443 224.358 203.263C224.471 202.317 232.529 173.204 237.015 165.489C239.412 161.395 254.825 162.569 258.266 161.885C267.449 160.058 266.846 141.529 266.846 141.529L223.852 158.704C220.182 159.259 218.127 163.205 217.148 166.826Z" fill="white"/>
<path d="M221.409 203.736C220.904 203.736 220.316 203.736 219.647 203.736C217.364 203.72 214.575 203.687 213.678 203.606C213.433 203.589 213.075 203.557 213.075 203.198C213.449 192.629 215.08 173.171 216.793 166.745C217.56 163.907 219.468 159.046 223.758 158.362L266.702 141.203C266.817 141.154 266.93 141.171 267.028 141.236C267.126 141.301 267.192 141.416 267.192 141.529C267.225 142.296 267.697 160.4 258.319 162.26C257.34 162.456 255.481 162.504 253.148 162.553C247.489 162.7 238.943 162.912 237.312 165.685C232.827 173.35 224.818 202.268 224.687 203.313C224.687 203.654 224.671 203.736 221.409 203.736ZM213.825 202.888C215.407 203.002 222.714 203.051 224.068 202.953C224.802 199.789 232.451 172.616 236.724 165.31C238.551 162.178 247 161.982 253.165 161.819C255.383 161.77 257.292 161.722 258.204 161.526C266.148 159.943 266.507 145.036 266.507 142.051L224.003 159.031C223.97 159.046 223.953 159.046 223.921 159.046C220.007 159.633 218.229 164.233 217.51 166.908C215.814 173.236 214.216 192.287 213.825 202.888Z" fill="#234092"/>
<path d="M269.599 112.173C269.599 112.173 269.224 97.3792 260.531 94.5086C259.797 94.264 259.014 94.1498 258.247 94.1172L250.581 93.8236C248.298 93.8073 246.422 94.3618 243.976 95.2426C241.937 95.9928 239.67 97.3792 238.349 98.5858C232.51 103.887 232.461 121.681 227.404 121.257C225.708 121.11 222.871 118.289 220.065 114.814C217.814 112.042 213.949 108.633 213.949 108.633L207.196 112.042C208.794 114.766 210.247 117.572 211.42 120.507C213.883 126.624 217.945 131.777 223.017 136.165C224.697 137.633 227.095 137.926 229.085 136.931C232.314 135.317 237.158 132.724 240.176 130.261C241.285 134.093 240.289 138.269 237.566 141.221C236.751 142.102 235.854 142.917 234.924 143.586C234.01 144.239 233.782 145.527 234.418 146.473C235.429 147.99 237.468 149.718 241.35 149.31C246.439 148.773 260.938 148.838 267.348 148.887C269.045 148.903 270.415 147.501 270.382 145.772L269.599 112.173Z" fill="#234092"/>
<path d="M240.078 130.717C239.963 130.717 239.865 130.668 239.8 130.587C239.67 130.423 239.702 130.195 239.865 130.081C240.73 129.396 243.372 126.95 244.758 124.927C244.873 124.763 245.101 124.715 245.264 124.829C245.427 124.943 245.476 125.171 245.362 125.334C243.926 127.439 241.22 129.951 240.322 130.652C240.241 130.701 240.159 130.717 240.078 130.717Z" fill="white"/>
<path d="M213.097 108.844L212.069 103.265C212.069 103.265 211.221 99.0089 210.193 98.4381C209.443 98.0138 208.938 99.5953 209.084 101.602C209.116 101.928 208.66 102.058 208.53 101.749C207.991 100.558 207.437 99.172 207.388 98.4381C207.29 97.0187 207.013 94.0829 205.708 94.3764C204.403 94.6537 202.055 99.2041 203.832 103.07C205.61 106.951 209.737 110.54 209.737 110.54L213.097 108.844Z" fill="white"/>
<path d="M209.723 110.915C209.642 110.915 209.56 110.883 209.479 110.834C209.316 110.687 205.271 107.148 203.492 103.233C202.319 100.673 202.857 97.8187 203.77 96.0082C204.324 94.8991 205.026 94.1488 205.629 94.0184C205.956 93.9531 206.265 94.0184 206.543 94.2141C207.212 94.7197 207.603 96.0571 207.75 98.4061C207.783 98.9109 208.125 99.906 208.712 101.244C208.663 100.004 208.843 98.5692 209.527 98.1284C209.788 97.9653 210.083 97.9488 210.359 98.1119C211.484 98.7323 212.268 102.451 212.415 103.185L213.442 108.763C213.475 108.926 213.393 109.073 213.247 109.154L209.87 110.85C209.838 110.899 209.772 110.915 209.723 110.915ZM205.874 94.7197C205.842 94.7197 205.809 94.7197 205.776 94.736C205.466 94.8012 204.912 95.3232 204.423 96.3344C203.591 97.9983 203.085 100.591 204.161 102.923C205.679 106.235 208.989 109.382 209.788 110.116L212.692 108.648L211.714 103.331C211.371 101.635 210.637 99.0905 210.017 98.7643C209.951 98.7323 209.935 98.7478 209.919 98.7478C209.658 98.9274 209.316 99.9391 209.446 101.57C209.479 101.896 209.267 102.173 208.956 102.255C208.647 102.336 208.337 102.189 208.19 101.896C207.456 100.265 207.049 99.107 207.016 98.4711C206.853 95.894 206.413 95.0459 206.087 94.8012C206.021 94.7523 205.956 94.7197 205.874 94.7197Z" fill="#234092"/>
<path d="M247.855 96.1066C247.643 96.074 247.595 95.7804 247.773 95.6662C248.41 95.2911 249.323 94.6224 249.258 93.8232L249.389 90.6916C249.372 90.3165 249.128 89.974 248.768 89.8598L246.518 89.1747C246.175 89.0769 245.931 88.7507 245.947 88.3756L246.012 85.0646L244.919 84.1838C244.838 84.1186 244.822 83.9881 244.887 83.9066L246.469 81.8189C246.974 81.036 247.447 79.1929 247.904 79.3071C247.904 79.3071 257.233 77.8392 257.984 82.4713C258.098 83.1726 257.919 83.9066 257.527 84.51L256.744 85.717C255.945 86.9403 255.57 88.3919 255.782 89.8435C255.847 90.3001 256.907 94.4592 256.907 94.4592C256.907 94.4592 258.783 95.3074 259.924 95.6173C260.169 95.6825 260.186 96.0413 259.941 96.1229L257.854 96.6285C255.765 97.1178 253.597 97.1667 251.476 96.7916L247.855 96.1066Z" fill="white"/>
<path d="M254.284 97.3949C253.321 97.3949 252.359 97.3133 251.413 97.1339L247.792 96.4652C247.547 96.4163 247.352 96.2205 247.319 95.9759C247.271 95.7312 247.384 95.4866 247.612 95.3561C248.477 94.8505 248.95 94.3122 248.917 93.8393C248.917 93.8229 248.917 93.8066 248.917 93.7903L249.048 90.6588C249.048 90.463 248.902 90.2673 248.672 90.2021L246.422 89.5171C245.916 89.3703 245.574 88.8973 245.59 88.359L245.655 85.2112L244.709 84.4446C244.465 84.2489 244.432 83.9064 244.611 83.6617L246.194 81.574C246.357 81.3293 246.537 80.889 246.715 80.4649C247.091 79.5678 247.401 78.8502 247.923 78.8991C248.787 78.7686 257.578 77.578 258.361 82.3732C258.492 83.1561 258.312 83.9716 257.856 84.6566L257.072 85.8636C256.29 87.0542 255.98 88.4243 256.16 89.7291C256.208 90.039 256.812 92.4692 257.235 94.1328C257.709 94.3449 259.127 94.9483 260.041 95.2093C260.302 95.2746 260.482 95.5192 260.497 95.7802C260.514 96.0574 260.351 96.3021 260.09 96.3999C260.074 96.3999 260.058 96.4163 260.058 96.4163L257.969 96.9219C256.73 97.2481 255.507 97.3949 254.284 97.3949ZM248.249 95.8128L251.543 96.4163C253.615 96.7914 255.719 96.7425 257.774 96.2532L259.487 95.8454C258.345 95.4866 256.828 94.8015 256.763 94.7689C256.664 94.72 256.583 94.6384 256.567 94.5243C256.453 94.1002 255.507 90.3326 255.441 89.8759C255.23 88.3917 255.589 86.8422 256.469 85.5047L257.252 84.2978C257.611 83.7596 257.741 83.1235 257.643 82.52C256.959 78.2956 248.07 79.6331 247.988 79.6494C247.972 79.6494 247.955 79.6494 247.955 79.6494C247.808 79.7962 247.564 80.3834 247.401 80.7585C247.205 81.2152 247.026 81.6719 246.813 81.9981L245.313 83.9716L246.292 84.7545C246.374 84.8197 246.422 84.9339 246.422 85.0481L246.357 88.359C246.357 88.5548 246.487 88.7505 246.683 88.7994L248.934 89.4844C249.439 89.6475 249.799 90.1042 249.814 90.6425L249.684 93.774C249.684 94.6711 248.967 95.3561 248.249 95.8128Z" fill="#234092"/>
<path d="M247.305 72.0975C249.457 71.9017 246.816 74.2178 254.726 71.6082C257.873 70.5643 256.389 74.3483 257.205 74.071C260.222 73.0761 260.125 73.1087 261.625 73.4512C262.62 73.6795 263.321 75.4737 263.191 76.8437C263.011 78.6542 261.103 81.59 259.406 84.6726C258.526 86.271 256.878 86.483 254.758 84.2486C254.53 84.0039 255.574 82.5034 254.971 81.8999C253.421 80.3341 252.867 82.8296 251.627 82.1119C250.452 81.4269 249.947 80.9702 248.691 79.9263C247.158 78.6542 244.777 80.8397 243.798 77.8713C243.276 76.3218 244.353 72.3747 247.305 72.0975Z" fill="#234092"/>
<path d="M268.375 210.605H255.262V163.224H248.509V210.605H235.395C231.384 210.605 228.137 213.85 228.137 217.863V219.184H275.633V217.863C275.633 213.85 272.387 210.605 268.375 210.605Z" fill="#234092"/>
<path d="M272.03 113.233H268.638C259.586 113.233 251.757 119.594 249.832 128.515L245.885 146.734C244.955 150.991 241.22 154.04 236.898 154.04H229.77C226.035 154.04 223.018 157.091 223.018 160.859C223.018 164.626 226.035 167.676 229.77 167.676H241.351V167.709H261.738C268.866 167.709 275.048 162.701 276.564 155.655L282.828 126.754C284.311 119.806 279.077 113.233 272.03 113.233Z" fill="white"/>
<path d="M261.725 168.067H241.338C241.289 168.067 241.24 168.051 241.191 168.034H229.757C225.843 168.034 222.646 164.821 222.646 160.858C222.646 156.895 225.843 153.681 229.757 153.681H236.885C241.011 153.681 244.648 150.729 245.53 146.668L249.476 128.449C251.433 119.43 259.491 112.889 268.641 112.889H272.034C275.474 112.889 278.704 114.439 280.873 117.13C283.075 119.87 283.907 123.409 283.173 126.851L276.91 155.753C275.361 162.88 268.967 168.067 261.725 168.067ZM241.484 167.349H261.709C268.624 167.349 274.708 162.407 276.193 155.59L282.456 126.688C283.157 123.459 282.374 120.131 280.302 117.571C278.264 115.042 275.246 113.591 272.017 113.591H268.624C259.817 113.591 252.054 119.903 250.162 128.596L246.214 146.814C245.269 151.218 241.338 154.399 236.869 154.399H229.741C226.218 154.399 223.348 157.302 223.348 160.858C223.348 164.413 226.218 167.317 229.741 167.317H241.321C241.386 167.317 241.436 167.317 241.484 167.349Z" fill="#234092"/>
<path d="M183.181 165.097H91.9583C90.6208 165.097 89.5607 166.254 89.7075 167.592L98.4171 253.432C98.4501 253.759 98.7268 254.003 99.053 254.003L103.766 253.906C103.963 253.906 104.109 253.743 104.093 253.547L98.352 173.725C98.254 172.404 99.2977 171.295 100.619 171.295L174.651 171.392C175.972 171.392 177.016 172.518 176.902 173.839L170.801 253.254C170.769 253.661 171.095 254.02 171.503 254.036L175.613 254.151C175.907 254.151 176.152 253.938 176.184 253.645L185.399 167.625C185.579 166.271 184.535 165.097 183.181 165.097Z" fill="white"/>
<path d="M175.658 254.494C175.642 254.494 175.642 254.494 175.626 254.494L171.516 254.379C171.222 254.379 170.945 254.249 170.733 254.021C170.537 253.792 170.439 253.515 170.455 253.205L176.539 173.79C176.588 173.252 176.409 172.747 176.034 172.355C175.675 171.964 175.169 171.751 174.631 171.751L100.599 171.654C100.061 171.654 99.5712 171.866 99.213 172.257C98.8538 172.648 98.6741 173.154 98.7072 173.693L104.448 253.515C104.464 253.71 104.399 253.89 104.269 254.036C104.138 254.184 103.959 254.265 103.763 254.265L99.0499 254.362C98.5275 254.379 98.0868 253.988 98.0382 253.465L89.345 167.625C89.2635 166.891 89.5081 166.141 90.0137 165.603C90.503 165.049 91.2207 164.738 91.9546 164.738H183.177C183.928 164.738 184.629 165.049 185.135 165.603C185.64 166.157 185.869 166.891 185.787 167.642L176.572 253.662C176.523 254.134 176.115 254.494 175.658 254.494ZM100.615 170.936L174.663 171.034C175.397 171.034 176.099 171.344 176.588 171.882C177.078 172.42 177.339 173.138 177.273 173.872L171.173 253.287C171.173 253.384 171.206 253.482 171.271 253.563C171.336 253.645 171.434 253.678 171.532 253.678L175.642 253.792C175.756 253.792 175.838 253.71 175.854 253.613L185.07 167.592C185.135 167.054 184.955 166.517 184.597 166.109C184.238 165.701 183.716 165.472 183.177 165.472H91.9546C91.4164 165.472 90.8945 165.701 90.5357 166.092C90.1768 166.484 89.9974 167.021 90.0464 167.56L98.7557 253.4C98.7722 253.547 98.9033 253.645 99.0334 253.645L103.747 253.547L97.9897 173.742C97.9402 173.024 98.1848 172.29 98.6907 171.768C99.1965 171.23 99.8974 170.936 100.615 170.936Z" fill="#234092"/>
<path d="M166.659 170.121C166.462 170.121 166.299 169.957 166.299 169.761V165.863C166.299 165.667 166.462 165.504 166.659 165.504C166.854 165.504 167.017 165.667 167.017 165.863V169.745C167.017 169.957 166.854 170.121 166.659 170.121Z" fill="white"/>
<path d="M125.945 198.485C123.89 207.896 132.028 233.633 133.741 239.896C133.97 240.712 134.72 241.282 135.568 241.282H143.152C144.212 241.282 145.061 240.435 145.044 239.375C144.979 231.937 143.625 204.797 148.257 196.985C150.948 192.466 155.858 190.428 159.153 188.274C167.047 183.105 164.078 171.671 164.078 171.671L134.263 189.367C130.153 190.02 126.842 194.44 125.945 198.485Z" fill="#234092"/>
<path d="M137.264 174.655C137.264 174.655 111.233 174.884 103.028 184.671C95.6564 193.462 106.585 232.165 108.884 239.913C109.129 240.712 109.863 241.267 110.711 241.267H120.497C120.709 241.267 120.872 241.104 120.872 240.891V199.888C120.872 197.311 121.377 198.697 123.564 197.294C126.63 195.337 132.191 197 139.857 197.05C164.191 197.228 160.262 174.329 160.262 174.329L137.264 174.655Z" fill="#234092"/>
<path d="M143.233 241.331L143.755 247.969L137.671 248.001L136.416 241.379L143.233 241.331Z" fill="white"/>
<path d="M137.672 248.361C137.492 248.361 137.346 248.231 137.313 248.068L136.058 241.445C136.041 241.347 136.058 241.234 136.139 241.152C136.204 241.071 136.302 241.021 136.416 241.021L143.25 240.973C143.446 240.973 143.592 241.119 143.609 241.299L144.115 247.937C144.115 248.035 144.082 248.133 144.016 248.214C143.951 248.296 143.853 248.329 143.755 248.329L137.672 248.361ZM136.84 241.739L137.965 247.643L143.364 247.61L142.908 241.69L136.84 241.739Z" fill="#234092"/>
<path d="M119.19 241.331L119.092 247.969L112.829 248.001L111.719 241.379L119.19 241.331Z" fill="white"/>
<path d="M112.828 248.361C112.649 248.361 112.502 248.231 112.469 248.068L111.36 241.445C111.344 241.347 111.376 241.234 111.442 241.152C111.507 241.071 111.605 241.021 111.718 241.021L119.189 240.973C119.286 240.973 119.384 241.005 119.449 241.086C119.515 241.152 119.547 241.249 119.547 241.347L119.449 247.986C119.449 248.181 119.286 248.344 119.091 248.344L112.828 248.361ZM112.143 241.739L113.138 247.643L118.748 247.61L118.83 241.69L112.143 241.739Z" fill="#234092"/>
<path d="M112.912 247.154H118.751C119.159 247.154 119.534 247.399 119.697 247.773C120.219 249.03 121.263 251.933 121.132 254.705C121.1 255.456 120.464 256.06 119.697 256.06H102.571C101.789 256.06 101.185 255.342 101.348 254.575C101.544 253.662 102.18 252.455 104.072 251.362C107.105 249.601 110.923 247.855 112.129 247.317C112.374 247.219 112.651 247.154 112.912 247.154Z" fill="white"/>
<path d="M119.682 256.435H102.573C102.084 256.435 101.628 256.223 101.317 255.831C101.007 255.457 100.894 254.983 100.991 254.51C101.187 253.596 101.839 252.243 103.878 251.069C106.944 249.291 110.843 247.513 111.968 246.992C112.261 246.861 112.588 246.796 112.914 246.796H118.753C119.308 246.796 119.813 247.122 120.025 247.644C120.514 248.818 121.623 251.868 121.477 254.739C121.445 255.685 120.645 256.435 119.682 256.435ZM112.914 247.513C112.686 247.513 112.474 247.562 112.261 247.66C111.153 248.166 107.27 249.943 104.237 251.689C102.801 252.521 101.921 253.548 101.693 254.658C101.643 254.902 101.709 255.162 101.872 255.375C102.035 255.587 102.296 255.701 102.573 255.701H119.682C120.253 255.701 120.726 255.26 120.759 254.69C120.906 251.965 119.829 249.046 119.356 247.904C119.258 247.66 119.014 247.497 118.753 247.497H112.914V247.513Z" fill="#234092"/>
<path d="M137.88 247.154H143.718C144.126 247.154 144.502 247.399 144.665 247.773C145.186 249.03 146.23 251.933 146.1 254.705C146.067 255.456 145.431 256.06 144.665 256.06H127.555C126.772 256.06 126.168 255.342 126.331 254.575C126.528 253.662 127.163 252.455 129.056 251.362C132.09 249.601 135.906 247.855 137.113 247.317C137.325 247.219 137.602 247.154 137.88 247.154Z" fill="white"/>
<path d="M144.652 256.435H127.542C127.053 256.435 126.596 256.223 126.286 255.831C125.976 255.457 125.862 254.983 125.96 254.51C126.156 253.596 126.808 252.243 128.847 251.069C131.913 249.291 135.811 247.513 136.937 246.992C137.23 246.861 137.557 246.796 137.883 246.796H143.722C144.277 246.796 144.782 247.122 144.994 247.644C145.484 248.818 146.592 251.868 146.446 254.739C146.397 255.685 145.597 256.435 144.652 256.435ZM137.883 247.513C137.655 247.513 137.442 247.562 137.23 247.66C136.122 248.166 132.239 249.943 129.205 251.689C127.771 252.521 126.89 253.548 126.662 254.658C126.612 254.902 126.677 255.162 126.84 255.375C127.004 255.587 127.265 255.701 127.542 255.701H144.652C145.222 255.701 145.695 255.26 145.728 254.69C145.875 251.965 144.798 249.046 144.325 247.904C144.227 247.66 143.983 247.497 143.722 247.497H137.883V247.513Z" fill="#234092"/>
<path d="M115.251 161.56L112.071 160.369C110.718 159.863 109.233 159.88 107.912 160.434C106.248 161.12 103.981 162.228 102.431 163.696C102.04 164.072 102.285 164.74 102.807 164.74H115.121L115.251 161.56Z" fill="white"/>
<path d="M115.102 165.082H102.788C102.397 165.082 102.07 164.854 101.924 164.494C101.777 164.12 101.859 163.695 102.152 163.419C103.75 161.901 106.066 160.776 107.746 160.091C109.165 159.504 110.731 159.488 112.183 160.026L115.363 161.217C115.51 161.265 115.608 161.412 115.591 161.575L115.445 164.739C115.445 164.935 115.298 165.082 115.102 165.082ZM110.046 160.368C109.361 160.368 108.676 160.498 108.024 160.76C106.409 161.412 104.174 162.505 102.658 163.94C102.56 164.022 102.56 164.153 102.593 164.218C102.608 164.266 102.658 164.348 102.771 164.348H114.744L114.857 161.788L111.921 160.695C111.319 160.483 110.682 160.368 110.046 160.368Z" fill="#234092"/>
<path d="M169.495 147.386C169.495 147.386 169.837 135.022 161.306 133.538C161.306 133.522 161.323 133.506 161.323 133.506L152.287 133C152.287 133 146.481 132.201 141.148 136.8C136.32 140.944 135.26 151.594 132.177 154.301C129.503 156.65 118.003 159.7 114.986 160.466C114.562 160.581 114.268 160.956 114.268 161.396L114.285 164.316H132.535C135.08 164.316 137.51 163.289 139.288 161.461C140.348 160.368 141.669 159.015 143.105 157.498C143.089 158.444 143.187 159.994 143.855 161.723C145.192 165.213 144.556 169.16 141.995 171.9C140.92 173.042 139.712 174.085 138.424 174.706C138.424 174.706 139.239 178.554 145.176 178.832C147.59 178.946 153.968 179.174 158.713 178.897C165.189 178.522 169.984 177.331 169.984 177.331L169.495 147.386Z" fill="white"/>
<path d="M153.498 179.37C150.089 179.37 146.827 179.239 145.18 179.174C139.03 178.896 138.118 174.933 138.085 174.77C138.052 174.607 138.133 174.444 138.28 174.379C139.389 173.84 140.548 172.927 141.738 171.654C144.151 169.061 144.837 165.31 143.515 161.852C143.01 160.547 142.831 159.34 142.766 158.378C141.673 159.52 140.661 160.563 139.797 161.444L139.536 161.705C137.709 163.581 135.149 164.658 132.523 164.658H114.272C114.076 164.658 113.913 164.494 113.913 164.298L113.896 161.379C113.896 160.776 114.304 160.254 114.891 160.091C121.791 158.33 129.88 155.801 131.935 153.991C133.224 152.849 134.203 150.076 135.247 147.124C136.6 143.258 138.15 138.871 140.906 136.489C146.305 131.841 152.095 132.575 152.339 132.608L161.343 133.114C161.408 133.114 161.49 133.146 161.538 133.179C170.003 134.826 169.856 146.944 169.841 147.352L170.346 177.281C170.346 177.445 170.232 177.591 170.069 177.641C170.02 177.657 165.176 178.847 158.733 179.207C157.119 179.337 155.292 179.37 153.498 179.37ZM138.867 174.884C139.161 175.715 140.466 178.244 145.213 178.456C147.153 178.538 153.84 178.799 158.717 178.521C164.214 178.211 168.536 177.281 169.645 177.037L169.155 147.385V147.369C169.155 147.254 169.384 135.299 161.278 133.88C161.229 133.88 161.196 133.864 161.163 133.831L152.306 133.325C152.225 133.309 146.566 132.608 141.412 137.028C138.802 139.279 137.302 143.569 135.964 147.352C134.856 150.516 133.892 153.257 132.458 154.529C129.75 156.91 118.496 159.911 115.119 160.776C114.859 160.841 114.663 161.086 114.663 161.362L114.679 163.924H132.572C135.002 163.924 137.367 162.928 139.063 161.184L139.324 160.923C140.335 159.879 141.558 158.623 142.896 157.22C142.994 157.106 143.157 157.073 143.287 157.138C143.417 157.188 143.515 157.334 143.515 157.481C143.499 158.427 143.614 159.911 144.233 161.575C145.652 165.293 144.918 169.339 142.309 172.127C141.118 173.367 139.977 174.297 138.867 174.884Z" fill="#234092"/>
<path d="M142.718 158.9C142.637 158.9 142.54 158.867 142.474 158.802C142.327 158.672 142.327 158.443 142.458 158.296C144.823 155.752 146.649 152.816 147.906 149.587C147.971 149.407 148.182 149.309 148.378 149.375C148.558 149.44 148.656 149.652 148.59 149.848C147.302 153.175 145.426 156.176 143.013 158.786C142.915 158.867 142.816 158.9 142.718 158.9Z" fill="#234092"/>
<path d="M146.922 117.342C146.922 117.342 146.58 120.36 145.063 122.039C144.949 122.17 144.916 122.349 145.014 122.497L145.634 123.54C145.682 123.638 145.732 123.72 145.764 123.833L146.792 126.884C146.889 127.16 147.134 127.357 147.428 127.39C148.08 127.438 149.711 127.193 149.858 127.618C150.005 128.107 149.891 132.005 149.842 133.718C149.825 134.174 150.151 134.566 150.592 134.648L154.099 135.3C155.681 135.593 157.296 135.397 158.764 134.761C159.236 134.55 159.448 133.995 159.236 133.538C158.437 131.825 156.675 127.731 156.92 125.236L158.486 120.881C158.454 118.794 156.708 117.13 154.605 117.196L146.922 117.342Z" fill="white"/>
<path d="M155.546 135.773C155.041 135.773 154.536 135.725 154.03 135.626L150.523 134.974C149.904 134.859 149.463 134.322 149.48 133.686C149.61 129.885 149.593 128.157 149.528 127.765C149.316 127.683 148.614 127.7 148.24 127.716C147.93 127.733 147.636 127.733 147.408 127.716C146.968 127.683 146.592 127.39 146.462 126.966L145.434 123.916C145.402 123.835 145.369 123.769 145.337 123.704L144.717 122.66C144.553 122.382 144.586 122.024 144.815 121.779C146.234 120.213 146.576 117.31 146.576 117.277C146.592 117.098 146.739 116.968 146.918 116.951L154.568 116.755C155.694 116.723 156.754 117.131 157.553 117.913C158.352 118.68 158.808 119.708 158.825 120.801C158.825 120.849 158.825 120.882 158.808 120.931L157.259 125.236C157.064 127.667 158.793 131.679 159.559 133.31C159.705 133.621 159.722 133.979 159.592 134.305C159.461 134.631 159.233 134.892 158.906 135.023C157.846 135.528 156.705 135.773 155.546 135.773ZM148.909 126.982C149.578 126.982 150.082 127.064 150.213 127.504C150.327 127.896 150.327 129.983 150.213 133.718C150.197 133.995 150.393 134.224 150.67 134.273L154.176 134.925C155.677 135.202 157.227 135.023 158.63 134.403C158.776 134.338 158.874 134.224 158.923 134.093C158.971 133.947 158.971 133.799 158.906 133.669C158.124 131.99 156.313 127.781 156.558 125.188C156.558 125.155 156.574 125.123 156.574 125.106L158.107 120.817C158.074 119.936 157.7 119.105 157.064 118.501C156.395 117.865 155.531 117.522 154.601 117.555L147.261 117.734C147.131 118.566 146.657 120.882 145.369 122.317C145.352 122.334 145.352 122.35 145.352 122.35L145.973 123.394C146.038 123.508 146.103 123.622 146.136 123.753L147.163 126.802C147.213 126.949 147.343 127.047 147.489 127.064C147.669 127.08 147.93 127.064 148.223 127.064C148.451 126.999 148.696 126.982 148.909 126.982Z" fill="#234092"/>
<path d="M146.216 116.281C145.906 116.755 146.085 117.391 146.607 117.636L146.917 117.782L152.936 120.751C153.082 120.833 153.278 120.816 153.409 120.718C153.653 120.538 154.109 120.31 154.55 120.603C155.17 120.996 155.301 123.132 153.702 123.702C153.49 123.784 153.376 123.997 153.457 124.208C153.555 124.436 153.686 124.73 153.881 125.057C155.301 127.487 158.807 127.633 160.487 125.383C161.727 123.719 162.868 120.979 161.466 117.244C159.264 111.323 150.277 110.068 146.216 116.281Z" fill="#234092"/>
<path d="M160.85 114.912C160.85 114.912 163.476 111.797 167.309 113.004C171.142 114.211 171.337 120.702 171.794 124.747C173.36 139.003 176.85 144.206 177.959 145.494C179.199 146.929 169.396 145.95 166.086 144.825C156.561 141.579 161.567 132.413 162.024 130.75C162.464 129.102 166.02 119.854 161.617 118.778L159.382 116.87L160.85 114.912Z" fill="#234092"/>
<path d="M162.051 119.364L162.002 119.38C161.578 119.527 161.122 119.315 160.974 118.907L159.8 115.743C159.654 115.336 159.865 114.862 160.273 114.715L160.322 114.7C160.746 114.552 161.203 114.765 161.35 115.173L162.524 118.336C162.687 118.761 162.475 119.217 162.051 119.364Z" fill="white"/>
<path d="M161.726 119.788C161.253 119.788 160.796 119.494 160.633 119.021L159.459 115.857C159.344 115.563 159.361 115.253 159.491 114.976C159.622 114.699 159.85 114.471 160.143 114.373L160.193 114.356C160.796 114.128 161.465 114.438 161.693 115.042L162.868 118.206C162.982 118.499 162.966 118.809 162.835 119.086C162.704 119.364 162.476 119.592 162.182 119.69L162.134 119.706C162.004 119.771 161.872 119.788 161.726 119.788ZM160.601 115.009C160.551 115.009 160.503 115.025 160.454 115.042L160.405 115.058C160.29 115.107 160.208 115.188 160.16 115.286C160.111 115.384 160.111 115.514 160.143 115.612L161.318 118.776C161.4 119.005 161.661 119.119 161.889 119.038L161.938 119.021C162.052 118.972 162.134 118.891 162.182 118.793C162.232 118.695 162.232 118.565 162.199 118.467L161.025 115.303C160.959 115.123 160.796 115.009 160.601 115.009Z" fill="#234092"/>
<path d="M164.525 250.923H151.412V203.542H144.659V250.923H131.546C127.534 250.923 124.288 254.168 124.288 258.181V259.502H171.783V258.181C171.766 254.185 168.521 250.923 164.525 250.923Z" fill="white"/>
<path d="M171.77 259.86H124.274C124.079 259.86 123.916 259.697 123.916 259.501V258.18C123.916 253.972 127.341 250.564 131.532 250.564H144.287V203.557C144.287 203.362 144.45 203.199 144.646 203.199H151.399C151.594 203.199 151.757 203.362 151.757 203.557V250.564H164.512C168.719 250.564 172.129 253.989 172.129 258.18V259.501C172.145 259.697 171.982 259.86 171.77 259.86ZM124.65 259.143H171.411V258.18C171.411 254.38 168.312 251.281 164.512 251.281H151.399C151.203 251.281 151.039 251.118 151.039 250.922V203.916H145.021V250.922C145.021 251.118 144.858 251.281 144.662 251.281H131.549C127.749 251.281 124.65 254.38 124.65 258.18V259.143Z" fill="#234092"/>
<path d="M168.181 153.551H164.789C155.737 153.551 147.908 159.912 145.984 168.834L142.02 187.068C141.091 191.326 137.355 194.375 133.033 194.375H125.906C122.171 194.375 119.153 197.425 119.153 201.193C119.153 204.961 122.171 208.011 125.906 208.011H137.486V208.044H157.874C165 208.044 171.183 203.036 172.699 195.991L178.962 167.088C180.463 160.124 175.227 153.551 168.181 153.551Z" fill="white"/>
<path d="M157.861 208.385H137.473C137.423 208.385 137.375 208.369 137.325 208.352H125.893C121.978 208.352 118.781 205.14 118.781 201.176C118.781 197.213 121.978 193.999 125.893 193.999H133.02C137.147 193.999 140.783 191.047 141.664 186.986L145.611 168.768C147.569 159.748 155.626 153.207 164.776 153.207H168.168C171.61 153.207 174.839 154.757 177.009 157.448C179.21 160.189 180.042 163.727 179.309 167.169L173.045 196.071C171.495 203.198 165.119 208.385 157.861 208.385ZM137.636 207.668H157.861C164.776 207.668 170.859 202.725 172.344 195.908L178.607 167.006C179.309 163.777 178.525 160.45 176.454 157.889C174.415 155.361 171.398 153.909 168.168 153.909H164.776C155.968 153.909 148.205 160.221 146.312 168.915L142.366 187.132C141.419 191.536 137.488 194.717 133.02 194.717H125.893C122.369 194.717 119.499 197.62 119.499 201.176C119.499 204.732 122.369 207.635 125.893 207.635H137.473C137.538 207.635 137.586 207.651 137.636 207.668Z" fill="#234092"/>
<path d="M58.5458 26.5752C60.1278 26.5752 61.4164 27.8637 61.4164 29.4458V49.1485C61.4164 50.7306 60.1278 52.0191 58.5458 52.0191H27.2628L23.9029 56.2434L18.6021 52.0191H4.2329C2.65081 52.0191 1.3623 50.7306 1.3623 49.1485V29.4458C1.3623 27.8637 2.65081 26.5752 4.2329 26.5752H58.5458Z" fill="white"/>
<path d="M23.8897 57.0757C23.8082 57.0757 23.7103 57.043 23.6451 56.9778L18.4584 52.362H4.21966C2.44185 52.362 0.990234 50.9104 0.990234 49.1326V29.4462C0.990234 27.6684 2.44185 26.2168 4.21966 26.2168H14.9354C15.1311 26.2168 15.2942 26.3799 15.2942 26.5756C15.2942 26.7713 15.1311 26.9344 14.9354 26.9344H4.21966C2.83329 26.9344 1.72419 28.0598 1.72419 29.4299V49.1326C1.72419 50.519 2.8496 51.6281 4.21966 51.6281H18.5889C18.6705 51.6281 18.7683 51.6607 18.8336 51.7259L23.8408 56.1786L27.4453 51.7585C27.5106 51.677 27.6084 51.6281 27.7226 51.6281H58.5325C59.9189 51.6281 61.028 50.5027 61.028 49.1326V29.4462C61.028 28.0598 59.9026 26.9508 58.5325 26.9508H22.1771C21.9814 26.9508 21.8183 26.7877 21.8183 26.5919C21.8183 26.3962 21.9814 26.2331 22.1771 26.2331H58.5652C60.343 26.2331 61.7946 27.6847 61.7946 29.4625V49.1652C61.7946 50.943 60.343 52.3946 58.5652 52.3946H27.9183L24.1833 56.9615C24.1181 57.043 24.0365 57.092 23.9386 57.092C23.9223 57.0757 23.906 57.0757 23.8897 57.0757Z" fill="#234092"/>
<path d="M53.4948 36.33H10.3217C10.126 36.33 9.96289 36.1668 9.96289 35.9711C9.96289 35.7754 10.126 35.6123 10.3217 35.6123H53.4948C53.6905 35.6123 53.8536 35.7754 53.8536 35.9711C53.8536 36.1668 53.6905 36.33 53.4948 36.33Z" fill="#234092"/>
<path d="M53.4955 42.0868H44.476C44.2803 42.0868 44.1172 41.9237 44.1172 41.728C44.1172 41.5322 44.2803 41.3691 44.476 41.3691H53.4955C53.6913 41.3691 53.8544 41.5322 53.8544 41.728C53.8544 41.9237 53.6913 42.0868 53.4955 42.0868Z" fill="#234092"/>
<path d="M38.7014 42.0868H10.3217C10.126 42.0868 9.96289 41.9237 9.96289 41.728C9.96289 41.5322 10.126 41.3691 10.3217 41.3691H38.7014C38.8972 41.3691 39.0603 41.5322 39.0603 41.728C39.0603 41.9237 38.8972 42.0868 38.7014 42.0868Z" fill="#234092"/>
</g>
</g>
</g>
<defs>
<clipPath id="clip0_278_3466">
<rect width="300" height="299.02" fill="white" transform="translate(0 0.47998)"/>
</clipPath>
<clipPath id="clip1_278_3466">
<rect width="300" height="299.02" fill="white" transform="translate(0 0.47998)"/>
</clipPath>
<clipPath id="clip2_278_3466">
<rect width="299.991" height="299.02" fill="white" transform="translate(0.00439453 0.47998)"/>
</clipPath>
</defs>
</svg>
