<svg width="18" height="18" viewBox="0 0 18 18" fill="none" xmlns="http://www.w3.org/2000/svg">
<g clip-path="url(#clip0_325_9331)">
<path d="M9.0127 8.19141C9.52832 8.33203 9.9502 8.47266 10.2783 8.61328C10.6299 8.75391 10.9932 8.95312 11.3682 9.21094C11.7432 9.44531 12.0244 9.75 12.2119 10.125C12.4229 10.5 12.5283 10.9453 12.5283 11.4609C12.5283 12.1875 12.2822 12.7852 11.79 13.2539C11.3213 13.6992 10.6885 13.9922 9.8916 14.1328V15.75H7.6416V14.1328C6.86816 13.9688 6.22363 13.6406 5.70801 13.1484C5.21582 12.6562 4.94629 12.0234 4.89941 11.25H6.55176C6.64551 12.3047 7.38379 12.832 8.7666 12.832C9.49316 12.832 10.0088 12.7031 10.3135 12.4453C10.6416 12.1641 10.8057 11.8477 10.8057 11.4961C10.8057 10.6523 10.0557 10.043 8.55566 9.66797C6.21191 9.12891 5.04004 8.09766 5.04004 6.57422C5.04004 5.89453 5.28613 5.32031 5.77832 4.85156C6.27051 4.35938 6.8916 4.03125 7.6416 3.86719V2.25H9.8916V3.90234C10.665 4.08984 11.251 4.44141 11.6494 4.95703C12.0713 5.47266 12.2939 6.07031 12.3174 6.75H10.665C10.6182 5.69531 9.98535 5.16797 8.7666 5.16797C8.15723 5.16797 7.66504 5.29688 7.29004 5.55469C6.93848 5.8125 6.7627 6.15234 6.7627 6.57422C6.7627 7.25391 7.5127 7.79297 9.0127 8.19141Z" fill="black"/>
</g>
<defs>
<clipPath id="clip0_325_9331">
<rect width="18" height="18" fill="white"/>
</clipPath>
</defs>
</svg>
