<svg width="18" height="17" viewBox="0 0 18 17" fill="none" xmlns="http://www.w3.org/2000/svg">
<g clip-path="url(#clip0_325_10498)">
<path d="M7.13672 10.8633C7.65234 11.3789 8.27344 11.6367 9 11.6367C9.72656 11.6367 10.3477 11.3789 10.8633 10.8633C11.3789 10.3477 11.6367 9.72656 11.6367 9C11.6367 8.27344 11.3789 7.65234 10.8633 7.13672C10.3477 6.62109 9.72656 6.36328 9 6.36328C8.27344 6.36328 7.65234 6.62109 7.13672 7.13672C6.62109 7.65234 6.36328 8.27344 6.36328 9C6.36328 9.72656 6.62109 10.3477 7.13672 10.8633ZM14.5898 9.73828L16.1719 10.9688C16.3359 11.0859 16.3594 11.25 16.2422 11.4609L14.7305 14.0625C14.6367 14.2266 14.4844 14.2734 14.2734 14.2031L12.4102 13.4648C11.918 13.8164 11.4961 14.0625 11.1445 14.2031L10.8633 16.1719C10.8164 16.3828 10.6992 16.4883 10.5117 16.4883H7.48828C7.30078 16.4883 7.18359 16.3828 7.13672 16.1719L6.85547 14.2031C6.41016 14.0156 5.98828 13.7695 5.58984 13.4648L3.72656 14.2031C3.51562 14.2734 3.36328 14.2266 3.26953 14.0625L1.75781 11.4609C1.64062 11.25 1.66406 11.0859 1.82812 10.9688L3.41016 9.73828C3.38672 9.57422 3.375 9.32812 3.375 9C3.375 8.67188 3.38672 8.42578 3.41016 8.26172L1.82812 7.03125C1.66406 6.91406 1.64062 6.75 1.75781 6.53906L3.26953 3.9375C3.36328 3.77344 3.51562 3.72656 3.72656 3.79688L5.58984 4.53516C6.08203 4.18359 6.50391 3.9375 6.85547 3.79688L7.13672 1.82812C7.18359 1.61719 7.30078 1.51172 7.48828 1.51172H10.5117C10.6992 1.51172 10.8164 1.61719 10.8633 1.82812L11.1445 3.79688C11.5898 3.98437 12.0117 4.23047 12.4102 4.53516L14.2734 3.79688C14.4844 3.72656 14.6367 3.77344 14.7305 3.9375L16.2422 6.53906C16.3594 6.75 16.3359 6.91406 16.1719 7.03125L14.5898 8.26172C14.6133 8.42578 14.625 8.67188 14.625 9C14.625 9.32812 14.6133 9.57422 14.5898 9.73828Z" fill="#234092"/>
</g>
<defs>
<clipPath id="clip0_325_10498">
<rect width="18" height="17" fill="white"/>
</clipPath>
</defs>
</svg>
